<?xml version="1.0" encoding="utf-8"?>
<!-- Generator: Adobe Illustrator 27.5.0, SVG Export Plug-In . SVG Version: 6.00 Build 0)  -->
<svg version="1.1" xmlns="http://www.w3.org/2000/svg" xmlns:xlink="http://www.w3.org/1999/xlink" x="0px" y="0px"
	 viewBox="0 0 750 500" style="enable-background:new 0 0 750 500;" xml:space="preserve">
<g id="BACKGROUND" style="opacity:0.2;">
	<g>
		<g>
			<rect style="fill:#BAD3F1;" width="750" height="500"/>
		</g>
	</g>
</g>
<g id="OBJECTS">
	<g id="BG">
		<path style="fill:#BAD3F1;" d="M235.25,136.098C-10.084,181.095,80.104,392.59,80.104,392.59s431.294-1.166,594.078,1.25
			C764.284,126.608,480.584,91.1,235.25,136.098z"/>
		<path style="fill:#BAD3F1;" d="M576.484,125.142c22.397,2.866,48.516-5.586,28.516-17.557c-20-11.97-95-26.335-108.528-7.98
			C482.943,117.96,552.776,122.108,576.484,125.142z"/>
		<path style="fill:#BAD3F1;" d="M661.926,154.302c13.309-23.216-27.698-34.587-34.143-22.667
			C619.127,147.645,653.5,169,661.926,154.302z"/>
		<path style="fill:#BAD3F1;" d="M177.515,137.59c12.343-5.567,23.034-18.086,9.058-17.923
			c-13.977,0.163-56.806,16.37-57.956,29.995C127.468,163.288,164.45,143.483,177.515,137.59z"/>
		<g>
			<path style="fill:#DCF9F5;" d="M517.807,171.507h-8.907c0.088-0.459,0.138-0.932,0.138-1.417c0-4.155-3.367-7.523-7.523-7.523
				c-1.361,0-2.636,0.368-3.738,1.001c-0.224-5.656-4.866-10.176-10.577-10.176c-1.41,0-2.753,0.281-3.982,0.781
				c0.175-0.888,0.272-1.804,0.272-2.743c0-7.792-6.317-14.108-14.109-14.108c-7.791,0-14.106,6.316-14.106,14.108
				c0,1.057,0.125,2.082,0.346,3.073c-1.419-0.705-3.012-1.111-4.704-1.111c-5.439,0-9.917,4.102-10.522,9.38
				c-1.934-2.577-5.005-4.253-8.475-4.253c-0.024,0-0.049,0.004-0.073,0.004c-0.734-7.656-7.181-13.644-15.028-13.644
				c-7.335,0-13.442,5.23-14.811,12.163c-1.766-1.315-3.947-2.103-6.318-2.103c-5.032,0-9.236,3.512-10.319,8.216
				c-0.897-0.379-1.885-0.588-2.92-0.588c-4.154,0-7.522,3.369-7.522,7.523c0,0.485,0.05,0.958,0.138,1.417h-8.908
				c-2.659,0-4.814,2.155-4.814,4.814c0,2.659,2.155,4.814,4.814,4.814h151.653c2.659,0,4.814-2.155,4.814-4.814
				C522.62,173.663,520.466,171.507,517.807,171.507z"/>
			<path style="fill:#FFFFFF;" d="M631.349,195.594h-10.489c0.104-0.541,0.162-1.098,0.162-1.669c0-4.893-3.965-8.859-8.859-8.859
				c-1.604,0-3.104,0.433-4.402,1.179c-0.264-6.661-5.73-11.983-12.456-11.983c-1.66,0-3.241,0.331-4.689,0.919
				c0.206-1.045,0.319-2.124,0.319-3.23c0-9.176-7.438-16.614-16.614-16.614c-9.175,0-16.612,7.438-16.612,16.614
				c0,1.245,0.148,2.453,0.407,3.619c-1.671-0.83-3.547-1.309-5.539-1.309c-6.406,0-11.679,4.83-12.392,11.045
				c-2.277-3.035-5.894-5.007-9.979-5.007c-0.029,0-0.058,0.004-0.087,0.004c-0.864-9.016-8.455-16.067-17.697-16.067
				c-8.637,0-15.829,6.159-17.44,14.323c-2.079-1.549-4.648-2.477-7.44-2.477c-5.926,0-10.877,4.135-12.152,9.675
				c-1.057-0.446-2.219-0.692-3.439-0.692c-4.892,0-8.858,3.967-8.858,8.859c0,0.571,0.059,1.128,0.162,1.669h-10.489
				c-3.131,0-5.669,2.538-5.669,5.669c0,3.131,2.538,5.669,5.669,5.669h178.586c3.131,0,5.668-2.538,5.668-5.669
				C637.017,198.132,634.479,195.594,631.349,195.594z"/>
			<path style="fill:#FFFFFF;" d="M264.664,249.073h-10.489c0.104-0.541,0.162-1.098,0.162-1.669c0-4.893-3.965-8.859-8.859-8.859
				c-1.604,0-3.104,0.433-4.402,1.179c-0.264-6.661-5.73-11.983-12.456-11.983c-1.66,0-3.241,0.331-4.689,0.919
				c0.206-1.045,0.319-2.124,0.319-3.23c0-9.176-7.438-16.614-16.614-16.614c-9.175,0-16.612,7.438-16.612,16.614
				c0,1.245,0.147,2.453,0.407,3.619c-1.671-0.83-3.547-1.309-5.539-1.309c-6.406,0-11.679,4.83-12.392,11.045
				c-2.277-3.035-5.894-5.007-9.98-5.007c-0.029,0-0.058,0.004-0.087,0.004c-0.864-9.016-8.455-16.067-17.697-16.067
				c-8.637,0-15.829,6.159-17.44,14.323c-2.079-1.549-4.648-2.477-7.44-2.477c-5.926,0-10.877,4.135-12.152,9.675
				c-1.057-0.446-2.219-0.692-3.438-0.692c-4.892,0-8.858,3.967-8.858,8.859c0,0.571,0.059,1.128,0.162,1.669H86.078
				c-3.131,0-5.669,2.538-5.669,5.669c0,3.131,2.538,5.668,5.669,5.668h178.586c3.131,0,5.668-2.537,5.668-5.668
				C270.331,251.611,267.794,249.073,264.664,249.073z"/>
		</g>
	</g>
	<g id="TRUCK">
		<g>
			<rect x="470.208" y="193" style="fill:#262F56;" width="128.248" height="160.68"/>
			<g>
				<polygon style="fill:#385A7F;" points="469.086,355.086 525,389.116 655.922,389.116 653.333,387.493 599.581,355.086 				"/>
				<g>
					<polygon style="fill:#262F56;" points="611.704,362.404 481.109,362.404 482.253,363.1 612.856,363.1 					"/>
					<polygon style="fill:#262F56;" points="627.192,371.753 496.472,371.753 497.614,372.449 628.345,372.449 					"/>
					<polygon style="fill:#262F56;" points="641.326,380.285 510.49,380.285 511.633,380.98 642.479,380.98 					"/>
				</g>
				<polygon style="fill:#162345;" points="525,389.06 525,390.683 469.086,356.652 469.086,355.086 				"/>
				<rect x="525" y="389.06" style="fill:#262F56;" width="130.922" height="1.623"/>
			</g>
		</g>
		<g>
			<polygon style="fill:#F1CE7A;" points="107.482,352.857 208.098,352.857 208.098,191.594 146.471,191.594 107.482,301.089 			"/>
			<g>
				<polygon style="fill:#BBD2F1;" points="198.749,206.078 198.749,276.468 126.275,281.856 153.044,206.078 				"/>
				<polygon style="fill:#FFFFFF;" points="152.738,208.643 198.481,208.643 198.182,206.078 152.835,206.568 				"/>
				<g>
					<defs>
						<polygon id="SVGID_1_" points="198.749,206.078 198.749,276.468 126.275,281.856 153.044,206.078 						"/>
					</defs>
					<clipPath id="SVGID_00000102535272409796818040000005951234955865369502_">
						<use xlink:href="#SVGID_1_"  style="overflow:visible;"/>
					</clipPath>
					<path style="opacity:0.5;clip-path:url(#SVGID_00000102535272409796818040000005951234955865369502_);fill:#262F56;" d="
						M198.481,277.228v-31.063c0-2.549-1.732-4.616-3.871-4.616c-2.138,0-3.871,2.067-3.871,4.616v29.128H173.29
						c-2.599,0-4.705,2.513-4.705,5.61c0,3.101,2.106,5.611,4.705,5.611h21.644c2.598,0,4.705-2.511,4.705-5.611
						C199.638,279.495,199.201,278.212,198.481,277.228z"/>
					<path style="opacity:0.5;clip-path:url(#SVGID_00000102535272409796818040000005951234955865369502_);fill:#262F56;" d="
						M158.817,261.305l-13.114-12.619c-0.553-0.532-1.363-0.428-1.809,0.231c-0.446,0.659-0.359,1.625,0.193,2.157l6.201,5.968
						c-0.029,0.041-0.061,0.078-0.09,0.121l-15.331,22.66c-0.645,0.954-0.884,2.005-0.533,2.343
						c0.352,0.338,1.161-0.162,1.807-1.116l15.331-22.661c0.03-0.044,0.053-0.087,0.081-0.131l5.648,5.435
						c0.553,0.531,1.362,0.428,1.808-0.23C159.456,262.802,159.37,261.836,158.817,261.305z"/>
				</g>
				<g>
					<path style="fill:#162345;" d="M125.643,284.125c-0.283,0-0.552-0.151-0.721-0.408c-0.182-0.28-0.22-0.644-0.1-0.961
						l27.401-77.06c0.139-0.367,0.462-0.606,0.821-0.606h45.705c0.491,0,0.89,0.442,0.89,0.988v70.39
						c0,0.515-0.357,0.944-0.819,0.985l-73.105,6.668C125.69,284.123,125.667,284.125,125.643,284.125z M153.636,207.065
						c0,0-25.406,71.533-24.302,73.143c1.205,1.755,68.524-4.652,68.524-4.652v-68.491H153.636z"/>
				</g>
				<polygon style="fill:#FFFFFF;" points="157.792,212.207 155.106,212.207 150.166,227.34 179.629,273.262 194.244,272.178 				
					"/>
				<polygon style="fill:#FFFFFF;" points="170.366,212.207 162.164,212.207 194.244,265.409 194.244,252.803 				"/>
			</g>
			<path style="opacity:0.7;fill:#EB7351;" d="M149.753,197.75l-37.286,102.451l-0.052,0.143v46.198h91.547V197.75H149.753z
				 M113.674,345.043v-44.388l36.905-101.405h52.126v99.25h-59.464c-4.732,0-12.084,2.202-17.231,8.41
				c-4.226,5.097-6.327,11.936-6.248,20.327l1.258-0.018c-0.076-7.976,1.904-14.454,5.884-19.255
				c4.874-5.879,11.846-7.965,16.336-7.965h59.464v45.043H113.674z"/>
			<rect x="107.482" y="326.228" style="fill:#EB7351;" width="100.616" height="28.857"/>
			<g>
				<g>
					<path style="fill:#262F56;" d="M113.045,268.641c0,1.658,1.127,3,2.516,3l0,0c1.389,0,2.515-1.342,2.515-3v-22.249
						c0-1.657-1.126-3-2.515-3l0,0c-1.389,0-2.516,1.343-2.516,3V268.641z"/>
				</g>
				<g>
					<path style="fill:#162345;" d="M125.828,282.387c-4.644,0-11.685-2.352-12.783-6.373c-1.5-5.489-1.192-16.908-1.179-17.4
						c0.011-0.414,0.294-0.751,0.648-0.727c0.347,0.014,0.62,0.359,0.609,0.773c-0.003,0.118-0.292,11.857,1.14,17.098
						c0.79,2.889,6.865,5.129,11.565,5.129c0.347,0,0.629,0.336,0.629,0.75C126.457,282.051,126.175,282.387,125.828,282.387z"/>
				</g>
			</g>
			<g>
				<path style="fill:#385A7F;" d="M198.605,288.25h-16.358c-0.579,0-1.048,0.56-1.048,1.25s0.469,1.25,1.048,1.25h0.877
					c0,0.69,0.469,1.25,1.048,1.25h12.507c0.579,0,1.048-0.56,1.048-1.25h0.877c0.579,0,1.048-0.56,1.048-1.25
					S199.185,288.25,198.605,288.25z"/>
				<path style="fill:#262F56;" d="M184.173,292h12.507c0.579,0,1.048-0.56,1.048-1.25h-14.604
					C183.124,291.44,183.594,292,184.173,292z"/>
			</g>
			<rect x="208.098" y="191.594" style="fill:#EDA366;" width="15" height="163.492"/>
			<rect x="208.098" y="326.228" style="fill:#C64938;" width="15" height="28.857"/>
			<path style="fill:#C64938;" d="M179.52,344.882c-4.039-5.21-9.296-8.382-15.061-8.382h-17.759
				c-5.863,0-11.204,3.276-15.269,8.647c0,0-0.502,0.638-0.997,1.396c-1.681,2.5-3.113,5.371-4.213,8.543h58.719
				c-1.1-3.172-2.532-6.043-4.213-8.543L179.52,344.882z"/>
			<g>
				<path style="fill:#162345;" d="M163.866,341.086h-16.571v50.254h16.571c11.875,0,21.501-11.25,21.501-25.127
					C185.367,352.336,175.741,341.086,163.866,341.086z"/>
				<ellipse style="fill:#385A7F;" cx="147.294" cy="366.213" rx="21.5" ry="25.127"/>
				<path style="fill:#FFFFFF;" d="M160.885,366.213c0,8.773-6.085,15.884-13.591,15.884c-7.506,0-13.591-7.111-13.591-15.884
					c0-8.772,6.085-15.884,13.591-15.884C154.801,350.329,160.885,357.44,160.885,366.213z"/>
				<path style="fill:#BAD3F1;" d="M157.135,366.213c0,6.353-4.406,11.502-9.841,11.502c-5.435,0-9.841-5.149-9.841-11.502
					c0-6.352,4.406-11.502,9.841-11.502C152.73,354.711,157.135,359.86,157.135,366.213z"/>
				<path style="fill:#162345;" d="M152.223,366.213c0,3.181-2.207,5.76-4.928,5.76c-2.722,0-4.928-2.579-4.928-5.76
					s2.207-5.76,4.928-5.76C150.016,360.453,152.223,363.032,152.223,366.213z"/>
			</g>
			<rect x="112.416" y="326.228" style="fill:#C64938;" width="1.334" height="24.104"/>
			<polygon style="fill:#C64938;" points="112.416,350.333 112.416,348.999 126.221,348.999 125.932,350.333 			"/>
			<path style="fill:#EB7351;" d="M210.374,355.086c-10.278-12.699-14.874-16.42-21.948-20.586l-35.211,2.023
				c8.914,0,16.635,7.541,20.467,18.563H210.374z"/>
			<path style="fill:#C64938;" d="M155.875,333.083h-9.635c-15.175,0-21.756,16.814-21.82,16.983l0.699,0.267h0.813
				c0.877-2.07,7.179-15.75,20.309-15.75h9.635c5.891,0,14.099,5.728,17.798,15.75l1.504-0.26
				C171.66,340.546,163.182,333.083,155.875,333.083z"/>
			<polygon style="fill:#C64938;" points="202.705,326.228 202.705,348.936 174.5,348.936 173.673,350.333 203.963,350.333 
				203.963,326.228 			"/>
		</g>
		<g>
			<rect x="223.098" y="191.594" style="fill:#385A7F;" width="245.988" height="163.492"/>
			<rect x="223.098" y="326.228" style="fill:#EB7351;" width="245.988" height="28.857"/>
			<path style="fill:#C64938;" d="M436.895,345.043c-4.063-5.305-9.408-8.543-15.277-8.543h-17.737
				c-6.737,0-12.798,4.247-17.006,11.015c-4.209-6.767-10.27-11.015-17.007-11.015h-17.737c-5.869,0-11.213,3.238-15.276,8.543
				c0,0-0.931,1.279-1.078,1.5c-1.684,2.501-3.113,5.372-4.203,8.543h110.601c-1.09-3.171-2.519-6.042-4.202-8.543L436.895,345.043z
				"/>
			
				<text transform="matrix(1 0 0 1 263.2402 234.7671)" style="fill:#262F56; font-family:'BebasKai'; font-size:28px; letter-spacing:2;">HUMANITARIAN</text>
			
				<text transform="matrix(1 0 0 1 258.9194 302.5146)" style="fill:#262F56; font-family:'BebasKai'; font-size:87px; letter-spacing:10;">HELP</text>
			<g>
				<path style="fill:#162345;" d="M369.285,341.086h-16.571v50.325h16.571c11.875,0,21.501-11.266,21.501-25.163
					C390.786,352.352,381.16,341.086,369.285,341.086z"/>
				<path style="fill:#385A7F;" d="M374.214,366.248c0,13.898-9.626,25.163-21.5,25.163c-11.874,0-21.5-11.266-21.5-25.163
					c0-13.896,9.626-25.162,21.5-25.162C364.588,341.086,374.214,352.352,374.214,366.248z"/>
				<path style="fill:#FFFFFF;" d="M366.305,366.248c0,8.785-6.085,15.907-13.591,15.907c-7.506,0-13.591-7.122-13.591-15.907
					c0-8.784,6.085-15.906,13.591-15.906C360.22,350.342,366.305,357.464,366.305,366.248z"/>
				<path style="fill:#BAD3F1;" d="M362.555,366.248c0,6.361-4.406,11.519-9.841,11.519c-5.435,0-9.841-5.157-9.841-11.519
					c0-6.36,4.406-11.517,9.841-11.517C358.149,354.73,362.555,359.888,362.555,366.248z"/>
				<path style="fill:#162345;" d="M357.642,366.248c0,3.186-2.207,5.769-4.928,5.769c-2.722,0-4.928-2.583-4.928-5.769
					c0-3.184,2.207-5.767,4.928-5.767C355.435,360.48,357.642,363.064,357.642,366.248z"/>
			</g>
			<g>
				<path style="fill:#162345;" d="M420.73,341.086h-16.571v50.325h16.571c11.875,0,21.501-11.266,21.501-25.163
					C442.231,352.352,432.605,341.086,420.73,341.086z"/>
				<path style="fill:#385A7F;" d="M425.659,366.248c0,13.898-9.626,25.163-21.5,25.163c-11.874,0-21.5-11.266-21.5-25.163
					c0-13.896,9.626-25.162,21.5-25.162C416.033,341.086,425.659,352.352,425.659,366.248z"/>
				<path style="fill:#FFFFFF;" d="M417.75,366.248c0,8.785-6.084,15.907-13.591,15.907c-7.507,0-13.591-7.122-13.591-15.907
					c0-8.784,6.084-15.906,13.591-15.906C411.666,350.342,417.75,357.464,417.75,366.248z"/>
				<path style="fill:#BAD3F1;" d="M414,366.248c0,6.361-4.406,11.519-9.841,11.519s-9.841-5.157-9.841-11.519
					c0-6.36,4.406-11.517,9.841-11.517S414,359.888,414,366.248z"/>
				<path style="fill:#162345;" d="M409.088,366.248c0,3.186-2.207,5.769-4.929,5.769c-2.722,0-4.929-2.583-4.929-5.769
					c0-3.184,2.207-5.767,4.929-5.767C406.881,360.48,409.088,363.064,409.088,366.248z"/>
			</g>
			<path style="fill:#262F56;" d="M460.834,197.75H235.25v128.478h1.5v-9.53h224.084v9.53h1.5V199.146v-1.396H460.834z
				 M236.75,315.302V199.146h224.084v116.155H236.75z"/>
			<path style="fill:#EB7351;" d="M424.667,334.5l-15.024,2.023c8.914,0,16.636,7.541,20.468,18.563H448
				C444,335.5,426.397,335.52,424.667,334.5z"/>
			<path style="fill:#EB7351;" d="M399.145,337.216c-1.554-1.103-2.56-1.696-4.291-2.716l-35.211,2.023
				c8.914,0,16.636,7.541,20.468,18.563h3.265C386.344,346.813,390.786,340.125,399.145,337.216z"/>
			<rect x="379.681" y="348.833" style="fill:#C64938;" width="3.695" height="1.5"/>
			<polygon style="fill:#C64938;" points="332.685,348.833 236.75,348.833 236.75,326.228 235.25,326.228 235.25,348.833 
				235.25,350.333 236.75,350.333 331.953,350.333 			"/>
			<path style="fill:#C64938;" d="M361.936,333.083h-9.635c-15.175,0-21.756,16.814-21.82,16.983l0.699,0.267h0.813
				c0.877-2.07,7.179-15.75,20.309-15.75h9.635c5.892,0,14.099,5.728,17.798,15.75l1.504-0.26
				C377.722,340.546,369.243,333.083,361.936,333.083z"/>
			<path style="fill:#C64938;" d="M412.983,333.083h-9.635c-15.175,0-21.756,16.814-21.82,16.983l0.699,0.267h0.813
				c0.878-2.07,7.179-15.75,20.309-15.75h9.635c5.892,0,14.099,5.728,17.798,15.75l1.504-0.26
				C428.769,340.546,420.29,333.083,412.983,333.083z"/>
			<polygon style="fill:#C64938;" points="460.834,326.228 460.834,349.583 430.51,349.583 431.016,351.083 460.834,351.083 
				462.334,351.083 462.334,349.583 462.334,326.228 			"/>
		</g>
		<g>
			<g>
				<rect x="533.987" y="321.355" style="fill:#F2D079;" width="29.443" height="29.442"/>
				<rect x="514.625" y="321.355" style="fill:#EDA366;" width="19.362" height="29.442"/>
				<rect x="544.613" y="321.355" style="fill:#EDA366;" width="8.192" height="4.011"/>
				<rect x="516.221" y="342.989" style="fill:#EB7351;" width="13.185" height="6.144"/>
				<rect x="516.221" y="322.635" style="fill:#EB7351;" width="1.023" height="2.731"/>
				<rect x="518.269" y="322.635" style="fill:#EB7351;" width="1.024" height="2.731"/>
				<rect x="555.904" y="347.342" style="fill:#FFFFFF;" width="6.017" height="1.792"/>
				<polygon style="fill:#EB7351;" points="554.977,333.853 551.12,333.853 551.12,329.997 546.676,329.997 546.676,333.853 
					542.819,333.853 542.819,338.298 546.676,338.298 546.676,342.155 551.12,342.155 551.12,338.298 554.977,338.298 				"/>
				<rect x="516.221" y="339.917" style="fill:#EB7351;" width="13.185" height="1.782"/>
			</g>
			<g>
				<rect x="533.987" y="291.892" style="fill:#F2D079;" width="29.443" height="29.443"/>
				<rect x="514.625" y="291.892" style="fill:#EDA366;" width="19.362" height="29.443"/>
				<rect x="544.613" y="291.892" style="fill:#EDA366;" width="8.192" height="4.011"/>
				<rect x="516.221" y="313.526" style="fill:#EB7351;" width="13.185" height="6.143"/>
				<rect x="516.221" y="293.172" style="fill:#EB7351;" width="1.023" height="2.73"/>
				<rect x="518.269" y="293.172" style="fill:#EB7351;" width="1.024" height="2.73"/>
				<rect x="555.904" y="317.878" style="fill:#FFFFFF;" width="6.017" height="1.792"/>
				<polygon style="fill:#EB7351;" points="554.977,304.391 551.12,304.391 551.12,300.533 546.676,300.533 546.676,304.391 
					542.819,304.391 542.819,308.835 546.676,308.835 546.676,312.691 551.12,312.691 551.12,308.835 554.977,308.835 				"/>
				<rect x="516.221" y="310.454" style="fill:#EB7351;" width="13.185" height="1.782"/>
			</g>
			<rect x="514.625" y="321.335" style="opacity:0.6;fill:#EB7351;" width="48.806" height="0.396"/>
			<g>
				<rect x="489.7" y="321.896" style="fill:#F2D079;" width="29.443" height="29.443"/>
				<rect x="470.338" y="321.896" style="fill:#EDA366;" width="19.362" height="29.443"/>
				<rect x="500.326" y="321.896" style="fill:#EDA366;" width="8.192" height="4.012"/>
				<rect x="471.934" y="343.53" style="fill:#EB7351;" width="13.185" height="6.144"/>
				<rect x="471.934" y="323.176" style="fill:#EB7351;" width="1.023" height="2.731"/>
				<rect x="473.981" y="323.176" style="fill:#EB7351;" width="1.025" height="2.731"/>
				<rect x="511.617" y="347.883" style="fill:#FFFFFF;" width="6.017" height="1.792"/>
				<polygon style="fill:#FFFFFF;" points="510.69,334.395 506.833,334.395 506.833,330.538 502.389,330.538 502.389,334.395 
					498.532,334.395 498.532,338.839 502.389,338.839 502.389,342.696 506.833,342.696 506.833,338.839 510.69,338.839 				"/>
				<rect x="471.934" y="340.458" style="fill:#EB7351;" width="13.185" height="1.782"/>
			</g>
			<g>
				<rect x="489.7" y="292.453" style="fill:#F2D079;" width="29.443" height="29.442"/>
				<rect x="470.338" y="292.453" style="fill:#EDA366;" width="19.362" height="29.442"/>
				<rect x="500.326" y="292.453" style="fill:#EDA366;" width="8.192" height="4.011"/>
				<rect x="471.934" y="314.087" style="fill:#EB7351;" width="13.185" height="6.144"/>
				<rect x="471.934" y="293.732" style="fill:#EB7351;" width="1.023" height="2.731"/>
				<rect x="473.981" y="293.732" style="fill:#EB7351;" width="1.025" height="2.731"/>
				<rect x="511.617" y="318.44" style="fill:#FFFFFF;" width="6.017" height="1.792"/>
				<polygon style="fill:#EB7351;" points="510.69,304.951 506.833,304.951 506.833,301.095 502.389,301.095 502.389,304.951 
					498.532,304.951 498.532,309.396 502.389,309.396 502.389,313.253 506.833,313.253 506.833,309.396 510.69,309.396 				"/>
				<rect x="471.934" y="311.015" style="fill:#EB7351;" width="13.185" height="1.782"/>
			</g>
			<rect x="470.338" y="321.896" style="opacity:0.6;fill:#EB7351;" width="48.806" height="0.396"/>
			<g>
				<rect x="489.7" y="262.989" style="fill:#F2D079;" width="29.443" height="29.443"/>
				<rect x="470.338" y="262.989" style="fill:#EDA366;" width="19.362" height="29.443"/>
				<rect x="500.326" y="262.989" style="fill:#EDA366;" width="8.192" height="4.011"/>
				<rect x="471.934" y="284.624" style="fill:#EB7351;" width="13.185" height="6.144"/>
				<rect x="471.934" y="264.27" style="fill:#EB7351;" width="1.023" height="2.73"/>
				<rect x="473.981" y="264.27" style="fill:#EB7351;" width="1.025" height="2.73"/>
				<rect x="511.617" y="288.976" style="fill:#FFFFFF;" width="6.017" height="1.792"/>
				<polygon style="fill:#EB7351;" points="510.69,275.488 506.833,275.488 506.833,271.631 502.389,271.631 502.389,275.488 
					498.532,275.488 498.532,279.933 502.389,279.933 502.389,283.789 506.833,283.789 506.833,279.933 510.69,279.933 				"/>
				<rect x="471.934" y="281.552" style="fill:#EB7351;" width="13.185" height="1.782"/>
			</g>
			<rect x="470.338" y="292.433" style="opacity:0.6;fill:#EB7351;" width="48.806" height="0.396"/>
			<g>
				<rect x="535.492" y="269.175" style="fill:#F2D079;" width="22.757" height="22.755"/>
				<rect x="520.528" y="269.175" style="fill:#EDA366;" width="14.964" height="22.755"/>
				<rect x="543.705" y="269.175" style="fill:#EDA366;" width="6.331" height="3.1"/>
				<rect x="521.762" y="285.896" style="fill:#EB7351;" width="10.189" height="4.747"/>
				<rect x="521.762" y="270.163" style="fill:#EB7351;" width="0.79" height="2.111"/>
				<rect x="523.344" y="270.163" style="fill:#EB7351;" width="0.792" height="2.111"/>
				<rect x="552.432" y="289.258" style="fill:#FFFFFF;" width="4.649" height="1.385"/>
				<polygon style="fill:#EB7351;" points="551.716,278.834 548.733,278.834 548.733,275.853 545.299,275.853 545.299,278.834 
					542.318,278.834 542.318,282.269 545.299,282.269 545.299,285.25 548.733,285.25 548.733,282.269 551.716,282.269 				"/>
				<rect x="521.762" y="283.52" style="fill:#EB7351;" width="10.189" height="1.378"/>
			</g>
			<rect x="520.528" y="291.586" style="opacity:0.6;fill:#EB7351;" width="37.721" height="0.306"/>
			<g>
				<rect x="485.973" y="240.234" style="fill:#F2D079;" width="22.757" height="22.755"/>
				<rect x="471.009" y="240.234" style="fill:#EDA366;" width="14.964" height="22.755"/>
				<rect x="494.185" y="240.234" style="fill:#EDA366;" width="6.331" height="3.1"/>
				<rect x="472.242" y="256.955" style="fill:#EB7351;" width="10.189" height="4.747"/>
				<rect x="472.242" y="241.223" style="fill:#EB7351;" width="0.79" height="2.111"/>
				<rect x="473.824" y="241.223" style="fill:#EB7351;" width="0.792" height="2.111"/>
				<rect x="502.912" y="260.317" style="fill:#FFFFFF;" width="4.649" height="1.385"/>
				<polygon style="fill:#EB7351;" points="502.196,249.894 499.214,249.894 499.214,246.913 495.779,246.913 495.779,249.894 
					492.799,249.894 492.799,253.328 495.779,253.328 495.779,256.31 499.214,256.31 499.214,253.328 502.196,253.328 				"/>
				<rect x="472.242" y="254.579" style="fill:#EB7351;" width="10.189" height="1.378"/>
			</g>
			<rect x="471.009" y="262.646" style="opacity:0.6;fill:#EB7351;" width="37.721" height="0.306"/>
			<g>
				<rect x="537.559" y="254.207" style="fill:#F2D079;" width="14.991" height="14.991"/>
				<rect x="527.701" y="254.207" style="fill:#EDA366;" width="9.857" height="14.991"/>
				<rect x="542.97" y="254.207" style="fill:#EDA366;" width="4.171" height="2.043"/>
				<rect x="532.161" y="261.953" style="fill:#EB7351;" width="3.13" height="6.713"/>
				<rect x="528.514" y="254.859" style="fill:#EB7351;" width="0.521" height="1.391"/>
				<rect x="529.556" y="254.859" style="fill:#EB7351;" width="0.522" height="1.391"/>
				<rect x="548.718" y="267.439" style="fill:#EDA366;" width="3.063" height="0.913"/>
				<polygon style="fill:#FFFFFF;" points="548.246,260.571 546.282,260.571 546.282,258.608 544.019,258.608 544.019,260.571 
					542.056,260.571 542.056,262.834 544.019,262.834 544.019,264.798 546.282,264.798 546.282,262.834 548.246,262.834 				"/>
				<rect x="535.948" y="261.953" style="fill:#EB7351;" width="0.907" height="6.713"/>
				<rect x="527.701" y="268.869" style="opacity:0.6;fill:#EB7351;" width="24.849" height="0.306"/>
			</g>
			<polygon style="opacity:0.5;fill:#C64938;" points="595.578,351.75 473.032,195.594 473.032,351.339 			"/>
		</g>
		<path style="fill:#BAD3F1;" d="M595.578,195.594v155.492H473.086V195.594H595.578 M599.578,191.594H469.086v163.492h130.492
			V191.594L599.578,191.594z"/>
	</g>
	<g id="BOXES">
		<g>
			<rect x="511.398" y="356.094" style="fill:#F2D079;" width="35.33" height="35.33"/>
			<rect x="488.165" y="356.094" style="fill:#EDA366;" width="23.233" height="35.33"/>
			<rect x="524.148" y="356.094" style="fill:#EDA366;" width="9.831" height="4.813"/>
			<rect x="490.079" y="382.054" style="fill:#EB7351;" width="15.821" height="7.373"/>
			<rect x="490.079" y="357.63" style="fill:#EB7351;" width="1.229" height="3.277"/>
			<rect x="492.537" y="357.63" style="fill:#EB7351;" width="1.229" height="3.277"/>
			<rect x="537.697" y="387.276" style="fill:#FFFFFF;" width="7.22" height="2.15"/>
			<polygon style="fill:#FFFFFF;" points="536.585,371.092 531.957,371.092 531.957,366.464 526.624,366.464 526.624,371.092 
				521.996,371.092 521.996,376.425 526.624,376.425 526.624,381.053 531.957,381.053 531.957,376.425 536.585,376.425 			"/>
			<rect x="490.079" y="378.367" style="fill:#EB7351;" width="15.821" height="2.139"/>
		</g>
		<g>
			<rect x="511.398" y="320.764" style="fill:#F2D079;" width="35.33" height="35.33"/>
			<rect x="488.165" y="320.764" style="fill:#EDA366;" width="23.233" height="35.33"/>
			<rect x="524.148" y="320.764" style="fill:#EDA366;" width="9.831" height="4.813"/>
			<rect x="490.079" y="346.724" style="fill:#EB7351;" width="15.821" height="7.373"/>
			<rect x="490.079" y="322.3" style="fill:#EB7351;" width="1.229" height="3.277"/>
			<rect x="492.537" y="322.3" style="fill:#EB7351;" width="1.229" height="3.277"/>
			<rect x="537.697" y="351.946" style="fill:#FFFFFF;" width="7.22" height="2.15"/>
			<polygon style="fill:#EB7351;" points="536.585,335.762 531.957,335.762 531.957,331.134 526.624,331.134 526.624,335.762 
				521.996,335.762 521.996,341.095 526.624,341.095 526.624,345.723 531.957,345.723 531.957,341.095 536.585,341.095 			"/>
			<rect x="490.079" y="343.037" style="fill:#EB7351;" width="15.821" height="2.139"/>
		</g>
		<rect x="488.165" y="356.094" style="opacity:0.6;fill:#EB7351;" width="58.563" height="0.475"/>
		<g>
			<rect x="511.398" y="285.409" style="fill:#F2D079;" width="35.33" height="35.33"/>
			<rect x="488.165" y="285.409" style="fill:#EDA366;" width="23.233" height="35.33"/>
			<rect x="524.148" y="285.409" style="fill:#EDA366;" width="9.831" height="4.813"/>
			<rect x="490.079" y="311.369" style="fill:#EB7351;" width="15.821" height="7.373"/>
			<rect x="490.079" y="286.945" style="fill:#EB7351;" width="1.229" height="3.277"/>
			<rect x="492.537" y="286.945" style="fill:#EB7351;" width="1.229" height="3.277"/>
			<rect x="537.697" y="316.592" style="fill:#FFFFFF;" width="7.22" height="2.15"/>
			<polygon style="fill:#EB7351;" points="536.585,300.407 531.957,300.407 531.957,295.779 526.624,295.779 526.624,300.407 
				521.996,300.407 521.996,305.74 526.624,305.74 526.624,310.368 531.957,310.368 531.957,305.74 536.585,305.74 			"/>
			<rect x="490.079" y="307.683" style="fill:#EB7351;" width="15.821" height="2.139"/>
		</g>
		<rect x="488.165" y="320.739" style="opacity:0.6;fill:#EB7351;" width="58.563" height="0.475"/>
		<g>
			<rect x="412.781" y="356.094" style="fill:#F2D079;" width="35.33" height="35.33"/>
			<rect x="448.111" y="356.094" style="fill:#EDA366;" width="28.276" height="35.33"/>
			<rect x="425.53" y="356.094" style="fill:#EDA366;" width="9.831" height="4.813"/>
			<rect x="458.447" y="382.054" style="fill:#EB7351;" width="15.821" height="7.373"/>
			<rect x="473.04" y="357.63" style="fill:#EB7351;" width="1.229" height="3.277"/>
			<rect x="470.582" y="357.63" style="fill:#EB7351;" width="1.228" height="3.277"/>
			<rect x="414.593" y="387.276" style="fill:#FFFFFF;" width="7.22" height="2.15"/>
			<polygon style="fill:#EB7351;" points="422.925,371.092 427.553,371.092 427.553,366.464 432.886,366.464 432.886,371.092 
				437.514,371.092 437.514,376.425 432.886,376.425 432.886,381.053 427.553,381.053 427.553,376.425 422.925,376.425 			"/>
			<rect x="458.447" y="378.367" style="fill:#EB7351;" width="15.821" height="2.139"/>
			<rect x="467.932" y="357.63" style="fill:#EB7351;" width="1.229" height="3.277"/>
		</g>
		<g>
			<rect x="423.484" y="329.673" style="fill:#F2D079;" width="26.421" height="26.421"/>
			<rect x="449.905" y="329.673" style="fill:#EDA366;" width="21.146" height="26.421"/>
			<rect x="457.635" y="349.087" style="fill:#EB7351;" width="11.831" height="5.514"/>
			<rect x="468.547" y="330.822" style="fill:#EB7351;" width="0.919" height="2.45"/>
			<rect x="466.709" y="330.822" style="fill:#EB7351;" width="0.919" height="2.45"/>
			<rect x="424.839" y="352.992" style="fill:#FFFFFF;" width="5.399" height="1.608"/>
			<polygon style="fill:#FFFFFF;" points="431.07,340.889 434.531,340.889 434.531,337.428 438.519,337.428 438.519,340.889 
				441.979,340.889 441.979,344.877 438.519,344.877 438.519,348.338 434.531,348.338 434.531,344.877 431.07,344.877 			"/>
			<rect x="457.635" y="346.33" style="fill:#EB7351;" width="11.831" height="1.599"/>
			<rect x="464.727" y="330.822" style="fill:#EB7351;" width="0.918" height="2.45"/>
			<polygon style="fill:#EDA366;" points="441.317,339.509 414.896,339.509 423.484,329.673 449.905,329.673 			"/>
			<polygon style="fill:#F2D079;" points="458.493,339.509 479.698,339.509 471.11,329.673 449.905,329.673 			"/>
			<rect x="423.484" y="355.619" style="opacity:0.6;fill:#EB7351;" width="47.566" height="0.475"/>
		</g>
		<g>
			<rect x="634.115" y="364.934" style="fill:#F2D079;" width="26.421" height="26.421"/>
			<rect x="660.536" y="364.934" style="fill:#EDA366;" width="21.146" height="26.421"/>
			<rect x="668.266" y="384.348" style="fill:#F2D079;" width="11.831" height="5.514"/>
			<rect x="679.178" y="366.083" style="fill:#EB7351;" width="0.919" height="2.45"/>
			<rect x="677.34" y="366.083" style="fill:#EB7351;" width="0.919" height="2.45"/>
			<rect x="635.47" y="388.253" style="fill:#EDA366;" width="5.399" height="1.608"/>
			<polygon style="fill:#EB7351;" points="641.701,376.149 645.162,376.149 645.162,372.689 649.149,372.689 649.149,376.149 
				652.61,376.149 652.61,380.138 649.149,380.138 649.149,383.599 645.162,383.599 645.162,380.138 641.701,380.138 			"/>
			<rect x="668.266" y="381.591" style="fill:#EB7351;" width="11.831" height="1.599"/>
			<rect x="675.358" y="366.083" style="fill:#EB7351;" width="0.918" height="2.45"/>
			<polygon style="fill:#EDA366;" points="651.948,374.77 625.527,374.77 634.115,364.934 660.536,364.934 			"/>
			<polygon style="fill:#F2D079;" points="669.124,374.77 690.329,374.77 681.741,364.934 660.536,364.934 			"/>
		</g>
		<g>
			<rect x="613.104" y="376.368" style="fill:#F2D079;" width="14.991" height="14.991"/>
			<rect x="628.095" y="376.368" style="fill:#EDA366;" width="9.857" height="14.991"/>
			<rect x="618.513" y="376.368" style="fill:#EDA366;" width="4.171" height="2.043"/>
			<rect x="630.362" y="384.114" style="fill:#EB7351;" width="3.13" height="6.713"/>
			<rect x="636.619" y="377.021" style="fill:#EB7351;" width="0.521" height="1.391"/>
			<rect x="635.575" y="377.021" style="fill:#EB7351;" width="0.522" height="1.391"/>
			<rect x="613.872" y="389.6" style="fill:#EDA366;" width="3.063" height="0.913"/>
			<polygon style="fill:#FFFFFF;" points="617.407,382.732 619.371,382.732 619.371,380.77 621.634,380.77 621.634,382.732 
				623.598,382.732 623.598,384.995 621.634,384.995 621.634,386.959 619.371,386.959 619.371,384.995 617.407,384.995 			"/>
			<rect x="628.798" y="384.114" style="fill:#EB7351;" width="0.907" height="6.713"/>
		</g>
		<g>
			<rect x="348.532" y="366.38" style="fill:#F2D079;" width="24.96" height="24.96"/>
			<rect x="373.492" y="366.38" style="fill:#EDA366;" width="19.977" height="24.96"/>
			<rect x="357.539" y="366.38" style="fill:#EDA366;" width="6.945" height="3.4"/>
			<rect x="380.794" y="384.72" style="fill:#EB7351;" width="11.178" height="5.209"/>
			<rect x="391.103" y="367.465" style="fill:#EB7351;" width="0.868" height="2.316"/>
			<rect x="389.367" y="367.465" style="fill:#EB7351;" width="0.868" height="2.316"/>
			<rect x="349.812" y="388.41" style="fill:#FFFFFF;" width="5.101" height="1.518"/>
			<polygon style="fill:#EB7351;" points="355.698,376.976 358.968,376.976 358.968,373.706 362.735,373.706 362.735,376.976 
				366.005,376.976 366.005,380.743 362.735,380.743 362.735,384.013 358.968,384.013 358.968,380.743 355.698,380.743 			"/>
			<rect x="380.794" y="382.115" style="fill:#EB7351;" width="11.178" height="1.512"/>
			<rect x="387.495" y="367.465" style="fill:#EB7351;" width="0.867" height="2.316"/>
		</g>
		<g>
			<rect x="379.57" y="376.401" style="fill:#F2D079;" width="14.991" height="14.991"/>
			<rect x="394.561" y="376.401" style="fill:#EDA366;" width="9.857" height="14.991"/>
			<rect x="384.979" y="376.401" style="fill:#EB7351;" width="4.171" height="2.043"/>
			<rect x="396.829" y="384.147" style="fill:#EB7351;" width="3.13" height="6.713"/>
			<rect x="403.086" y="377.054" style="fill:#EB7351;" width="0.521" height="1.391"/>
			<rect x="402.042" y="377.054" style="fill:#EB7351;" width="0.522" height="1.391"/>
			<rect x="380.339" y="389.633" style="fill:#EDA366;" width="3.063" height="0.913"/>
			<polygon style="fill:#FFFFFF;" points="383.874,382.766 385.838,382.766 385.838,380.803 388.101,380.803 388.101,382.766 
				390.064,382.766 390.064,385.028 388.101,385.028 388.101,386.992 385.838,386.992 385.838,385.028 383.874,385.028 			"/>
			<rect x="395.265" y="384.147" style="fill:#EB7351;" width="0.907" height="6.713"/>
		</g>
	</g>
	<path id="GROUND" style="fill:#262F56;" d="M698.574,393.84H56.606c-0.69,0-1.25-0.56-1.25-1.25c0-0.69,0.56-1.25,1.25-1.25
		h641.968c0.69,0,1.25,0.56,1.25,1.25C699.824,393.28,699.265,393.84,698.574,393.84z"/>
</g>
</svg>
