<?xml version="1.0" standalone="no"?>
<!DOCTYPE svg PUBLIC "-//W3C//DTD SVG 20010904//EN"
 "http://www.w3.org/TR/2001/REC-SVG-20010904/DTD/svg10.dtd">
<svg version="1.0" xmlns="http://www.w3.org/2000/svg"
 width="512.000000pt" height="512.000000pt" viewBox="0 0 512.000000 512.000000"
 preserveAspectRatio="xMidYMid meet">

<g transform="translate(0.000000,512.000000) scale(0.100000,-0.100000)"
fill="#ff3d2e" stroke="none">
<path d="M2362 5110 c-679 -53 -1319 -382 -1759 -905 -800 -952 -798 -2338 5
-3295 407 -485 974 -793 1627 -886 159 -23 486 -23 648 -1 801 110 1484 563
1886 1251 232 398 345 822 344 1296 -1 229 -20 393 -72 605 -250 1017 -1107
1784 -2146 1919 -146 19 -393 27 -533 16z m-210 -1777 l408 -408 410 410 410
410 172 -173 173 -172 -410 -410 -410 -410 410 -410 410 -410 -173 -172 -172
-173 -410 410 -410 410 -410 -410 -410 -410 -172 173 -173 172 410 410 410
410 -410 410 -410 410 170 170 c93 93 172 170 175 170 3 0 188 -183 412 -407z"/>
</g>
</svg>
