<?xml version="1.0" standalone="no"?>
<!DOCTYPE svg PUBLIC "-//W3C//DTD SVG 20010904//EN"
 "http://www.w3.org/TR/2001/REC-SVG-20010904/DTD/svg10.dtd">
<svg version="1.0" xmlns="http://www.w3.org/2000/svg"
 width="512.000000pt" height="512.000000pt" viewBox="0 0 512.000000 512.000000"
 preserveAspectRatio="xMidYMid meet">

<g transform="translate(0.000000,512.000000) scale(0.100000,-0.100000)"
fill="#000000" stroke="none">
<path d="M2370 5113 c-371 -35 -653 -114 -961 -269 -406 -203 -782 -548 -1029
-944 -179 -286 -309 -655 -362 -1025 -17 -118 -17 -512 0 -630 42 -295 120
-553 242 -800 137 -280 272 -468 494 -691 221 -220 412 -357 681 -489 188 -92
309 -137 500 -185 500 -126 1002 -102 1490 71 150 53 408 183 540 271 560 374
952 942 1095 1588 33 150 50 291 57 465 15 426 -73 832 -263 1214 -124 250
-263 447 -458 648 -214 222 -430 379 -711 518 -296 146 -572 225 -900 255
-102 9 -333 11 -415 3z m545 -342 c628 -106 1158 -448 1511 -977 179 -267 296
-573 351 -909 24 -153 24 -497 0 -650 -108 -668 -474 -1222 -1042 -1580 -243
-153 -537 -261 -850 -312 -154 -24 -497 -24 -650 1 -657 107 -1198 456 -1557
1006 -168 257 -281 557 -335 885 -24 153 -24 497 0 650 81 497 291 912 636
1255 382 381 862 605 1401 654 108 10 418 -4 535 -23z"/>
<path d="M2975 3986 c-16 -8 -330 -315 -697 -682 -724 -726 -690 -688 -673
-781 5 -34 84 -115 683 -715 735 -735 696 -701 789 -683 49 9 109 69 118 118
18 93 45 61 -608 715 l-602 602 602 603 c531 531 602 606 608 640 25 133 -101
237 -220 183z"/>
</g>
</svg>
