<?xml version="1.0" standalone="no"?>
<!DOCTYPE svg PUBLIC "-//W3C//DTD SVG 20010904//EN"
 "http://www.w3.org/TR/2001/REC-SVG-20010904/DTD/svg10.dtd">
<svg version="1.0" xmlns="http://www.w3.org/2000/svg"
 width="1788.000000pt" height="1788.000000pt" viewBox="0 0 1788.000000 1788.000000"
 preserveAspectRatio="xMidYMid meet">

<g transform="translate(0.000000,1788.000000) scale(0.100000,-0.100000)"
fill="#000000" stroke="none">
<path d="M7025 14290 c-38 -38 -65 -73 -61 -77 5 -4 11 -2 13 5 3 6 11 12 18
12 14 0 91 76 88 88 -1 4 6 15 14 25 9 9 12 17 7 17 -5 0 -41 -31 -79 -70z"/>
<path d="M6790 13873 c-98 -63 -193 -113 -214 -113 -8 0 -22 -10 -30 -21 -9
-14 -32 -25 -63 -30 -49 -9 -95 -39 -61 -39 9 0 20 5 23 11 10 14 68 7 82 -11
9 -12 14 -12 24 -3 9 10 18 8 40 -8 32 -23 87 -23 109 0 8 9 26 36 39 61 14
25 48 77 76 115 53 72 68 96 63 94 -2 0 -41 -25 -88 -56z"/>
<path d="M4640 13680 c0 -5 5 -10 10 -10 6 0 10 5 10 10 0 6 -4 10 -10 10 -5
0 -10 -4 -10 -10z"/>
<path d="M4670 13654 c0 -7 13 -28 28 -46 15 -18 36 -46 46 -62 l19 -29 13 24
c22 39 16 62 -22 92 -39 32 -84 43 -84 21z"/>
<path d="M6543 13633 c9 -2 23 -2 30 0 6 3 -1 5 -18 5 -16 0 -22 -2 -12 -5z"/>
<path d="M5539 12771 c-89 -96 -119 -130 -119 -135 0 -2 23 -7 50 -11 35 -5
55 -3 66 5 8 7 12 15 10 18 -3 3 1 17 8 31 48 89 68 151 48 151 -5 0 -33 -26
-63 -59z"/>
<path d="M4605 11490 c-3 -5 -1 -10 4 -10 6 0 11 5 11 10 0 6 -2 10 -4 10 -3
0 -8 -4 -11 -10z"/>
<path d="M4565 11459 c-4 -6 -5 -13 -2 -16 7 -7 27 6 27 18 0 12 -17 12 -25
-2z"/>
<path d="M4510 11428 l-25 -21 25 6 c14 4 28 7 33 7 4 0 7 7 7 15 0 20 -10 18
-40 -7z"/>
<path d="M4280 11433 c0 -5 -9 -19 -20 -31 -11 -11 -29 -39 -41 -61 -12 -23
-25 -41 -30 -41 -5 0 -9 -5 -9 -11 0 -6 -26 -45 -57 -86 -32 -41 -65 -87 -74
-103 -8 -15 -23 -35 -32 -45 -10 -9 -15 -21 -12 -25 9 -15 36 1 46 27 5 13 13
22 18 19 5 -4 11 -2 13 2 1 5 37 28 78 50 44 24 111 75 160 121 47 44 90 80
95 81 6 0 25 14 44 32 27 26 31 32 18 40 -9 5 -26 4 -41 -3 -34 -16 -120 -3
-112 17 3 8 1 14 -3 14 -5 0 -16 3 -25 6 -9 3 -16 2 -16 -3z"/>
<path d="M2680 10890 c0 -5 5 -10 10 -10 6 0 10 5 10 10 0 6 -4 10 -10 10 -5
0 -10 -4 -10 -10z"/>
<path d="M2973 10500 c-7 -11 -9 -21 -3 -25 9 -6 13 -1 23 28 9 23 -5 22 -20
-3z"/>
<path d="M3332 10210 c0 -14 2 -19 5 -12 2 6 2 18 0 25 -3 6 -5 1 -5 -13z"/>
<path d="M9468 10185 c-14 -14 -32 -23 -40 -20 -8 3 -21 -1 -28 -10 -9 -10
-16 -12 -25 -5 -8 7 -15 0 -25 -25 -8 -19 -21 -36 -29 -37 -30 -2 -36 -4 -56
-15 -21 -10 -67 -22 -120 -29 -16 -2 -41 -9 -54 -16 -18 -10 -25 -10 -28 -2
-3 8 -23 2 -58 -16 -30 -15 -65 -30 -79 -34 -22 -5 -26 -12 -26 -44 0 -21 -7
-48 -16 -60 -8 -12 -12 -22 -9 -22 3 0 1 -10 -6 -21 -9 -17 -8 -23 2 -30 12
-8 12 -10 0 -18 -9 -6 -10 -11 -2 -15 6 -4 11 -18 11 -31 0 -28 7 -27 79 8 24
12 46 27 48 34 3 7 11 13 19 13 8 0 14 3 14 8 0 4 4 13 9 20 7 11 16 10 48 -5
40 -20 94 -19 203 5 25 6 80 13 123 17 90 7 125 18 134 40 3 10 12 14 22 9 9
-3 40 -8 69 -10 46 -3 52 -1 52 16 0 11 4 20 8 20 4 0 9 23 10 50 1 28 -2 50
-8 50 -5 0 -10 7 -10 15 0 8 -3 14 -7 14 -23 -4 -34 4 -49 36 -9 19 -23 35
-30 35 -8 0 -13 4 -11 8 4 16 -46 72 -64 72 -10 0 -21 5 -24 10 -10 15 -20 12
-47 -15z"/>
<path d="M3332 10162 c-1 -7 -10 -21 -19 -30 -16 -16 -16 -17 0 -20 22 -4 22
-22 1 -22 -10 0 -14 -6 -11 -14 3 -7 -2 -24 -10 -37 -9 -12 -12 -19 -6 -16 6
4 13 0 17 -8 3 -8 1 -17 -5 -21 -6 -3 -8 -11 -6 -18 3 -7 -6 -13 -24 -14 -16
-1 -29 2 -29 8 0 16 -17 12 -24 -7 -4 -9 -2 -21 4 -27 6 -6 10 -6 10 0 0 5 15
9 34 9 18 -1 43 6 55 16 20 16 21 25 18 116 -1 54 -4 92 -5 85z"/>
<path d="M4383 10013 c-8 -2 -13 -22 -13 -44 0 -21 -5 -39 -11 -39 -6 0 -17
-7 -25 -15 -12 -11 -12 -19 -4 -35 9 -17 8 -20 -13 -20 -14 0 -30 -7 -37 -15
-9 -10 -9 -15 -1 -15 6 0 11 5 11 10 0 6 7 10 15 10 8 0 15 -7 15 -15 0 -8 -4
-15 -10 -15 -5 0 -10 -11 -10 -25 0 -14 -4 -25 -10 -25 -5 0 -10 9 -10 19 0
11 -10 27 -22 35 -20 15 -48 74 -48 106 0 19 -32 39 -56 36 -18 -3 -19 -12
-15 -117 4 -131 23 -183 93 -257 34 -36 73 -110 64 -120 -7 -7 -68 33 -93 62
-16 18 -35 30 -41 28 -7 -2 -10 -8 -6 -13 3 -5 0 -9 -6 -9 -7 0 -9 8 -5 19 11
36 -32 80 -50 51 -8 -12 20 -129 43 -182 16 -37 46 -51 66 -31 4 4 30 17 59
28 44 18 60 20 120 12 65 -8 74 -7 152 23 l83 32 -59 115 c-32 63 -59 124 -59
136 0 11 -4 34 -9 51 -5 17 -15 56 -21 86 -16 74 -29 107 -47 114 -8 3 -11 10
-8 16 6 10 -11 12 -32 3z m-243 -433 c0 -5 -4 -10 -10 -10 -5 0 -10 5 -10 10
0 6 5 10 10 10 6 0 10 -4 10 -10z"/>
<path d="M3170 9920 c0 -11 5 -20 10 -20 6 0 10 9 10 20 0 11 -4 20 -10 20 -5
0 -10 -9 -10 -20z"/>
<path d="M3267 9923 c-12 -11 -8 -23 8 -23 8 0 15 7 15 15 0 16 -12 20 -23 8z"/>
<path d="M3225 9870 c-3 -11 -3 -24 0 -30 3 -6 0 -13 -8 -16 -9 -3 -13 -13
-10 -25 3 -10 0 -19 -6 -19 -6 0 -11 -9 -11 -20 0 -13 -7 -20 -19 -20 -11 0
-23 -4 -26 -10 -3 -5 -2 -10 2 -10 14 0 9 -42 -9 -80 -22 -46 -31 -154 -17
-199 20 -66 22 -66 30 -6 19 163 74 396 100 431 9 11 2 24 -12 24 -4 0 -10 -9
-14 -20z"/>
<path d="M3155 9789 c-4 -6 -5 -13 -2 -16 7 -7 27 6 27 18 0 12 -17 12 -25 -2z"/>
<path d="M3130 9680 c0 -5 5 -10 10 -10 6 0 10 5 10 10 0 6 -4 10 -10 10 -5 0
-10 -4 -10 -10z"/>
<path d="M4081 9634 c0 -11 3 -14 6 -6 3 7 2 16 -1 19 -3 4 -6 -2 -5 -13z"/>
<path d="M9070 9555 c-7 -9 -10 -18 -7 -22 8 -7 37 15 37 28 0 14 -16 11 -30
-6z"/>
<path d="M8685 9420 c-5 -8 28 -45 47 -53 10 -3 15 -12 13 -19 -4 -9 3 -14 16
-15 14 -1 19 3 15 12 -6 16 15 16 26 0 5 -6 8 -5 8 2 0 12 -39 39 -51 36 -3
-1 -12 9 -19 22 -11 21 -45 31 -55 15z"/>
<path d="M8600 9400 c0 -5 5 -10 11 -10 5 0 7 5 4 10 -3 6 -8 10 -11 10 -2 0
-4 -4 -4 -10z"/>
<path d="M3150 9313 c0 -7 4 -14 9 -17 11 -7 21 -56 12 -56 -7 0 -3 -101 3
-108 2 -1 14 2 27 7 13 5 50 19 82 31 88 34 72 79 -32 85 -38 3 -51 9 -73 36
-16 18 -28 28 -28 22z"/>
<path d="M9113 9313 c-28 -3 -43 -9 -43 -18 0 -13 -8 -17 -62 -29 -19 -4 -28
-13 -28 -26 0 -24 -18 -36 -26 -16 -3 8 -12 12 -21 9 -9 -4 -24 5 -37 20 -25
29 -70 44 -81 28 -3 -6 -11 -9 -16 -5 -5 3 -16 0 -24 -6 -8 -6 -19 -9 -24 -6
-5 4 -12 2 -15 -2 -8 -13 -57 -2 -63 14 -8 22 -32 17 -26 -6 3 -11 0 -20 -6
-20 -6 0 -11 6 -11 13 0 9 -3 8 -9 -2 -5 -7 -13 -11 -19 -7 -6 3 -17 -1 -25
-9 -21 -21 -30 -19 -24 6 4 15 1 19 -10 17 -9 -2 -18 -14 -20 -28 -2 -13 -8
-27 -13 -30 -6 -3 3 -16 19 -27 51 -38 337 -52 389 -19 8 5 32 8 53 8 23 -1
42 5 45 12 3 8 26 11 82 8 140 -8 175 -7 180 6 2 7 8 10 13 6 5 -3 9 2 9 10 0
9 5 16 10 16 6 0 10 5 10 10 0 6 -8 10 -19 10 -10 0 -24 7 -31 14 -6 8 -28 20
-48 27 -20 6 -41 15 -46 20 -6 5 -12 8 -15 7 -4 -1 -25 -3 -48 -5z"/>
<path d="M8480 8840 c0 -32 0 -33 20 -15 11 10 19 19 18 19 -2 1 -11 8 -20 15
-16 12 -18 10 -18 -19z"/>
<path d="M8581 8679 c-53 -7 -71 -29 -64 -74 4 -25 0 -39 -15 -55 -23 -25 -19
-50 9 -50 11 0 23 -10 29 -24 9 -25 22 -26 82 -1 21 8 88 -56 103 -98 5 -16
13 -29 18 -28 4 1 20 1 36 1 24 0 29 4 26 20 -2 11 0 22 6 25 5 4 9 14 9 24 0
10 7 24 15 31 9 8 13 26 11 53 -4 48 11 99 23 79 4 -7 14 -12 21 -10 8 2 17
-9 21 -27 4 -16 7 -22 8 -12 1 14 7 16 29 11 15 -4 29 -8 31 -10 2 -2 10 1 17
7 22 18 -42 55 -108 62 -48 4 -153 47 -168 68 -7 10 -89 15 -139 8z"/>
<path d="M7633 8662 c-8 -19 12 -59 35 -71 23 -12 62 11 62 38 0 9 5 22 12 29
8 8 9 12 1 12 -6 0 -14 -6 -17 -12 -3 -9 -8 -8 -16 5 -13 20 -69 20 -77 -1z"/>
<path d="M7860 8305 c-6 -8 -8 -20 -4 -26 5 -9 2 -10 -9 -6 -9 3 -26 3 -37 -1
-20 -8 -20 -8 2 -38 l23 -31 23 29 c13 15 27 26 32 23 5 -3 11 4 15 15 3 11
13 20 21 20 8 0 14 5 14 11 0 6 -7 8 -16 5 -8 -3 -24 -2 -34 4 -13 7 -21 6
-30 -5z"/>
<path d="M8760 8310 c0 -5 5 -10 10 -10 6 0 10 5 10 10 0 6 -4 10 -10 10 -5 0
-10 -4 -10 -10z"/>
<path d="M7910 8255 c0 -14 -38 -41 -52 -37 -14 4 -8 -11 9 -24 10 -7 14 -16
10 -20 -4 -5 -12 -2 -17 6 -5 8 -13 11 -17 6 -4 -4 0 -13 9 -20 11 -8 14 -16
7 -23 -6 -6 -1 -19 16 -37 14 -15 25 -31 25 -37 0 -5 11 -14 25 -19 26 -10 33
-35 13 -44 -7 -3 1 -2 17 1 27 6 29 5 16 -10 -8 -11 -11 -28 -7 -48 3 -18 2
-28 -4 -24 -6 3 -10 1 -10 -4 0 -6 6 -11 14 -11 7 0 21 -10 29 -22 10 -15 19
-19 24 -13 10 13 63 16 63 4 0 -5 -13 -9 -29 -9 -20 0 -30 -6 -34 -20 -3 -11
-1 -18 4 -14 5 3 9 -2 9 -10 0 -9 7 -16 15 -16 8 0 15 9 15 20 0 24 9 26 24 5
8 -12 12 7 13 79 1 53 -2 98 -7 101 -15 9 -12 25 5 25 9 0 12 -6 9 -15 -4 -8
-1 -15 5 -15 18 0 13 20 -14 52 -28 34 -26 51 3 25 21 -19 32 -22 32 -8 0 5
-9 11 -20 14 -27 7 -26 25 2 29 28 4 33 21 12 42 -9 9 -14 20 -11 23 3 3 -1
12 -9 20 -8 8 -12 19 -9 24 4 5 -4 9 -17 8 -13 0 -17 -3 -10 -6 17 -7 15 -39
-5 -69 -12 -18 -18 -22 -24 -12 -4 7 -3 18 3 26 8 9 8 16 1 20 -5 4 -15 17
-22 29 l-11 22 -26 -26 c-25 -24 -26 -25 -43 -7 -11 12 -15 23 -10 30 5 6 6
14 2 17 -11 12 -23 8 -23 -8z m200 -100 c0 -8 -7 -15 -15 -15 -16 0 -20 12 -8
23 11 12 23 8 23 -8z m-40 -85 c0 -5 -5 -10 -11 -10 -5 0 -7 5 -4 10 3 6 8 10
11 10 2 0 4 -4 4 -10z"/>
<path d="M7956 8262 c-2 -4 -1 -14 5 -22 7 -12 9 -10 9 8 0 23 -5 28 -14 14z"/>
<path d="M8150 8065 c0 -9 6 -12 15 -9 8 4 15 10 15 15 0 5 -7 9 -15 9 -8 0
-15 -7 -15 -15z"/>
<path d="M8160 8021 c0 -5 9 -7 20 -4 11 3 20 7 20 9 0 2 -9 4 -20 4 -11 0
-20 -4 -20 -9z"/>
<path d="M7166 8012 c-3 -5 3 -17 14 -27 17 -15 20 -16 20 -3 0 19 -26 42 -34
30z"/>
<path d="M8265 7979 c-4 -6 -5 -12 -2 -15 2 -3 7 2 10 11 7 17 1 20 -8 4z"/>
<path d="M7215 7970 c-3 -5 1 -10 10 -10 9 0 13 5 10 10 -3 6 -8 10 -10 10 -2
0 -7 -4 -10 -10z"/>
<path d="M8180 7949 c0 -5 5 -7 10 -4 6 3 10 8 10 11 0 2 -4 4 -10 4 -5 0 -10
-5 -10 -11z"/>
<path d="M8332 7934 c-14 -15 -7 -58 8 -49 10 6 19 54 11 59 -3 2 -12 -2 -19
-10z"/>
<path d="M8243 7905 c-11 -25 -7 -31 13 -17 11 7 15 42 5 42 -3 0 -11 -11 -18
-25z"/>
<path d="M8385 7914 c-4 -10 -7 -25 -6 -31 1 -8 -9 -13 -24 -13 -14 0 -24 -4
-20 -9 3 -5 1 -12 -5 -16 -18 -11 -11 -30 19 -46 26 -15 29 -15 40 2 6 11 17
19 25 19 22 0 41 29 28 42 -6 6 -8 18 -4 27 5 14 3 14 -11 2 -18 -14 -18 -14
-29 28 -3 11 -6 10 -13 -5z"/>
<path d="M8289 7830 c-5 -50 -4 -70 3 -70 4 0 8 6 8 14 0 8 4 16 8 18 4 2 2
14 -5 28 -8 16 -13 19 -14 10z"/>
<path d="M6935 7340 c3 -5 8 -10 11 -10 2 0 4 5 4 10 0 6 -5 10 -11 10 -5 0
-7 -4 -4 -10z"/>
<path d="M6190 7245 c0 -6 12 -12 28 -13 28 -2 128 -38 148 -54 6 -5 19 -6 28
-2 9 3 16 2 16 -3 0 -5 14 -17 30 -27 25 -14 34 -15 46 -5 13 10 17 10 23 0 5
-7 12 -13 17 -13 32 -2 86 -27 79 -38 -3 -6 -4 -10 0 -10 3 0 10 11 15 24 7
18 14 22 34 19 15 -3 26 -1 26 6 0 6 11 11 25 11 23 0 25 4 25 43 0 28 -6 47
-17 57 -23 20 -103 25 -103 8 0 -8 -3 -9 -8 -3 -10 14 -412 14 -412 0z"/>
<path d="M7054 7165 c-4 -11 -9 -23 -11 -27 -6 -11 9 -10 26 1 10 6 11 13 3
27 -10 18 -11 18 -18 -1z"/>
<path d="M8145 6400 c-3 -5 -1 -10 4 -10 6 0 11 5 11 10 0 6 -2 10 -4 10 -3 0
-8 -4 -11 -10z"/>
<path d="M8120 5741 c0 -6 5 -13 10 -16 6 -3 10 1 10 9 0 9 -4 16 -10 16 -5 0
-10 -4 -10 -9z"/>
<path d="M8130 5704 c0 -42 40 -190 71 -259 9 -22 20 -54 24 -71 4 -21 14 -34
28 -38 18 -5 19 -8 7 -16 -12 -7 -12 -12 -3 -21 10 -10 22 -3 58 33 50 51 53
56 28 54 -11 -1 -19 10 -24 33 -4 18 -19 44 -33 56 -14 12 -26 31 -27 41 0 11
-3 13 -6 7 -7 -19 -19 -16 -20 5 -1 11 -13 36 -27 57 -14 20 -24 41 -21 45 3
4 -2 13 -10 20 -8 7 -15 18 -15 25 0 7 -7 18 -15 25 -8 7 -15 9 -15 4z m150
-264 c0 -5 -2 -10 -4 -10 -3 0 -8 5 -11 10 -3 6 -1 10 4 10 6 0 11 -4 11 -10z"/>
<path d="M11600 5420 c0 -5 5 -10 11 -10 5 0 7 5 4 10 -3 6 -8 10 -11 10 -2 0
-4 -4 -4 -10z"/>
<path d="M11625 5390 c3 -5 8 -10 11 -10 2 0 4 5 4 10 0 6 -5 10 -11 10 -5 0
-7 -4 -4 -10z"/>
<path d="M11662 5360 c8 -20 269 -245 358 -308 53 -37 110 -57 110 -39 0 15
-95 92 -113 92 -6 0 -15 8 -19 18 -4 9 -17 17 -28 17 -11 0 -20 7 -20 15 0 8
-9 15 -20 15 -11 0 -25 9 -32 20 -7 11 -21 20 -30 20 -10 0 -17 5 -15 12 1 6
-9 14 -23 18 -15 4 -24 13 -24 24 1 12 -3 15 -16 11 -11 -4 -23 1 -32 13 -7
10 -21 21 -30 25 -11 4 -18 17 -18 30 0 20 -5 25 -25 25 -14 0 -25 -4 -23 -8z"/>
<path d="M8320 5127 c0 -7 47 -97 58 -109 10 -13 12 -18 12 -38 0 -19 39 -10
45 11 8 24 -2 39 -14 21 -9 -15 -48 32 -72 86 -8 17 -17 32 -21 32 -5 0 -8 -1
-8 -3z"/>
<path d="M8417 4953 c-8 -12 31 -99 88 -198 19 -33 43 -76 52 -95 10 -19 21
-37 24 -40 3 -3 11 -14 17 -25 8 -14 11 -16 12 -5 0 9 -6 24 -14 35 -7 11 -26
49 -42 85 -15 36 -33 68 -38 72 -6 4 -11 17 -11 30 -3 38 -26 88 -41 88 -8 0
-20 14 -27 32 -8 20 -16 28 -20 21z"/>
<path d="M8450 4931 c0 -6 5 -13 10 -16 6 -3 10 1 10 9 0 9 -4 16 -10 16 -5 0
-10 -4 -10 -9z"/>
<path d="M12320 4873 c0 -5 12 -22 28 -40 32 -38 92 -66 187 -87 93 -20 194
-46 225 -58 14 -6 27 -10 30 -10 3 0 21 -8 41 -19 20 -10 46 -16 58 -14 11 2
23 1 25 -3 2 -4 25 -6 50 -4 37 3 46 8 46 23 0 14 9 21 31 26 25 5 30 10 27
32 -5 42 -55 60 -183 65 -124 5 -225 24 -357 67 -85 27 -208 40 -208 22z"/>
<path d="M13100 4697 c0 -40 0 -40 24 -31 22 8 20 27 -4 49 -20 18 -20 17 -20
-18z"/>
<path d="M13015 4639 c-10 -15 1 -23 20 -15 9 3 13 10 10 16 -8 13 -22 13 -30
-1z"/>
<path d="M9300 3850 c0 -5 5 -10 11 -10 5 0 7 5 4 10 -3 6 -8 10 -11 10 -2 0
-4 -4 -4 -10z"/>
<path d="M9745 3500 c3 -5 11 -10 16 -10 6 0 7 5 4 10 -3 6 -11 10 -16 10 -6
0 -7 -4 -4 -10z"/>
<path d="M9824 3453 c16 -18 32 -31 34 -28 3 3 3 6 1 8 -2 1 -17 13 -34 27
l-30 25 29 -32z"/>
<path d="M9900 3396 c0 -2 25 -20 55 -40 40 -26 55 -32 55 -21 0 8 -7 15 -15
15 -8 0 -15 3 -15 8 0 4 -14 15 -31 25 -29 16 -49 22 -49 13z"/>
<path d="M10086 3281 c-15 -24 171 -121 306 -160 59 -16 124 -33 145 -36 80
-14 191 -49 253 -80 36 -18 101 -44 145 -58 192 -60 600 -93 774 -62 87 15
171 42 171 55 0 4 -89 7 -197 8 -297 1 -315 1 -400 13 -43 6 -96 12 -117 15
-48 5 -254 52 -281 65 -11 5 -47 18 -80 30 -33 11 -76 28 -95 36 -19 9 -56 15
-82 14 -38 -1 -46 2 -42 13 4 11 -6 16 -43 22 -26 3 -52 10 -58 14 -5 4 -30
11 -55 15 -25 4 -47 10 -50 14 -3 3 -45 19 -95 35 -49 16 -95 33 -100 37 -6 5
-20 8 -30 7 -11 -1 -30 2 -42 6 -12 4 -24 2 -27 -3z"/>
<path d="M12440 2960 c0 -5 5 -10 10 -10 6 0 10 5 10 10 0 6 -4 10 -10 10 -5
0 -10 -4 -10 -10z"/>
<path d="M12367 2943 c-15 -14 -5 -23 23 -21 35 3 41 28 7 28 -13 0 -27 -3
-30 -7z"/>
<path d="M12320 2915 c-6 -8 -18 -11 -26 -8 -8 3 -14 1 -14 -5 0 -5 -44 -32
-97 -58 -83 -41 -160 -83 -235 -129 -131 -80 -400 -215 -429 -215 -8 0 -31
-12 -52 -26 -55 -37 -208 -93 -312 -115 -116 -24 -168 -30 -303 -38 -129 -8
-146 -11 -168 -32 -19 -17 -27 -20 -36 -11 -17 17 -25 15 -31 -9 -5 -17 -9
-19 -26 -10 -20 11 -51 5 -51 -9 0 -5 9 -6 20 -3 23 6 36 -18 25 -44 -8 -17
-8 -17 -12 0 -4 16 -7 15 -30 -7 -14 -15 -33 -26 -41 -26 -19 0 -81 -19 -102
-31 -34 -20 -42 -21 -55 -3 -14 18 -14 18 -15 -2 0 -24 -44 -58 -64 -51 -17 7
-62 -28 -47 -37 20 -13 11 -28 -14 -24 -14 3 -30 -1 -36 -9 -9 -10 -15 -11
-26 -1 -12 9 -14 9 -13 -3 4 -28 0 -37 -25 -43 -14 -4 -25 -11 -25 -16 0 -6
-4 -10 -10 -10 -16 0 -12 14 10 38 17 18 18 22 5 22 -8 0 -15 -7 -15 -16 0 -8
-4 -13 -9 -10 -5 4 -12 -12 -16 -34 -4 -22 -11 -37 -16 -34 -6 3 -7 14 -4 24
7 23 -13 37 -21 15 -6 -13 -8 -14 -15 -3 -6 9 -9 8 -9 -7 0 -17 -6 -21 -35
-21 -19 0 -35 4 -35 8 0 4 -4 8 -10 8 -5 0 -7 -8 -3 -17 3 -10 3 -15 -1 -12
-4 4 -23 3 -43 -1 -28 -7 -44 -4 -77 13 -22 12 -45 27 -51 33 -5 7 -30 15 -55
18 -25 3 -57 7 -71 9 -14 2 -30 7 -36 10 -7 4 -14 3 -18 -3 -9 -15 -92 -13
-98 3 -3 7 -6 5 -6 -6 -1 -14 -7 -16 -33 -12 l-32 6 27 -21 c27 -21 40 -69 15
-53 -7 4 -30 8 -51 8 -33 1 -37 -2 -35 -19 2 -12 10 -21 18 -21 8 0 14 6 12
13 -3 18 48 4 71 -19 51 -53 329 -89 461 -59 89 20 209 72 288 126 43 29 90
60 106 68 88 45 294 94 439 105 111 8 136 13 260 60 784 290 830 310 1060 463
56 37 106 68 112 68 14 0 14 27 1 35 -18 11 -10 27 11 22 30 -8 69 9 69 31 0
11 12 22 35 31 19 6 34 15 33 19 -3 17 23 62 37 62 19 0 20 26 1 33 -8 3 -20
0 -26 -8z m-1970 -826 c0 -5 -4 -9 -10 -9 -5 0 -10 7 -10 16 0 8 5 12 10 9 6
-3 10 -10 10 -16z m-380 -199 c0 -5 -2 -10 -4 -10 -3 0 -8 5 -11 10 -3 6 -1
10 4 10 6 0 11 -4 11 -10z"/>
<path d="M7470 2189 c0 -11 24 -39 34 -39 3 0 0 11 -6 25 -11 25 -28 34 -28
14z"/>
<path d="M7093 2163 c9 -2 23 -2 30 0 6 3 -1 5 -18 5 -16 0 -22 -2 -12 -5z"/>
<path d="M8015 2150 c-3 -5 -12 -7 -19 -4 -16 6 -40 -21 -31 -36 3 -5 12 -10
19 -10 8 0 16 -9 19 -20 3 -13 14 -20 29 -20 21 -1 22 -1 4 -12 -15 -8 -21 -7
-28 6 -5 9 -21 16 -36 16 -22 0 -24 2 -12 11 12 8 9 10 -11 6 -23 -3 -27 -1
-24 20 2 21 -1 24 -19 19 -11 -3 -24 -6 -28 -6 -5 0 -8 -5 -8 -11 0 -5 4 -8 9
-5 5 4 6 -4 3 -16 -5 -19 -7 -20 -10 -5 -5 23 -19 22 -27 -4 -5 -15 -10 -17
-20 -9 -7 6 -20 8 -28 4 -9 -3 -23 -2 -32 4 -15 8 -15 10 -1 25 10 10 12 18 6
22 -5 3 -10 1 -10 -4 0 -6 -9 -11 -21 -11 -12 0 -17 4 -13 11 4 8 -1 9 -17 4
-32 -10 -33 -11 -24 -32 10 -23 13 -53 6 -53 -15 1 -28 17 -25 33 2 14 -2 16
-19 11 -21 -6 -21 -6 -2 12 17 18 17 19 1 22 -9 2 -24 -2 -32 -9 -12 -10 -17
-8 -29 7 -8 10 -15 14 -15 7 0 -6 5 -15 11 -18 6 -4 8 -14 5 -22 -4 -10 -1
-13 13 -8 26 8 33 -6 15 -30 -8 -10 -14 -13 -14 -6 0 7 -5 9 -11 6 -6 -4 -17
1 -24 11 -14 18 -14 18 -15 -4 0 -22 -1 -22 -25 -6 -23 15 -25 15 -25 0 0 -14
-4 -15 -21 -5 -12 6 -30 8 -42 5 -28 -7 -78 4 -76 18 1 6 1 22 0 36 -2 24 -2
24 -16 6 -8 -11 -13 -28 -9 -38 3 -10 1 -18 -5 -18 -6 0 -11 5 -11 10 0 6 -7
10 -16 10 -8 0 -13 4 -10 8 3 5 -8 9 -24 10 -16 0 -32 -4 -36 -9 -3 -6 -17 6
-31 25 -15 23 -29 34 -36 29 -7 -4 -19 -6 -29 -5 -26 5 -31 -15 -8 -38 11 -11
20 -26 20 -32 -1 -9 -5 -8 -13 3 -7 8 -20 18 -29 22 -10 3 -18 11 -18 17 0 5
-4 10 -9 10 -5 0 -7 -9 -4 -20 7 -26 -14 -26 -22 1 -9 26 -39 21 -43 -8 -2
-15 -12 -22 -34 -25 -29 -5 -30 -4 -12 9 18 14 18 14 -6 11 -16 -2 -27 -11
-31 -28 -4 -14 -7 -19 -8 -12 -1 7 -6 10 -12 6 -6 -3 -9 -14 -6 -25 7 -25 -25
-53 -42 -36 -9 9 -11 4 -5 -29 5 -33 3 -42 -10 -47 -31 -12 -18 -30 18 -24 18
3 38 1 43 -4 5 -5 47 -14 94 -19 46 -6 100 -15 119 -20 19 -5 60 -11 90 -14
30 -3 122 -17 205 -31 218 -36 488 -57 689 -53 l172 3 108 53 c151 74 193 81
491 83 251 1 341 8 262 22 -20 3 -44 13 -53 21 -8 9 -31 16 -49 16 -19 0 -37
5 -40 10 -4 6 -10 8 -15 5 -4 -3 -13 2 -20 10 -7 8 -17 12 -23 8 -20 -12 -59
-9 -65 5 -3 10 -15 12 -41 8 -23 -3 -29 -3 -17 3 26 10 4 25 -25 16 -11 -4
-26 -1 -34 5 -8 6 -18 9 -23 6 -5 -3 -30 1 -56 9 -25 8 -53 12 -61 9 -8 -4
-15 -2 -15 4 0 5 -10 10 -22 10 -70 1 -118 6 -118 12 0 5 -11 11 -24 14 -13 3
-31 8 -39 12 -8 3 -22 -2 -31 -11 -14 -14 -19 -15 -33 -4 -8 8 -32 14 -51 14
-20 1 -38 7 -40 13 -2 7 -8 12 -13 12 -6 0 -8 -4 -4 -9 3 -5 1 -12 -5 -16 -5
-3 -10 -12 -10 -18 0 -8 3 -8 9 2 7 11 10 11 17 0 16 -26 12 -36 -17 -36 -18
0 -29 6 -29 14 0 7 -5 13 -11 13 -6 0 -9 -7 -5 -15 6 -17 -9 -21 -19 -5 -4 6
-15 8 -25 5 -10 -3 -21 -1 -25 5 -3 5 -2 10 3 10 5 0 7 11 4 25 -4 25 12 35
21 13 4 -10 8 -10 15 1 12 16 27 -3 16 -21 -5 -7 -3 -8 5 -4 7 5 10 15 7 23
-4 11 -2 13 9 10 8 -4 17 -2 20 2 8 14 -32 20 -75 10 -23 -5 -47 -6 -53 -2 -7
3 -4 -3 6 -14 15 -17 15 -22 4 -32 -11 -9 -17 -8 -27 4 -7 8 -19 15 -26 15
-19 0 -18 30 3 52 14 16 15 18 0 18 -9 0 -18 -4 -22 -10z m-808 -112 c-14 -8
-31 18 -22 33 4 6 12 3 20 -8 10 -13 10 -20 2 -25z m68 22 c3 -5 -1 -10 -9
-10 -9 0 -16 5 -16 10 0 6 4 10 9 10 6 0 13 -4 16 -10z m1015 -9 c0 -6 -4 -13
-10 -16 -5 -3 -10 1 -10 9 0 9 5 16 10 16 6 0 10 -4 10 -9z m-1170 -11 c-19
-13 -30 -13 -30 0 0 6 10 10 23 10 18 0 19 -2 7 -10z m1240 0 c0 -5 -7 -10
-16 -10 -8 0 -12 5 -9 10 3 6 10 10 16 10 5 0 9 -4 9 -10z m-1355 -30 c-3 -4
-15 -6 -27 -2 -21 5 -21 6 -2 12 21 8 37 3 29 -10z m400 10 c-3 -5 -10 -10
-16 -10 -5 0 -9 5 -9 10 0 6 7 10 16 10 8 0 12 -4 9 -10z m400 -30 c3 -5 1
-10 -4 -10 -6 0 -11 5 -11 10 0 6 2 10 4 10 3 0 8 -4 11 -10z m-880 -69 l7
-24 -22 21 c-12 11 -19 26 -15 32 9 14 20 3 30 -29z"/>
<path d="M7520 2140 c-8 -5 -12 -11 -9 -14 2 -3 11 -1 19 4 8 5 12 11 9 14 -2
3 -11 1 -19 -4z"/>
<path d="M7590 2140 c0 -5 5 -10 11 -10 5 0 7 5 4 10 -3 6 -8 10 -11 10 -2 0
-4 -4 -4 -10z"/>
<path d="M6795 2130 c-3 -5 -2 -10 4 -10 5 0 13 5 16 10 3 6 2 10 -4 10 -5 0
-13 -4 -16 -10z"/>
<path d="M6940 2130 c0 -5 5 -10 10 -10 6 0 10 5 10 10 0 6 -4 10 -10 10 -5 0
-10 -4 -10 -10z"/>
<path d="M6978 2123 c7 -3 16 -2 19 1 4 3 -2 6 -13 5 -11 0 -14 -3 -6 -6z"/>
<path d="M7235 2120 c-3 -5 -1 -10 4 -10 6 0 11 5 11 10 0 6 -2 10 -4 10 -3 0
-8 -4 -11 -10z"/>
<path d="M7295 2120 c-3 -6 1 -7 9 -4 18 7 21 14 7 14 -6 0 -13 -4 -16 -10z"/>
<path d="M8285 2110 c3 -5 8 -10 11 -10 2 0 4 5 4 10 0 6 -5 10 -11 10 -5 0
-7 -4 -4 -10z"/>
<path d="M7812 2099 c2 -6 8 -10 13 -10 5 0 11 4 13 10 2 6 -4 11 -13 11 -9 0
-15 -5 -13 -11z"/>
<path d="M6835 2090 c-3 -5 -2 -10 4 -10 5 0 13 5 16 10 3 6 2 10 -4 10 -5 0
-13 -4 -16 -10z"/>
<path d="M7775 2090 c-3 -5 -1 -10 4 -10 6 0 11 5 11 10 0 6 -2 10 -4 10 -3 0
-8 -4 -11 -10z"/>
<path d="M7408 2073 c7 -3 16 -2 19 1 4 3 -2 6 -13 5 -11 0 -14 -3 -6 -6z"/>
<path d="M6805 2059 c-4 -6 -5 -13 -2 -16 7 -7 27 6 27 18 0 12 -17 12 -25 -2z"/>
<path d="M9400 2000 c0 -5 5 -10 10 -10 6 0 10 5 10 10 0 6 -4 10 -10 10 -5 0
-10 -4 -10 -10z"/>
<path d="M6825 1940 c-3 -5 -2 -10 4 -10 5 0 13 5 16 10 3 6 2 10 -4 10 -5 0
-13 -4 -16 -10z"/>
<path d="M9920 1940 c0 -6 7 -10 15 -10 8 0 15 2 15 4 0 2 -7 6 -15 10 -8 3
-15 1 -15 -4z"/>
<path d="M5910 1931 c0 -6 5 -13 10 -16 6 -3 10 1 10 9 0 9 -4 16 -10 16 -5 0
-10 -4 -10 -9z"/>
<path d="M6394 1919 c-4 -7 -2 -15 4 -17 7 -2 12 -8 12 -14 0 -6 -7 -7 -15 -4
-9 3 -18 0 -20 -7 -3 -6 -17 -13 -31 -13 -30 -2 -38 -9 -29 -24 4 -6 15 -8 26
-5 11 4 19 2 19 -4 0 -6 -4 -11 -10 -11 -5 0 -10 -6 -10 -14 0 -20 -27 -39
-42 -30 -7 5 -31 8 -53 7 -21 -2 -42 2 -46 8 -5 8 -8 8 -13 0 -8 -12 21 -26
74 -34 19 -3 62 -10 95 -16 110 -20 144 -15 237 33 46 23 104 50 129 58 24 8
44 21 44 28 0 13 -74 40 -112 40 -13 0 -23 -6 -23 -12 0 -9 -3 -9 -9 1 -8 12
-12 12 -25 2 -13 -11 -16 -11 -16 3 0 11 -9 16 -31 16 -17 0 -28 4 -24 10 9
15 -2 12 -30 -6 -25 -17 -61 -12 -50 6 3 5 -1 10 -10 10 -12 0 -15 -5 -11 -17
6 -16 5 -16 -8 0 -11 14 -16 15 -22 6z"/>
<path d="M6360 1910 c0 -5 -8 -10 -17 -10 -15 0 -15 -2 -4 -9 9 -6 19 -4 28 4
16 16 17 25 3 25 -5 0 -10 -4 -10 -10z"/>
<path d="M6140 1802 c0 -12 19 -26 26 -19 2 2 -2 10 -11 17 -9 8 -15 8 -15 2z"/>
</g>
</svg>
