<?xml version="1.0" encoding="utf-8"?>
<!-- Generator: Adobe Illustrator 27.5.0, SVG Export Plug-In . SVG Version: 6.00 Build 0)  -->
<svg version="1.1" xmlns="http://www.w3.org/2000/svg" xmlns:xlink="http://www.w3.org/1999/xlink" x="0px" y="0px"
	 viewBox="0 0 3710 3710" style="enable-background:new 0 0 3710 3710;" xml:space="preserve">

<g id="Illustration">
	<g>
		<linearGradient id="SVGID_1_" gradientUnits="userSpaceOnUse" x1="3603.5691" y1="4067.8091" x2="1124.5376" y2="989.0076">
			<stop  offset="0" style="stop-color:#DAE3FE"/>
			<stop  offset="1" style="stop-color:#E9EFFD"/>
		</linearGradient>
		<path style="fill:url(#SVGID_1_);" d="M2927.399,2849.6c-57.262,59.726-111.442,98.243-154.25,128.674
			c-503.188,357.709-1098.593,253.439-1225.133,227.975c-186.86-37.602-548.057-110.286-809.196-414.544
			c-395.081-460.318-333.561-1185.536-27.109-1664.263c56.055-87.567,352.153-573.586,953.971-651.528
			c364.214-47.17,788.77,47.966,1096.222,303.171C3407.271,1314.784,3361.328,2396.991,2927.399,2849.6z"/>
		<g>
			<path style="fill:#BDD0FB;" d="M1049.14,962.195c-14.74-84.616,215.775-227.014,150.135-397.066l-171.921-65.005
				c0,0,18.137,229.019-40.72,312.2c-58.857,83.181-96.093,28.799-85.659-32.389c10.432-61.185,107.322-211.944,71.336-279.54
				c0,0-28.9-53.33-89.531-3.005C822.151,547.714,692.574,499.95,652.344,455c0,0,1.062,35.4-34.262,116.561
				c-35.325,81.162-76.686,160.324-6.116,197.849c70.568,37.527,178.477,49.205,176.522,98.388
				c-1.957,49.182-202.818,68.919-262.556-78.474c0,0-66.024,124.802-53.347,167.037c12.675,42.234,87.247,87.07,205.277,60.978
				c118.031-26.095,179.908-2.698,178.441,34.189c-1.467,36.887-355.036,61.286-396.105-62.409c0,0-21.703,262.207-7.628,292.49
				c14.073,30.282,168.404,30.393,260.761-5.41c92.357-35.799,185.054-0.75,205.064,31.777
				c20.01,32.527-104.721,10.326-162.161,30.208c-57.44,19.882-306.348-3.51-306.348-3.51s29.487,19.471,35.346,109.05
				c5.856,89.578,67.86,233.666,122.547,221.064c54.688-12.604,301.267-123.217,386.053-128.6
				c84.786-5.383,154.015,8.313,115.427,39.482c-38.59,31.172-147.965,39.738-224.537,69.029
				c-76.571,29.288-264.031,128.975-309.484,95.149c0,0,76.468,228.603,302.031,247.325c0,0,105.071-60.116,159.775-160.075
				c54.704-99.962,82.138-139.511,121.29-133.029c39.15,6.484,0.707,75.15-34.986,136.538
				c-35.692,61.387-115.8,205.825-168.879,214.879c0,0,341.139,8.343,386.495-219.96c42.536-214.106,20.206-240.517,17.266-242.976
				c11.581,8.349,364.038,257.87,493.337-208.785c0,0-59.283,98.228-135.687,90.14c-76.403-8.087-197.409,54.322-198.783-0.279
				c-1.374-54.601,276.064-24.582,327.512-129.934c51.448-105.353-7.547-274.38-129.364-317.804c0,0,2.42,107.557-94.928,174.752
				c-97.349,67.195-246.818,131.325-215.427,43.35s314.99-215.237,326.608-293.288c11.615-78.048-224.419-223.976-224.419-223.976
				s-3.098,41.201-63.176,167.084c-60.079,125.886-154.333,256.653-170.597,221.384c-16.261-35.272,51.281-116.287,108.914-190.986
				c57.632-74.698,86.913-193.627,48.839-226.226c-38.072-32.599-178.418-102.68-178.418-102.68s-44.841,176.399-57.367,258.219
				C1182.744,925.349,1063.878,1046.81,1049.14,962.195z M1349.449,1408.373c-77.233,82.936-76.556-12.828-62.147-77.394
				C1298.242,1281.966,1426.683,1325.439,1349.449,1408.373z M1225.136,1232.589c-49.835,56.04-87.883,48.244-83.825,6.773
				C1150.638,1144.072,1274.97,1176.549,1225.136,1232.589z M1072.226,1062.447c-25.065,32.127-42.988,37.83-58.869-5.617
				C997.475,1013.384,1097.29,1030.323,1072.226,1062.447z"/>
		</g>
		<g>
			
				<linearGradient id="SVGID_00000156550616774031459020000003479380267855502750_" gradientUnits="userSpaceOnUse" x1="646.1563" y1="1781.5768" x2="3262.178" y2="1781.5768">
				<stop  offset="0" style="stop-color:#4F52FF"/>
				<stop  offset="1" style="stop-color:#4042E2"/>
			</linearGradient>
			<path style="fill:url(#SVGID_00000156550616774031459020000003479380267855502750_);" d="M3261.077,1838.95
				c-29.355,668.691-638.276,1185.085-1360.063,1153.399S617.902,2392.895,647.257,1724.203
				c29.356-668.691,638.276-1185.085,1360.063-1153.399S3290.433,1170.259,3261.077,1838.95z"/>
			<ellipse style="opacity:0.11;fill:#FFFFFF;" cx="1883.366" cy="1694.137" rx="1026.507" ry="969.722"/>
			<g style="opacity:0.68;">
				<path style="fill:#FFFFFF;" d="M2288.361,1787.431c-0.314,213.753-14.973,427.941-52.642,638.667
					c-9.537,52.638-20.593,105.024-33.765,156.912c-13.213,51.868-28.468,103.286-47.146,153.558
					c-18.834,50.141-40.694,99.56-70.336,144.728c-14.938,22.419-31.88,43.9-52.789,61.571
					c-10.451,8.779-21.929,16.565-34.554,22.269c-12.599,5.667-26.368,9.255-40.343,9.504c-13.956,0.408-27.934-2.324-40.781-7.498
					c-12.897-5.124-24.654-12.559-35.357-21.048c-21.408-17.121-38.724-38.366-53.929-60.607
					c-30.168-44.845-52.325-94.165-71.355-144.228c-18.914-50.186-34.319-101.563-47.647-153.399
					c-13.304-51.854-24.471-104.216-34.086-156.838c-19.19-105.265-32.278-211.542-41.11-318.111
					c-8.769-106.587-13.164-213.514-13.704-320.457c-0.263-53.465,1.196-106.92,3.097-160.343
					c2.002-53.422,4.944-106.809,8.877-160.124c7.908-106.617,19.719-212.996,37.278-318.502
					c8.81-52.74,19.083-105.258,31.44-157.311c12.388-52.035,26.785-103.657,44.643-154.16
					c8.975-25.228,18.789-50.187,29.981-74.559c11.175-24.367,23.681-48.201,38.378-70.736
					c14.731-22.435,31.666-43.851,52.753-60.993c10.542-8.496,22.157-15.889,34.882-20.897c12.674-5.073,26.426-7.642,40.105-7.122
					c13.687,0.389,27.181,3.802,39.63,9.285c12.467,5.509,23.922,13.001,34.439,21.494c21.035,17.094,38.445,37.993,53.89,59.94
					c30.707,44.199,53.856,92.943,73.908,142.539c19.906,49.732,36.341,100.752,50.657,152.299
					c14.265,51.571,26.345,103.718,36.798,156.17C2270.94,1359.426,2287.743,1573.641,2288.361,1787.431z M2272.539,1787.431
					c0.196-106.507-3.852-213.042-12.704-319.18c-8.726-106.134-21.946-211.963-41.642-316.62
					c-9.835-52.321-21.289-104.346-34.918-155.795c-13.677-51.423-29.465-102.321-48.686-151.902
					c-19.358-49.441-41.808-98.015-71.598-141.899c-14.974-21.788-31.866-42.481-52.136-59.316
					c-10.131-8.367-21.13-15.72-33.033-21.134c-11.89-5.35-24.697-8.856-37.722-9.198c-13.016-0.413-26.016,2.206-38.056,7.161
					c-12.083,4.906-23.175,12.124-33.288,20.457c-20.232,16.809-36.625,37.952-50.872,60.188
					c-14.221,22.331-26.328,46.016-37.125,70.258c-10.816,24.247-20.279,49.107-28.915,74.244
					c-17.178,50.326-30.935,101.811-42.694,153.714c-11.728,51.923-21.384,104.317-29.583,156.931
					c-16.338,105.254-26.948,211.37-33.665,317.681c-6.785,106.326-9.128,212.892-8.936,319.412
					c-0.282,106.502,3.277,213.034,11.192,319.248c7.979,106.196,20.199,212.125,38.488,317.014
					c9.164,52.433,19.87,104.598,32.696,156.226c12.846,51.609,27.753,102.734,46.101,152.576
					c18.448,49.709,40.02,98.615,69.174,142.663c14.673,21.84,31.367,42.555,51.6,58.977c10.11,8.148,21.114,15.199,33.008,20.026
					c11.858,4.84,24.582,7.53,37.33,7.1c12.744-0.328,25.301-3.694,36.958-9.042c11.675-5.385,22.444-12.79,32.334-21.233
					c19.795-16.989,36.134-37.964,50.548-59.992c28.644-44.397,49.906-93.412,68.146-143.204
					c18.101-49.934,32.844-101.101,45.559-152.742c12.68-51.663,23.258-103.852,32.332-156.3
					c18.166-104.908,30.235-210.85,38.26-317.045C2268.827,2000.502,2272.581,1893.959,2272.539,1787.431z"/>
				<path style="fill:#FFFFFF;" d="M2827.592,1787.431c-0.739,137.651-18.431,275.362-55.28,408.105
					c-37.492,132.438-94.01,259.847-170.741,374.235c-38.37,57.132-81.839,110.909-130.411,159.699
					c-48.551,48.777-102.246,92.55-160.532,129.234c-58.339,36.543-121.349,65.796-187.308,85.642
					c-65.92,19.894-134.736,30.272-203.615,30.341c-68.878-0.006-137.713-10.322-203.669-30.161
					c-65.994-19.792-129.055-48.998-187.454-85.504c-58.346-36.646-112.12-80.381-160.75-129.137
					c-48.652-48.77-92.208-102.535-130.665-159.667c-76.886-114.403-133.522-241.868-171.19-374.371
					c-18.541-66.374-32.319-134.058-41.447-202.345c-9.08-68.298-13.641-137.173-13.954-206.072
					c0.356-68.9,4.961-137.769,14.082-206.056c9.172-68.275,23.002-135.94,41.587-202.287
					c37.762-132.45,94.485-259.828,171.421-374.113c38.473-57.079,82.034-110.786,130.681-159.49
					c48.63-48.682,102.366-92.376,160.702-128.906c58.381-36.412,121.428-65.402,187.307-85.186
					c65.836-19.867,134.562-30.229,203.349-30.296c68.787,0.125,137.495,10.545,203.299,30.462
					c65.845,19.837,128.838,48.885,187.158,85.336c58.273,36.572,111.932,80.302,160.482,129.005
					c48.566,48.726,92.041,102.443,130.427,159.523c76.78,114.269,133.388,241.591,170.971,373.977
					C2808.974,1512.092,2826.76,1649.779,2827.592,1787.431z M2809.455,1787.431c-0.199-136.089-17.151-272.323-53.058-403.69
					c-36.106-131.165-90.472-257.794-165.317-371.672c-37.402-56.88-79.882-110.494-127.461-159.23
					c-47.597-48.66-100.171-92.684-157.669-129.275c-57.568-36.386-119.735-65.674-184.92-85.483
					c-65.152-19.824-133.176-30.245-201.324-30.472c-68.148,0.285-136.154,10.763-201.274,30.637
					c-65.152,19.862-127.264,49.208-184.771,85.633c-57.435,36.633-109.931,80.693-157.449,129.373
					c-47.498,48.757-89.892,102.382-127.208,159.263c-74.689,113.863-128.938,240.435-164.866,371.535
					c-17.899,65.625-30.859,132.541-39.64,199.955c-8.802,67.422-13.146,135.413-13.298,203.425
					c0.195,68.011,4.581,135.996,13.425,203.407c8.825,67.402,21.837,134.298,39.78,199.896
					c36.021,131.047,90.36,257.533,165.099,371.278c37.33,56.828,79.731,110.394,127.224,159.086
					c47.517,48.606,99.975,92.626,157.4,129.142c57.49,36.332,119.587,65.459,184.624,85.315
					c65.002,19.902,132.896,30.427,200.954,30.772c68.058-0.282,135.971-10.745,201.008-30.592
					c65.072-19.801,127.22-48.883,184.77-85.177c57.486-36.48,110.022-80.46,157.62-129.046
					c47.573-48.67,90.06-102.225,127.476-159.053c74.895-113.76,129.351-240.302,165.548-371.414
					C2792.117,2059.729,2809.163,1923.518,2809.455,1787.431z"/>
				<path style="fill:#FFFFFF;" d="M860.276,1320.014c-0.658-0.006-1.188-0.544-1.183-1.202c0.005-0.652,0.534-1.178,1.183-1.183
					l272.65-2.203l272.65-1.248l545.299-1.006l545.3,1.108l272.65,1.364l272.65,2.378c0.442,0.004,0.797,0.365,0.793,0.808
					c-0.003,0.437-0.358,0.789-0.793,0.793l-272.65,2.378l-272.65,1.363l-545.3,1.109l-545.299-1.007l-272.65-1.248
					L860.276,1320.014z"/>
				<path style="fill:#FFFFFF;" d="M1175.408,862.138c0.01-0.645,0.533-1.163,1.174-1.174c64.524-1.022,129.049-1.46,193.573-2.202
					l193.573-1.248c64.525-0.532,129.049-0.474,193.574-0.639l193.573-0.368l387.146,1.109l193.573,1.363
					c64.525,0.809,129.049,1.282,193.574,2.378c0.442,0.007,0.794,0.372,0.787,0.814c-0.007,0.432-0.358,0.779-0.787,0.787
					c-64.525,1.096-129.049,1.569-193.574,2.378l-193.573,1.363l-387.146,1.109l-193.573-0.368
					c-64.525-0.164-129.049-0.107-193.574-0.639l-193.573-1.248c-64.524-0.742-129.049-1.18-193.573-2.202
					C1175.923,863.339,1175.398,862.797,1175.408,862.138z"/>
				<path style="fill:#FFFFFF;" d="M765.527,1776.679c-0.658-0.005-1.188-0.543-1.184-1.201c0.005-0.652,0.533-1.178,1.184-1.183
					l296.337-2.195l296.337-1.256l592.673-1.007l592.673,1.109l296.337,1.364l296.336,2.377c0.443,0.004,0.798,0.365,0.795,0.807
					c-0.004,0.438-0.358,0.79-0.795,0.795l-296.336,2.376l-296.337,1.364l-592.673,1.109l-592.673-1.007l-296.337-1.256
					L765.527,1776.679z"/>
				<path style="fill:#FFFFFF;" d="M860.276,2230.958l272.65-2.202l272.65-1.248l545.299-1.008l545.3,1.109l272.65,1.363
					l272.65,2.378c0.442,0.004,0.797,0.366,0.793,0.808c-0.003,0.437-0.358,0.79-0.793,0.793l-272.65,2.378l-272.65,1.364
					l-545.3,1.109l-545.299-1.007l-272.65-1.248l-272.65-2.203c-0.658-0.005-1.188-0.543-1.183-1.202
					C859.098,2231.49,859.627,2230.964,860.276,2230.958z"/>
				<path style="fill:#FFFFFF;" d="M2768.361,2688.817c0,2.309-1.87,4.18-4.18,4.18H1215.597c-2.311,0-4.18-1.872-4.18-4.18
					c0-2.308,1.869-4.18,4.18-4.18H2764.18C2766.491,2684.637,2768.361,2686.509,2768.361,2688.817z"/>
			</g>
		</g>
		<g>
			<path style="fill:#FFFFFF;" d="M2476.961,1729.994c31.968,2.596,55.87,30.72,53.274,62.69
				c-2.596,31.968-30.722,55.869-62.69,53.273c-31.967-2.596-55.869-30.721-53.273-62.689
				C2416.868,1751.299,2444.994,1727.399,2476.961,1729.994z M2475.093,1753.007c-19.282-1.566-36.242,12.847-37.807,32.13
				c-1.566,19.282,12.847,36.243,32.128,37.808c19.283,1.566,36.243-12.848,37.808-32.13
				C2508.788,1771.532,2494.375,1754.573,2475.093,1753.007z"/>
			<g>
				<path style="fill:#FFFFFF;" d="M2595.948,1798.02c5.538-68.207-45.444-128.2-113.651-133.738
					c-4.227-0.343-8.417-0.452-12.566-0.354c-5.583,0.13-9.843-4.902-8.574-10.34l4.149-17.783c0.906-3.883,4.403-6.562,8.391-6.535
					c3.778,0.026,7.579,0.183,11.403,0.493c87.237,7.083,152.451,83.823,145.368,171.06c-0.537,6.609-1.495,13.083-2.819,19.41
					c-0.992,4.739-5.702,7.724-10.392,6.527l-17.256-4.398c-4.365-1.111-7.071-5.445-6.158-9.855
					C2594.823,1807.781,2595.547,1802.953,2595.948,1798.02z"/>
				<path style="fill:#FFFFFF;" d="M2685.123,1805.26c9.531-117.379-78.206-220.622-195.585-230.152l-0.099-0.008
					c-5.136-0.415-8.747-5.217-7.576-10.234l4.072-17.445c3.413-2.498,5.612-4.106,9.026-6.605
					c135.091,12.389,235.686,131.714,224.681,267.248c-0.96,11.83-2.787,23.381-5.344,34.635c-1.039,4.577-5.736,7.333-10.285,6.174
					l-17.212-4.388c-4.382-1.117-7.16-5.497-6.166-9.909C2682.778,1825.047,2684.31,1815.27,2685.123,1805.26z"/>
				<path style="fill:#FFFFFF;" d="M2774.296,1812.501c13.171-162.213-104.61-305.348-264.631-325.179
					c-5.025-0.622-8.456-5.366-7.306-10.297l4.04-17.31c0.979-4.202,4.988-7.053,9.268-6.5
					c177.423,22.915,307.777,181.923,293.148,362.088c-1.374,16.923-4.05,33.427-7.815,49.481
					c-1.073,4.577-5.767,7.336-10.322,6.175l-17.19-4.382c-4.482-1.143-7.14-5.658-6.091-10.164
					C2770.716,1842.162,2773.077,1827.516,2774.296,1812.501z"/>
			</g>
		</g>
		<g>
			<g>
				
					<linearGradient id="SVGID_00000163052113294533280950000011271628886056654007_" gradientUnits="userSpaceOnUse" x1="2709.0481" y1="-270.8402" x2="1378.4343" y2="2380.2292">
					<stop  offset="0" style="stop-color:#09005D"/>
					<stop  offset="1" style="stop-color:#1A0F91"/>
				</linearGradient>
				<path style="fill:url(#SVGID_00000163052113294533280950000011271628886056654007_);" d="M2351.154,3138.288
					c-0.506,49.926-43.398,90.405-95.817,90.519l-1267.146,2.761c-52.798,0.115-96.624-40.335-97.878-90.458L831.267,780.961
					c-1.404-56.117,42.911-101.498,98.968-101.23l1345.06,6.43c55.629,0.266,100.253,45.879,99.687,101.751L2351.154,3138.288z"/>
				<path style="fill:#7D97F4;" d="M2236.941,924.128c0.378-53.924-43.864-97.932-98.833-98.174l-1067.566-4.694
					c-55.308-0.243-99.194,43.529-98.01,97.647l43.886,2006.688c1.075,49.151,44.544,88.844,97.08,88.76l1014.229-1.61
					c52.231-0.083,94.839-39.781,95.183-88.773L2236.941,924.128z"/>
				
					<linearGradient id="SVGID_00000127039188726408794850000006944133068112592793_" gradientUnits="userSpaceOnUse" x1="1659.1874" y1="-68.3074" x2="1632.1031" y2="358.262">
					<stop  offset="0" style="stop-color:#09005D"/>
					<stop  offset="1" style="stop-color:#1A0F91"/>
				</linearGradient>
				<path style="fill:url(#SVGID_00000127039188726408794850000006944133068112592793_);" d="M1765.18,749.594
					c0.028,10.463-8.387,18.902-18.795,18.855l-277.832-1.259c-10.43-0.047-18.988-8.573-19.115-19.048l0,0
					c-0.126-10.482,8.236-18.945,18.678-18.896l278.148,1.298C1756.684,730.592,1765.153,739.124,1765.18,749.594L1765.18,749.594z"
					/>
			</g>
			<g style="opacity:0.27;">
				
					<linearGradient id="SVGID_00000158020981668432582980000017938940924182195342_" gradientUnits="userSpaceOnUse" x1="2008.8267" y1="2356.2036" x2="2168.8691" y2="2356.2036">
					<stop  offset="0" style="stop-color:#DAE3FE"/>
					<stop  offset="1" style="stop-color:#E9EFFD"/>
				</linearGradient>
				<polygon style="fill:url(#SVGID_00000158020981668432582980000017938940924182195342_);" points="2008.827,2347.486 
					2168.869,2188.59 2162.935,2523.817 2009.17,2347.865 				"/>
				
					<linearGradient id="SVGID_00000142897505654963465470000001996716183871430304_" gradientUnits="userSpaceOnUse" x1="1752.3604" y1="2694.7495" x2="2160.0212" y2="2694.7495">
					<stop  offset="0" style="stop-color:#DAE3FE"/>
					<stop  offset="1" style="stop-color:#E9EFFD"/>
				</linearGradient>
				<path style="fill:url(#SVGID_00000142897505654963465470000001996716183871430304_);" d="M1931.528,2424.249l226.202,259.002
					l2.291,2.654l-6.521,205.229c-0.519,19.689-11.058,38.63-27.741,52.635c-14.708,12.313-33.8,19.869-53.78,21.481
					l-319.619-363.06L1931.528,2424.249z"/>
				
					<linearGradient id="SVGID_00000067201502133551764460000009647936647951094975_" gradientUnits="userSpaceOnUse" x1="1387.6666" y1="1948.84" x2="2190.7212" y2="1948.84">
					<stop  offset="0" style="stop-color:#DAE3FE"/>
					<stop  offset="1" style="stop-color:#E9EFFD"/>
				</linearGradient>
				<polygon style="fill:url(#SVGID_00000067201502133551764460000009647936647951094975_);" points="2121.203,2085.007 
					1938.511,2267.125 1861.444,2343.969 1682.258,2522.59 1387.667,2188.013 1387.71,2187.971 1566.205,2007.04 1565.684,2007.032 
					1564.714,2006.523 1564.714,2006.481 1642.505,1928.571 1643.235,1928.656 1643.422,1928.721 1643.554,1928.657 
					1643.675,1928.571 1826.456,1743.467 2190.721,1375.09 2176.973,1979.382 				"/>
				
					<linearGradient id="SVGID_00000099639653523950114450000005458726091021486247_" gradientUnits="userSpaceOnUse" x1="1385.8751" y1="2821.8203" x2="1931.0302" y2="2821.8203">
					<stop  offset="0" style="stop-color:#DAE3FE"/>
					<stop  offset="1" style="stop-color:#E9EFFD"/>
				</linearGradient>
				<polygon style="fill:url(#SVGID_00000099639653523950114450000005458726091021486247_);" points="1931.03,2965.682 
					1385.875,2966.086 1676.442,2677.555 				"/>
				
					<linearGradient id="SVGID_00000001665757091582993290000012710094666778286765_" gradientUnits="userSpaceOnUse" x1="1100.8883" y1="2615.5273" x2="1606.3949" y2="2615.5273">
					<stop  offset="0" style="stop-color:#DAE3FE"/>
					<stop  offset="1" style="stop-color:#E9EFFD"/>
				</linearGradient>
				<path style="fill:url(#SVGID_00000001665757091582993290000012710094666778286765_);" d="M1606.395,2598.24l-369.102,367.956
					l-33.725,0.025c-22.465,0.017-44.247-7.569-60.595-21.173c-16.401-13.612-26.037-32.112-26.732-51.455l-15.352-414.887
					l210.969-213.871L1606.395,2598.24z"/>
				<polygon style="fill:#FFFFFF;" points="1240.656,2184.115 1095.711,2331.801 1083.934,2006.889 1240.525,2184.115 				"/>
				
					<linearGradient id="SVGID_00000069377272193601644840000014216690550956866744_" gradientUnits="userSpaceOnUse" x1="1539.743" y1="1250.6934" x2="2198.4368" y2="1250.6934">
					<stop  offset="0" style="stop-color:#DAE3FE"/>
					<stop  offset="1" style="stop-color:#E9EFFD"/>
				</linearGradient>
				<path style="fill:url(#SVGID_00000069377272193601644840000014216690550956866744_);" d="M1832.677,1581.494l-292.934-340.648
					l308.633-319.313l254.748-1.638c54.233-0.349,96.604,42.578,95.283,96.253l-4.847,198.085L1832.677,1581.494z"/>
				
					<linearGradient id="SVGID_00000137103716788610961980000000769286747989227915_" gradientUnits="userSpaceOnUse" x1="1268.327" y1="1039.4348" x2="1692.1267" y2="1039.4348">
					<stop  offset="0" style="stop-color:#DAE3FE"/>
					<stop  offset="1" style="stop-color:#E9EFFD"/>
				</linearGradient>
				<polygon style="fill:url(#SVGID_00000137103716788610961980000000769286747989227915_);" points="1268.327,925.262 
					1692.127,922.538 1467.085,1156.332 				"/>
				
					<linearGradient id="SVGID_00000155840213537117035690000001331053841994900621_" gradientUnits="userSpaceOnUse" x1="1074.7437" y1="1714.0514" x2="1754.7877" y2="1714.0514">
					<stop  offset="0" style="stop-color:#DAE3FE"/>
					<stop  offset="1" style="stop-color:#E9EFFD"/>
				</linearGradient>
				<polygon style="fill:url(#SVGID_00000155840213537117035690000001331053841994900621_);" points="1461.903,1321.4 
					1754.788,1660.74 1572.229,1846.56 1495.399,1924.77 1319.213,2106.703 1083.166,1835.156 1083.166,1835.113 1075.383,1723.858 
					1074.744,1723.248 				"/>
				
					<linearGradient id="SVGID_00000058578187868746977550000017843591450539714443_" gradientUnits="userSpaceOnUse" x1="1046.9126" y1="1249.8977" x2="1389.2157" y2="1249.8977">
					<stop  offset="0" style="stop-color:#DAE3FE"/>
					<stop  offset="1" style="stop-color:#E9EFFD"/>
				</linearGradient>
				<path style="fill:url(#SVGID_00000058578187868746977550000017843591450539714443_);" d="M1122.555,928.178l266.661,309.024
					l-321.97,334.416l-20.262-546.409C1045.193,977.741,1077.723,937.677,1122.555,928.178z"/>
			</g>
			<g>
				<path style="fill:#FFFFFF;" d="M1608.603,1040.231c0,8.214-6.659,14.873-14.873,14.873h-464.586
					c-8.214,0-14.873-6.659-14.873-14.873v-0.084c0-8.214,6.659-14.873,14.873-14.873h464.586c8.214,0,14.873,6.659,14.873,14.873
					V1040.231z"/>
				<path style="fill:#FFFFFF;" d="M1608.603,1121.199c0,8.214-6.659,14.873-14.873,14.873h-464.586
					c-8.214,0-14.873-6.659-14.873-14.873v-0.083c0-8.214,6.659-14.873,14.873-14.873h464.586c8.214,0,14.873,6.659,14.873,14.873
					V1121.199z"/>
				<path style="fill:#FFFFFF;" d="M1608.603,1202.168c0,8.214-6.659,14.873-14.873,14.873h-464.586
					c-8.214,0-14.873-6.659-14.873-14.873v-0.084c0-8.214,6.659-14.873,14.873-14.873h464.586c8.214,0,14.873,6.659,14.873,14.873
					V1202.168z"/>
			</g>
			<g>
				<g>
					<g>
						<path style="fill:#FFFFFF;" d="M1928.932,1184.283c-16.794,0-31.64-8.792-39.714-23.52
							c-41.991-76.587-92.048-177.441-92.048-222.984c0-72.654,59.109-131.762,131.764-131.762
							c72.654,0,131.762,59.108,131.762,131.762c0,45.548-50.056,146.4-92.048,222.984
							C1960.574,1175.49,1945.728,1184.283,1928.932,1184.283z M1928.934,827.128c-61.014,0-110.652,49.638-110.652,110.651
							c0,31.582,32.603,109.156,89.448,212.834c4.312,7.863,12.239,12.558,21.203,12.558c8.966,0,16.893-4.695,21.204-12.558
							c56.845-103.674,89.448-181.249,89.448-212.834C2039.584,876.766,1989.947,827.128,1928.934,827.128z"/>
					</g>
					<g>
						<path style="fill:#FFFFFF;" d="M1928.934,1020.584c-44.054,0-79.894-35.84-79.894-79.894s35.84-79.894,79.894-79.894
							c44.053,0,79.893,35.84,79.893,79.894S1972.987,1020.584,1928.934,1020.584z M1928.934,881.907
							c-32.412,0-58.783,26.37-58.783,58.783s26.37,58.782,58.783,58.782s58.781-26.37,58.781-58.782
							S1961.346,881.907,1928.934,881.907z"/>
					</g>
				</g>
				<g>
					
						<ellipse transform="matrix(0.2298 -0.9732 0.9732 0.2298 240.9775 2861.2671)" style="fill:#FFFFFF;" cx="1928.172" cy="1278.39" rx="50.14" ry="50.14"/>
				</g>
			</g>
			<path style="fill:#FFFFFF;" d="M2019.477,3002.214c-3.23,0-6.444-1.311-8.784-3.893l-22.733-25.087
				c-4.394-4.848-4.024-12.342,0.823-16.737c4.85-4.392,12.345-4.023,16.739,0.825l22.733,25.087
				c4.394,4.848,4.024,12.342-0.823,16.737C2025.163,3001.201,2022.313,3002.214,2019.477,3002.214z M1962.648,2939.496
				c-3.23,0-6.444-1.311-8.784-3.893l-22.733-25.088c-4.394-4.85-4.024-12.343,0.826-16.737c4.853-4.394,12.342-4.023,16.735,0.825
				l22.733,25.088c4.394,4.85,4.024,12.343-0.823,16.737C1968.331,2938.482,1965.485,2939.496,1962.648,2939.496z
				 M1905.816,2876.777c-3.23,0-6.444-1.311-8.784-3.893l-22.733-25.089c-4.394-4.85-4.024-12.343,0.823-16.737
				c4.86-4.392,12.345-4.023,16.739,0.825l22.733,25.088c4.394,4.85,4.024,12.343-0.823,16.737
				C1911.499,2875.764,1908.653,2876.777,1905.816,2876.777z M1848.987,2814.059c-3.23,0-6.444-1.311-8.784-3.893l-22.733-25.089
				c-4.394-4.85-4.023-12.343,0.823-16.737c4.86-4.394,12.342-4.023,16.739,0.825l22.733,25.088
				c4.394,4.85,4.024,12.343-0.827,16.737C1854.67,2813.045,1851.824,2814.059,1848.987,2814.059z M1792.155,2751.339
				c-3.23,0-6.444-1.311-8.784-3.893l-22.733-25.087c-4.394-4.848-4.023-12.342,0.823-16.737c4.85-4.392,12.345-4.023,16.739,0.825
				l22.733,25.087c4.394,4.848,4.024,12.342-0.823,16.737C1797.842,2750.325,1794.992,2751.339,1792.155,2751.339z
				 M1735.327,2688.62c-3.23,0-6.444-1.313-8.784-3.893l-22.733-25.087c-4.394-4.848-4.024-12.342,0.823-16.737
				c4.857-4.392,12.338-4.027,16.739,0.825l22.733,25.087c4.394,4.848,4.024,12.342-0.823,16.737
				C1741.01,2687.607,1738.163,2688.62,1735.327,2688.62z M1678.495,2625.902c-3.23,0-6.447-1.313-8.784-3.893l-22.729-25.087
				c-4.394-4.85-4.024-12.343,0.827-16.737c4.853-4.392,12.348-4.02,16.736,0.825l22.729,25.087
				c4.394,4.85,4.023,12.343-0.827,16.737C1684.178,2624.888,1681.331,2625.902,1678.495,2625.902z M1621.666,2563.183
				c-3.23,0-6.444-1.311-8.784-3.893l-22.733-25.088c-4.394-4.85-4.023-12.343,0.827-16.737c4.853-4.394,12.338-4.024,16.735,0.825
				l22.733,25.088c4.394,4.85,4.023,12.343-0.823,16.737C1627.352,2562.17,1624.502,2563.183,1621.666,2563.183z M1564.834,2500.465
				c-3.23,0-6.447-1.313-8.784-3.893l-22.73-25.088c-4.394-4.85-4.023-12.343,0.827-16.737c4.853-4.392,12.348-4.02,16.735,0.825
				l22.729,25.088c4.394,4.85,4.024,12.344-0.826,16.737C1570.517,2499.451,1567.671,2500.465,1564.834,2500.465z
				 M1508.005,2437.744c-3.23,0-6.444-1.311-8.784-3.893l-22.733-25.087c-4.394-4.848-4.024-12.342,0.823-16.737
				c4.85-4.392,12.338-4.024,16.739,0.825l22.733,25.087c4.394,4.848,4.023,12.342-0.823,16.737
				C1513.688,2436.731,1510.842,2437.744,1508.005,2437.744z M1451.177,2375.026c-3.23,0-6.444-1.311-8.784-3.893l-22.733-25.087
				c-4.394-4.848-4.024-12.342,0.823-16.737c4.847-4.392,12.339-4.027,16.739,0.825l22.733,25.087
				c4.394,4.848,4.023,12.342-0.823,16.737C1456.863,2374.013,1454.013,2375.026,1451.177,2375.026z M1394.344,2312.307
				c-3.23,0-6.444-1.311-8.784-3.893l-22.733-25.087c-4.394-4.848-4.024-12.342,0.823-16.737c4.853-4.394,12.342-4.024,16.739,0.825
				l22.733,25.087c4.394,4.848,4.024,12.342-0.823,16.737C1400.031,2311.294,1397.181,2312.307,1394.344,2312.307z
				 M1339.083,2248.397c-4.252,0-8.361-2.294-10.487-6.316c-5.647-10.692-8.632-22.754-8.632-34.888
				c0-1.308,0.036-2.615,0.102-3.918c0.331-6.533,5.858-11.513,12.434-11.231c6.536,0.334,11.565,5.901,11.231,12.438
				c-0.046,0.903-0.069,1.807-0.069,2.711c0,8.29,2.036,16.525,5.888,23.819c3.058,5.788,0.843,12.955-4.943,16.011
				C1342.842,2247.956,1340.948,2248.397,1339.083,2248.397z M1353.471,2171.173c-2.956,0-5.911-1.096-8.209-3.304
				c-4.718-4.533-4.87-12.034-0.337-16.754l23.453-24.414c4.536-4.723,12.041-4.865,16.755-0.335
				c4.718,4.533,4.87,12.034,0.337,16.754l-23.453,24.414C1359.69,2169.955,1356.582,2171.173,1353.471,2171.173z
				 M1412.105,2110.137c-2.956,0-5.911-1.098-8.209-3.304c-4.718-4.533-4.87-12.034-0.337-16.754l23.453-24.414
				c4.539-4.723,12.038-4.866,16.755-0.335c4.718,4.533,4.87,12.034,0.337,16.754l-23.453,24.414
				C1418.324,2108.919,1415.216,2110.137,1412.105,2110.137z M1470.739,2049.102c-2.956,0-5.911-1.098-8.209-3.305
				c-4.718-4.533-4.87-12.034-0.337-16.754l23.454-24.414c4.539-4.723,12.037-4.868,16.755-0.336
				c4.718,4.533,4.87,12.034,0.337,16.754l-23.453,24.414C1476.958,2047.883,1473.85,2049.102,1470.739,2049.102z
				 M1529.373,1988.066c-2.956,0-5.911-1.096-8.209-3.304c-4.718-4.533-4.87-12.034-0.337-16.754l23.453-24.414
				c4.539-4.723,12.037-4.868,16.755-0.336s4.87,12.034,0.337,16.754l-23.454,24.414
				C1535.591,1986.848,1532.484,1988.066,1529.373,1988.066z M1588.006,1927.03c-2.956,0-5.911-1.098-8.209-3.305
				c-4.718-4.533-4.87-12.034-0.337-16.754l23.453-24.414c4.536-4.721,12.041-4.865,16.755-0.336
				c4.718,4.533,4.87,12.034,0.337,16.754l-23.453,24.414C1594.225,1925.812,1591.117,1927.03,1588.006,1927.03z M1646.64,1865.994
				c-2.956,0-5.911-1.098-8.209-3.304c-4.718-4.533-4.87-12.034-0.337-16.754l23.453-24.414c4.536-4.718,12.034-4.873,16.755-0.336
				c4.718,4.533,4.87,12.034,0.337,16.754l-23.453,24.414C1652.859,1864.776,1649.751,1865.994,1646.64,1865.994z
				 M1705.274,1804.959c-2.956,0-5.911-1.096-8.209-3.305c-4.718-4.533-4.87-12.034-0.337-16.754l23.454-24.414
				c4.539-4.723,12.037-4.868,16.755-0.335c4.718,4.533,4.87,12.034,0.337,16.754l-23.453,24.414
				C1711.493,1803.74,1708.385,1804.959,1705.274,1804.959z M1763.908,1743.923c-2.956,0-5.911-1.098-8.209-3.304
				c-4.718-4.533-4.87-12.034-0.337-16.754l23.453-24.414c4.539-4.723,12.037-4.865,16.755-0.335
				c4.718,4.533,4.87,12.034,0.337,16.754l-23.454,24.414C1770.127,1742.705,1767.019,1743.923,1763.908,1743.923z
				 M1822.542,1682.887c-2.956,0-5.911-1.098-8.209-3.304c-4.718-4.533-4.87-12.034-0.337-16.754l23.453-24.414
				c4.536-4.716,12.034-4.873,16.755-0.336c4.718,4.533,4.87,12.034,0.337,16.754l-23.453,24.414
				C1828.76,1681.669,1825.653,1682.887,1822.542,1682.887z M1881.176,1621.851c-2.956,0-5.911-1.096-8.209-3.304
				c-4.718-4.533-4.87-12.034-0.337-16.754l23.453-24.414c4.539-4.723,12.038-4.868,16.755-0.336
				c4.718,4.533,4.87,12.034,0.337,16.754l-23.453,24.414C1887.394,1620.633,1884.286,1621.851,1881.176,1621.851z
				 M1939.809,1560.816c-2.956,0-5.911-1.098-8.209-3.304c-4.718-4.533-4.87-12.034-0.337-16.754l23.454-24.414
				c4.539-4.723,12.038-4.865,16.755-0.336c4.718,4.533,4.87,12.034,0.337,16.754l-23.453,24.414
				C1946.028,1559.598,1942.92,1560.816,1939.809,1560.816z M1998.443,1499.78c-2.956,0-5.911-1.098-8.209-3.305
				c-4.718-4.534-4.87-12.034-0.337-16.754l22.194-23.101c0.35-0.364,0.688-0.722,1.015-1.086
				c4.404-4.849,11.892-5.209,16.739-0.808c4.847,4.397,5.207,11.892,0.81,16.737c-0.486,0.532-0.975,1.06-1.481,1.584
				l-22.184,23.093C2004.662,1498.562,2001.554,1499.78,1998.443,1499.78z M2038.11,1428.672c-6.186,0-11.393-4.8-11.809-11.062
				c-0.612-9.209-3.696-18.083-8.913-25.662c-3.709-5.391-2.351-12.768,3.038-16.479c5.389-3.706,12.771-2.351,16.481,3.04
				c7.634,11.089,12.143,24.065,13.039,37.528c0.433,6.53-4.506,12.175-11.036,12.609
				C2038.642,1428.664,2038.374,1428.672,2038.11,1428.672z M1994.119,1358.527c-3.306,0-6.596-1.377-8.94-4.068l-15.803-18.147
				c-4.298-4.934-3.779-12.419,1.154-16.717c4.933-4.295,12.418-3.782,16.719,1.156l15.803,18.147
				c4.298,4.934,3.779,12.419-1.154,16.717C1999.653,1357.568,1996.879,1358.527,1994.119,1358.527z"/>
		</g>
		<g>
			
				<linearGradient id="SVGID_00000019663884726807375970000008070776758733744260_" gradientUnits="userSpaceOnUse" x1="-2447.9465" y1="1371.611" x2="-2334.1641" y2="1657.0325" gradientTransform="matrix(-1 0 0 1 -1165.4333 0)">
				<stop  offset="0" style="stop-color:#09005D"/>
				<stop  offset="1" style="stop-color:#1A0F91"/>
			</linearGradient>
			<path style="fill:url(#SVGID_00000019663884726807375970000008070776758733744260_);" d="M1215.047,1525.145
				c0,0-38.359,18.658-45.412,40.091c-5.659,17.198-48.074,19.415-52.264,53.238c-2.163,17.463-15.086,31.448-32.479,34.114
				c-43.319,6.64-110.079,29.135-120.761,104.347c-8.153,57.409,21.113,79.177,51.827,86.712
				c22.559,5.534,37.55,27.476,32.987,50.251c-4.377,21.845,2.15,47.098,39.994,67.067
				c84.806,44.749,169.499-106.015,169.499-106.015l17.357-263.243L1215.047,1525.145z"/>
			
				<linearGradient id="SVGID_00000155121113242010402650000017060074199342547391_" gradientUnits="userSpaceOnUse" x1="-2768.2844" y1="1145.3136" x2="-2558.0806" y2="1623.5747" gradientTransform="matrix(-0.9776 -0.2106 -0.2106 0.9776 -915.0133 -113.5247)">
				<stop  offset="0" style="stop-color:#FEBBBA"/>
				<stop  offset="1" style="stop-color:#FF928E"/>
			</linearGradient>
			<path style="fill:url(#SVGID_00000155121113242010402650000017060074199342547391_);" d="M1676.503,1462.738
				c0,0-169.327,267.829-370.678,319.56c0,0,39.234,111.745,69.516,124.534c0,0,247.718-206.692,311.377-406.037L1676.503,1462.738z
				"/>
			
				<linearGradient id="SVGID_00000059305433513345099320000006108150029979978117_" gradientUnits="userSpaceOnUse" x1="-2032.0061" y1="3198.9084" x2="-1935.5227" y2="3198.9084" gradientTransform="matrix(-1 0 0 1 -1165.4333 0)">
				<stop  offset="0" style="stop-color:#4F52FF"/>
				<stop  offset="1" style="stop-color:#4042E2"/>
			</linearGradient>
			<path style="fill:url(#SVGID_00000059305433513345099320000006108150029979978117_);" d="M866.458,3175.769l-5.488,45.115
				c-1.041,8.559-7.779,15.326-16.345,16.305c-14.463,1.652-37.672,3.345-60.379,0.945c-9.967-1.054-16.438-11.146-13.402-20.698
				c5.536-17.416,15.663-43.56,30.264-58.945h50.046C860.406,3158.49,867.575,3166.583,866.458,3175.769z"/>
			
				<linearGradient id="SVGID_00000129910433784238142000000016536508616888833960_" gradientUnits="userSpaceOnUse" x1="-2439.6978" y1="3579.3855" x2="-2300.8513" y2="1956.6165" gradientTransform="matrix(-1 0 0 1 -1165.4333 0)">
				<stop  offset="0" style="stop-color:#FEBBBA"/>
				<stop  offset="1" style="stop-color:#FF928E"/>
			</linearGradient>
			<path style="fill:url(#SVGID_00000129910433784238142000000016536508616888833960_);" d="M1258.439,2647.277l8.447,49.69
				c0,0-28.288,286.529-33.319,401.14c-0.789,17.969,3.86,35.726,13.291,51.042l49.187,79.875l-125.009-73.766l-2.489-15.255
				l20.464-28.136l-26.805-320.984c-1.575-18.856,2.316-37.767,11.207-54.47l25.857-48.576L1258.439,2647.277z"/>
			
				<linearGradient id="SVGID_00000072969980213278000330000002860380876674860199_" gradientUnits="userSpaceOnUse" x1="-2480.259" y1="3181.293" x2="-2324.1416" y2="3181.293" gradientTransform="matrix(-1 0 0 1 -1165.4333 0)">
				<stop  offset="0" style="stop-color:#4F52FF"/>
				<stop  offset="1" style="stop-color:#4042E2"/>
			</linearGradient>
			<path style="fill:url(#SVGID_00000072969980213278000330000002860380876674860199_);" d="M1304.277,3240.595h-39.893
				c-7.467,0-14.509-3.428-19.063-9.346c-12.436-16.159-38.203-47.687-50.524-48.51c-16.586-1.108-14.464,57.856-14.464,57.856
				h-9.297l-11.776-73.269c-2.963-18.435,6.205-36.698,22.759-45.335c0,0,3.791,28.039,24.349,40.441
				c20.558,12.402,83.657,56.817,83.657,56.817s7.729-1.102,16.214,0.432C1318.826,3221.956,1317.068,3240.595,1304.277,3240.595z"
				/>
			
				<linearGradient id="SVGID_00000058577834758103716060000015742923471237480580_" gradientUnits="userSpaceOnUse" x1="-2160.3994" y1="3603.5315" x2="-2021.5165" y2="1980.3358" gradientTransform="matrix(-1 0 0 1 -1165.4333 0)">
				<stop  offset="0" style="stop-color:#FEBBBA"/>
				<stop  offset="1" style="stop-color:#FF928E"/>
			</linearGradient>
			<path style="fill:url(#SVGID_00000058577834758103716060000015742923471237480580_);" d="M1087.218,2670.877
				c0,0-165.717,314.349-192.06,386.12s-35.571,131.644-35.924,137.314c-0.552,8.859-11.571,17.357-41.945,17.357
				c-15.675,0-23.352-6.284-27.111-12.365c-3.207-5.189-3.373-11.682-0.67-17.151c9.586-19.4,40.007-81.397,51.273-109.516
				c13.452-33.573,42.387-185.72,58.255-238.619c15.869-52.899,33.806-110.282,102.911-163.138
				C1001.947,2670.877,1049.385,2624.414,1087.218,2670.877z"/>
			
				<linearGradient id="SVGID_00000090979032348663277780000010613283652505675137_" gradientUnits="userSpaceOnUse" x1="2118.051" y1="1679.5479" x2="1698.2544" y2="1835.2786">
				<stop  offset="0" style="stop-color:#FF928E"/>
				<stop  offset="1" style="stop-color:#FE7062"/>
			</linearGradient>
			<path style="fill:url(#SVGID_00000090979032348663277780000010613283652505675137_);" d="M1191.905,2155.8
				c42.747-181.138-65.545-283.588-65.545-283.588c68.33-65.589,192.827-95.435,192.827-95.435s118.797,86.851,104.704,154.832
				c-8.26,39.844-83.503,238.655-83.503,238.655S1270.812,2203.192,1191.905,2155.8z"/>
			
				<linearGradient id="SVGID_00000071522327124966757130000014303528772036307595_" gradientUnits="userSpaceOnUse" x1="-2053.8333" y1="1974.545" x2="-2400.9683" y2="2529.9609" gradientTransform="matrix(-1 0 0 1 -1165.4333 0)">
				<stop  offset="0" style="stop-color:#4F52FF"/>
				<stop  offset="1" style="stop-color:#4042E2"/>
			</linearGradient>
			<path style="fill:url(#SVGID_00000071522327124966757130000014303528772036307595_);" d="M1097.127,2245.477
				c17.397-52.409,94.777-89.677,94.777-89.677c78.907,47.392,148.484,14.464,148.484,14.464s15.604,59.641,4.834,115.067
				c-10.769,55.426-78.336,411.634-78.336,411.634c-106.463,21.572-270.201-21.703-270.201-21.703
				C1064.498,2554.866,1079.731,2297.886,1097.127,2245.477z"/>
			
				<linearGradient id="SVGID_00000120534400899473940060000005062864396700780701_" gradientUnits="userSpaceOnUse" x1="-2454.9246" y1="1979.821" x2="-2428.8428" y2="1789.0126" gradientTransform="matrix(-1 0 0 1 -1165.4333 0)">
				<stop  offset="0" style="stop-color:#FEBBBA"/>
				<stop  offset="1" style="stop-color:#FF928E"/>
			</linearGradient>
			<path style="fill:url(#SVGID_00000120534400899473940060000005062864396700780701_);" d="M1241.524,1657.076l-34.755,156.111
				c-3.328,13.75,9.208,11.5,23.11,8.879c22.767-4.292,52.11-13.133,61.919-30.848c0.998-1.803,1.497-3.841,1.779-5.883
				l14.931-108.251c1.185-8.588-3.458-16.924-11.384-20.438l-28.813-12.776C1257.218,1638.951,1244.378,1645.281,1241.524,1657.076z
				"/>
			
				<linearGradient id="SVGID_00000007391012135784958850000003659802347954232224_" gradientUnits="userSpaceOnUse" x1="-2347.4285" y1="2072.8032" x2="-2174.1689" y2="2072.8032" gradientTransform="matrix(-1 0 0 1 -1165.4333 0)">
				<stop  offset="0" style="stop-color:#FEBBBA"/>
				<stop  offset="1" style="stop-color:#FF928E"/>
			</linearGradient>
			<path style="fill:url(#SVGID_00000007391012135784958850000003659802347954232224_);" d="M1126.36,1872.213
				c0,0-242.57,173.546-31.023,355.907c0,0,8.066,9.126,23.935,13.869c8.011,2.395,31.71,20.325,43.725,29.673
				c3.863,3.005,9.444,1.982,12.04-2.166c2.035-3.25,2.274-7.313,0.635-10.78l-30.03-63.502c-8.34-7.783-21.104-8.335-30.085-1.302
				c-5.729,4.486-14.122,2.608-17.329-3.924c-16.353-33.307-47.232-131.265,79.155-241.955c4.751-4.161,5.953-11.043,3.037-16.645
				C1171.541,1914.329,1151.232,1880.454,1126.36,1872.213z"/>
			<g>
				
					<linearGradient id="SVGID_00000046311665937070103120000003936118608928330147_" gradientUnits="userSpaceOnUse" x1="-2588.4033" y1="1372.562" x2="-2360.8281" y2="967.5548" gradientTransform="matrix(-0.9809 -0.1943 -0.1943 0.9809 -936.3432 -99.2406)">
					<stop  offset="0" style="stop-color:#FEBBBA"/>
					<stop  offset="1" style="stop-color:#FF928E"/>
				</linearGradient>
				<path style="fill:url(#SVGID_00000046311665937070103120000003936118608928330147_);" d="M1308.092,1514.765
					c0,0,37,25.046,52.899,88.829c15.899,63.783-9.939,86.662-36.423,85.26s-64.886-9.592-98.158-55.351
					C1193.138,1587.745,1259.606,1484.16,1308.092,1514.765z"/>
				
					<linearGradient id="SVGID_00000021819178905807435760000010491078349055535759_" gradientUnits="userSpaceOnUse" x1="-2539.4614" y1="1019.8652" x2="-2425.6738" y2="1305.2983" gradientTransform="matrix(-0.9809 -0.1943 -0.1943 0.9809 -936.3432 -99.2406)">
					<stop  offset="0" style="stop-color:#09005D"/>
					<stop  offset="1" style="stop-color:#1A0F91"/>
				</linearGradient>
				<path style="fill:url(#SVGID_00000021819178905807435760000010491078349055535759_);" d="M1259.963,1607.777
					c0,0-13.557-91.395,62.325-77.416l15.343,15.974c0,0,37.142-41.828-3.961-73.447c-41.103-31.619-98.141-23.521-129.697,34.041
					c-31.556,57.562-43.009,98.01-16.559,133.779c26.45,35.769,46.345,5.091,46.345,5.091s-12.13-30.958-2.065-44.242
					c10.065-13.284,23.051,7.725,23.051,7.725L1259.963,1607.777z"/>
				
					<linearGradient id="SVGID_00000177472632602397317660000002271322524911146645_" gradientUnits="userSpaceOnUse" x1="-2539.9622" y1="1399.7849" x2="-2312.387" y2="994.7776" gradientTransform="matrix(-0.9809 -0.1943 -0.1943 0.9809 -936.3432 -99.2406)">
					<stop  offset="0" style="stop-color:#FEBBBA"/>
					<stop  offset="1" style="stop-color:#FF928E"/>
				</linearGradient>
				<path style="fill:url(#SVGID_00000177472632602397317660000002271322524911146645_);" d="M1249.592,1615.604
					c0,0-6.693-47.022-30.708-33.58c-24.015,13.442,8.655,43.925,21.754,54.297L1249.592,1615.604z"/>
			</g>
			<g>
				
					<linearGradient id="SVGID_00000023969275526076284590000012472952436061604010_" gradientUnits="userSpaceOnUse" x1="-2809.8245" y1="1163.5717" x2="-2599.6208" y2="1641.8326" gradientTransform="matrix(-0.9776 -0.2106 -0.2106 0.9776 -915.0133 -113.5247)">
					<stop  offset="0" style="stop-color:#FEBBBA"/>
					<stop  offset="1" style="stop-color:#FF928E"/>
				</linearGradient>
				<path style="fill:url(#SVGID_00000023969275526076284590000012472952436061604010_);" d="M1675.339,1517.875
					c0.513,5.525-20.032,9.343-26.57-14.21c1.797-10.226,4.99-55.004,12.83-61.96c41.757-37.051,116.219-78.732,116.219-78.732
					c8.328,12.714-2.594,21.089-2.594,21.089l-37.17,25.085c3.877,12.842,9.536,24.196,10.176,38.858
					c0.485,11.103-3.617,21.973-10.986,30.395c-7.397,8.452-17.356,19.366-26.332,27.651
					C1693.92,1521.732,1675.339,1517.875,1675.339,1517.875z"/>
				
					<linearGradient id="SVGID_00000111155909872934811990000008190384040665206460_" gradientUnits="userSpaceOnUse" x1="1671.3374" y1="1461.375" x2="1727.9393" y2="1461.375">
					<stop  offset="0" style="stop-color:#FEBBBA"/>
					<stop  offset="1" style="stop-color:#FF928E"/>
				</linearGradient>
				<path style="fill:url(#SVGID_00000111155909872934811990000008190384040665206460_);" d="M1695.529,1499.621l-5.681-2.337
					c0.755-1.838,18.592-45.182,27.219-54.199c3.279-3.421,4.861-6.35,4.715-8.712c-0.073-1.278-0.706-2.54-1.907-3.826
					l-30.076,16.085l-13.285,20.8l-5.178-3.311l14.145-22.155l35.229-18.836l1.591,1.294c3.563,2.914,5.405,6.042,5.616,9.572
					c0.26,4.204-1.834,8.566-6.403,13.342C1715.015,1454.126,1700.553,1487.379,1695.529,1499.621z"/>
			</g>
		</g>
		<g>
			<g>
				
					<linearGradient id="SVGID_00000089547142350061286930000008784897673840676768_" gradientUnits="userSpaceOnUse" x1="3227.7979" y1="2268.4641" x2="2652.2703" y2="2857.5332">
					<stop  offset="0" style="stop-color:#FF928E"/>
					<stop  offset="1" style="stop-color:#FE7062"/>
				</linearGradient>
				<path style="fill:#FF9800;" d="M3076.537,3254.979
					c63.41,1.205,115.462-49.868,115.462-113.289v-504.162c0-66.24-53.233-120.137-119.469-120.858
					c-198.789-2.165-608.781-2.272-944.244,25.997c-45.777,3.857-81.384,41.377-83.044,87.286l-31.353,487.423
					c-2.33,64.472,48.642,118.334,113.145,119.56L3076.537,3254.979z"/>
				<path style="fill:#FFFFFF;" d="M3076.863,2692.076c0.845,42.898-0.428,110.964-1.472,154.94
					c-0.542,22.878-20.628,40.314-43.359,37.65l-163.597-19.174c-21.794-2.555-37.148-22.641-33.896-44.342l20.081-133.96
					c2.851-19.018,19.188-33.088,38.418-33.088h144.984C3059.148,2654.102,3076.446,2670.954,3076.863,2692.076z"/>
				<path style="opacity:0.37;fill:#FFFFFF;" d="M2649.33,2945.95l-136.469,14.722c-19.096,2.062-35.39-13.687-33.983-32.843
					l29.834-405.955c57.208-1.814,113.635-3.137,168.084-4.066v397.552C2676.796,2931.075,2664.954,2944.264,2649.33,2945.95z"/>
				<path style="fill:#FFFFFF;" d="M2593.396,2875.589c-0.42,7.302-6.47,12.932-13.691,12.932c-0.269,0-0.537-0.009-0.805-0.027
					c-7.57-0.438-13.352-6.926-12.905-14.496l20.577-354.303c9.228-0.228,18.38-0.434,27.53-0.637L2593.396,2875.589z"/>
				<g>
					
						<linearGradient id="SVGID_00000060744826218248385540000008003307824220820616_" gradientUnits="userSpaceOnUse" x1="-1385.8752" y1="2679.1938" x2="-1678.7227" y2="3104.7371" gradientTransform="matrix(-1 0 0 1 1563.5464 0)">
						<stop  offset="0" style="stop-color:#09005D"/>
						<stop  offset="1" style="stop-color:#1A0F91"/>
					</linearGradient>
					<path style="fill:url(#SVGID_00000060744826218248385540000008003307824220820616_);" d="M3001.205,2819.957
						c2.395,0,4.415-1.859,4.567-4.29l7.078-111.595c0.161-2.52-1.751-4.692-4.281-4.853c-2.654-0.206-4.692,1.76-4.853,4.281
						l-7.078,111.596c-0.161,2.52,1.752,4.691,4.281,4.852C3001.017,2819.957,3001.115,2819.957,3001.205,2819.957z"/>
					
						<linearGradient id="SVGID_00000169526933652071988970000005797341794087029936_" gradientUnits="userSpaceOnUse" x1="-1375.3453" y1="2686.4407" x2="-1668.1927" y2="3111.9841" gradientTransform="matrix(-1 0 0 1 1563.5464 0)">
						<stop  offset="0" style="stop-color:#09005D"/>
						<stop  offset="1" style="stop-color:#1A0F91"/>
					</linearGradient>
					<path style="fill:url(#SVGID_00000169526933652071988970000005797341794087029936_);" d="M2986.637,2819.957
						c2.457,0,4.495-1.948,4.576-4.424l3.708-113.731c0.08-2.53-1.904-4.647-4.423-4.729c-2.915-0.143-4.639,1.904-4.728,4.424
						l-3.709,113.731c-0.081,2.529,1.905,4.647,4.424,4.728C2986.486,2819.957,2986.592,2819.957,2986.637,2819.957z"/>
					
						<linearGradient id="SVGID_00000077319214701754125830000016818076554155672490_" gradientUnits="userSpaceOnUse" x1="-1362.6401" y1="2695.1838" x2="-1655.4878" y2="3120.7273" gradientTransform="matrix(-1 0 0 1 1563.5464 0)">
						<stop  offset="0" style="stop-color:#09005D"/>
						<stop  offset="1" style="stop-color:#1A0F91"/>
					</linearGradient>
					<path style="fill:url(#SVGID_00000077319214701754125830000016818076554155672490_);" d="M2966.886,2819.948
						c-2.529-0.116-4.477-2.261-4.352-4.781c1.814-38.206,5.273-111.078,5.326-113.562c0.018-2.503,2.065-4.532,4.576-4.532
						c2.529,0,4.576,2.047,4.576,4.576c0,1.885-4.451,95.25-5.344,113.946c-0.116,2.458-2.136,4.362-4.567,4.362
						C2967.03,2819.957,2966.958,2819.957,2966.886,2819.948z M2967.771,2701.65h0.089H2967.771z"/>
					
						<linearGradient id="SVGID_00000004542063912944000260000016780832539181308297_" gradientUnits="userSpaceOnUse" x1="-1340.6642" y1="2710.3074" x2="-1633.5111" y2="3135.8499" gradientTransform="matrix(-1 0 0 1 1563.5464 0)">
						<stop  offset="0" style="stop-color:#09005D"/>
						<stop  offset="1" style="stop-color:#1A0F91"/>
					</linearGradient>
					<path style="fill:url(#SVGID_00000004542063912944000260000016780832539181308297_);" d="M2936.599,2824.533
						c4.908,0,8.964-3.888,9.134-8.829c3.87-110.193,3.19-112.677,2.744-114.322c-1.323-4.888-6.399-7.756-11.234-6.425
						c-4.478,1.224-7.275,5.568-6.667,10.045c0.295,6.622-1.752,70.736-3.128,110.059c-0.179,5.049,3.771,9.295,8.821,9.464
						C2936.376,2824.533,2936.492,2824.533,2936.599,2824.533z"/>
					
						<linearGradient id="SVGID_00000166663729161927328220000012097124530577600412_" gradientUnits="userSpaceOnUse" x1="-1326.1736" y1="2720.2793" x2="-1619.021" y2="3145.8225" gradientTransform="matrix(-1 0 0 1 1563.5464 0)">
						<stop  offset="0" style="stop-color:#09005D"/>
						<stop  offset="1" style="stop-color:#1A0F91"/>
					</linearGradient>
					<path style="fill:url(#SVGID_00000166663729161927328220000012097124530577600412_);" d="M2916.768,2819.957
						c2.53,0,4.576-2.046,4.576-4.576v-111.595c0-2.53-2.046-4.576-4.576-4.576c-2.529,0-4.575,2.046-4.575,4.576v111.595
						C2912.193,2817.911,2914.238,2819.957,2916.768,2819.957z"/>
					
						<linearGradient id="SVGID_00000092443482946727439250000013843561704860155021_" gradientUnits="userSpaceOnUse" x1="-1317.1779" y1="2726.4705" x2="-1610.0231" y2="3152.0105" gradientTransform="matrix(-1 0 0 1 1563.5464 0)">
						<stop  offset="0" style="stop-color:#09005D"/>
						<stop  offset="1" style="stop-color:#1A0F91"/>
					</linearGradient>
					<path style="fill:url(#SVGID_00000092443482946727439250000013843561704860155021_);" d="M2900.753,2819.957
						c2.484,0,4.522-1.984,4.575-4.469c0.876-38.776,2.923-102.114,4.755-109.727c0.804-1.439,0.795-3.262-0.169-4.746
						c-1.386-2.127-4.219-2.698-6.336-1.313c-2.494,1.635-4.862,3.182-7.4,115.573c-0.053,2.529,1.948,4.621,4.469,4.683H2900.753z"
						/>
					
						<linearGradient id="SVGID_00000077287668052458021720000002403059975522758795_" gradientUnits="userSpaceOnUse" x1="-1400.9434" y1="2668.8254" x2="-1693.7896" y2="3094.3669" gradientTransform="matrix(-1 0 0 1 1563.5464 0)">
						<stop  offset="0" style="stop-color:#09005D"/>
						<stop  offset="1" style="stop-color:#1A0F91"/>
					</linearGradient>
					<path style="fill:url(#SVGID_00000077287668052458021720000002403059975522758795_);" d="M3025.826,2830.118
						c4.835,0,8.875-3.789,9.134-8.678l6.104-117.182c0.26-5.049-3.62-9.348-8.668-9.616c-4.79-0.339-9.348,3.62-9.616,8.669
						l-6.104,117.182c-0.26,5.05,3.619,9.348,8.668,9.615C3025.504,2830.118,3025.665,2830.118,3025.826,2830.118z"/>
				</g>
			</g>
			<g>
				
					<linearGradient id="SVGID_00000048490609307580686980000003293035718402951057_" gradientUnits="userSpaceOnUse" x1="3074.6475" y1="1996.2823" x2="2499.1208" y2="2416.0791">
					<stop  offset="0" style="stop-color:#FF928E"/>
					<stop  offset="1" style="stop-color:#FE7062"/>
				</linearGradient>
				<path style="fill:#FF9800;" d="M3104.198,2443.009v-354.061
					c0-46.518-37.384-84.369-83.899-84.875c-139.605-1.52-427.532-1.596-663.12,18.256c-32.148,2.709-57.154,29.059-58.319,61.299
					l-22.019,342.305c-1.636,45.277,34.16,83.104,79.458,83.964l666.812,12.671
					C3067.644,2523.415,3104.198,2487.548,3104.198,2443.009z"/>
				<path style="fill:#FFFFFF;" d="M3023.341,2127.257c0.594,30.127-0.301,77.928-1.033,108.811
					c-0.381,16.066-14.487,28.311-30.45,26.44l-114.89-13.466c-15.305-1.793-26.088-15.899-23.804-31.14l14.102-94.077
					c2.003-13.355,13.475-23.236,26.98-23.236h101.819C3010.901,2100.589,3023.048,2112.423,3023.341,2127.257z"/>
				<path style="opacity:0.37;fill:#FFFFFF;" d="M2723.095,2305.546l-95.84,10.339c-13.41,1.448-24.853-9.612-23.865-23.065
					l20.952-285.092c40.176-1.274,79.804-2.203,118.041-2.856v279.191C2742.384,2295.099,2734.067,2304.362,2723.095,2305.546z"/>
				<path style="fill:#FFFFFF;" d="M2683.814,2256.133c-0.295,5.128-4.544,9.082-9.615,9.082c-0.189,0-0.377-0.007-0.566-0.02
					c-5.316-0.307-9.376-4.864-9.063-10.179l14.451-248.819c6.48-0.16,12.907-0.305,19.333-0.447L2683.814,2256.133z"/>
				<g>
					
						<linearGradient id="SVGID_00000072252691251270253210000016256348437375921340_" gradientUnits="userSpaceOnUse" x1="-1370.2959" y1="2118.2097" x2="-1575.955" y2="2417.0576" gradientTransform="matrix(-1 0 0 1 1563.5464 0)">
						<stop  offset="0" style="stop-color:#09005D"/>
						<stop  offset="1" style="stop-color:#1A0F91"/>
					</linearGradient>
					<path style="fill:url(#SVGID_00000072252691251270253210000016256348437375921340_);" d="M2970.208,2217.064
						c1.682,0,3.1-1.305,3.208-3.013l4.97-78.37c0.113-1.77-1.23-3.295-3.006-3.408c-1.865-0.145-3.295,1.236-3.408,3.006
						l-4.971,78.372c-0.112,1.77,1.23,3.295,3.007,3.408C2970.076,2217.064,2970.146,2217.064,2970.208,2217.064z"/>
					
						<linearGradient id="SVGID_00000170997166895677247850000008391733903775384740_" gradientUnits="userSpaceOnUse" x1="-1362.9011" y1="2123.2988" x2="-1568.5603" y2="2422.1467" gradientTransform="matrix(-1 0 0 1 1563.5464 0)">
						<stop  offset="0" style="stop-color:#09005D"/>
						<stop  offset="1" style="stop-color:#1A0F91"/>
					</linearGradient>
					<path style="fill:url(#SVGID_00000170997166895677247850000008391733903775384740_);" d="M2959.978,2217.064
						c1.725,0,3.157-1.368,3.213-3.106l2.604-79.871c0.057-1.777-1.336-3.264-3.106-3.321c-2.047-0.1-3.258,1.337-3.32,3.107
						l-2.605,79.871c-0.057,1.776,1.337,3.264,3.107,3.32C2959.871,2217.064,2959.946,2217.064,2959.978,2217.064z"/>
					
						<linearGradient id="SVGID_00000042720093840233863170000002766225476979499176_" gradientUnits="userSpaceOnUse" x1="-1353.9786" y1="2129.4387" x2="-1559.6382" y2="2428.2874" gradientTransform="matrix(-1 0 0 1 1563.5464 0)">
						<stop  offset="0" style="stop-color:#09005D"/>
						<stop  offset="1" style="stop-color:#1A0F91"/>
					</linearGradient>
					<path style="fill:url(#SVGID_00000042720093840233863170000002766225476979499176_);" d="M2946.107,2217.058
						c-1.776-0.082-3.144-1.588-3.057-3.358c1.274-26.831,3.703-78.007,3.74-79.752c0.013-1.758,1.451-3.182,3.214-3.182
						c1.776,0,3.214,1.437,3.214,3.213c0,1.324-3.126,66.893-3.753,80.022c-0.081,1.726-1.5,3.063-3.207,3.063
						C2946.208,2217.064,2946.157,2217.064,2946.107,2217.058z M2946.728,2133.979h0.063H2946.728z"/>
					
						<linearGradient id="SVGID_00000029730277726234555590000017143418945663169701_" gradientUnits="userSpaceOnUse" x1="-1338.5452" y1="2140.0598" x2="-1544.2043" y2="2438.9077" gradientTransform="matrix(-1 0 0 1 1563.5464 0)">
						<stop  offset="0" style="stop-color:#09005D"/>
						<stop  offset="1" style="stop-color:#1A0F91"/>
					</linearGradient>
					<path style="fill:url(#SVGID_00000029730277726234555590000017143418945663169701_);" d="M2924.837,2220.277
						c3.446,0,6.295-2.73,6.415-6.2c2.718-77.385,2.24-79.131,1.926-80.285c-0.929-3.433-4.493-5.448-7.889-4.513
						c-3.145,0.86-5.109,3.91-4.682,7.054c0.206,4.651-1.23,49.676-2.197,77.292c-0.126,3.546,2.648,6.527,6.195,6.646
						C2924.681,2220.277,2924.762,2220.277,2924.837,2220.277z"/>
					
						<linearGradient id="SVGID_00000148651791233078746930000011540567381128038811_" gradientUnits="userSpaceOnUse" x1="-1328.369" y1="2147.0627" x2="-1534.0283" y2="2445.9109" gradientTransform="matrix(-1 0 0 1 1563.5464 0)">
						<stop  offset="0" style="stop-color:#09005D"/>
						<stop  offset="1" style="stop-color:#1A0F91"/>
					</linearGradient>
					<path style="fill:url(#SVGID_00000148651791233078746930000011540567381128038811_);" d="M2910.91,2217.064
						c1.777,0,3.214-1.437,3.214-3.214v-78.37c0-1.777-1.437-3.214-3.214-3.214c-1.776,0-3.213,1.437-3.213,3.214v78.37
						C2907.698,2215.627,2909.135,2217.064,2910.91,2217.064z"/>
					
						<linearGradient id="SVGID_00000179605903462182460420000007263217039187864205_" gradientUnits="userSpaceOnUse" x1="-1322.0514" y1="2151.4109" x2="-1527.7096" y2="2450.2573" gradientTransform="matrix(-1 0 0 1 1563.5464 0)">
						<stop  offset="0" style="stop-color:#09005D"/>
						<stop  offset="1" style="stop-color:#1A0F91"/>
					</linearGradient>
					<path style="fill:url(#SVGID_00000179605903462182460420000007263217039187864205_);" d="M2899.663,2217.064
						c1.745,0,3.176-1.393,3.213-3.138c0.615-27.232,2.053-71.712,3.339-77.059c0.565-1.01,0.559-2.291-0.119-3.333
						c-0.973-1.493-2.962-1.896-4.449-0.922c-1.751,1.147-3.415,2.234-5.197,81.164c-0.037,1.777,1.368,3.245,3.139,3.289H2899.663z
						"/>
					
						<linearGradient id="SVGID_00000129188380398519387720000016878268834288288938_" gradientUnits="userSpaceOnUse" x1="-1380.8778" y1="2110.928" x2="-1586.5372" y2="2409.7761" gradientTransform="matrix(-1 0 0 1 1563.5464 0)">
						<stop  offset="0" style="stop-color:#09005D"/>
						<stop  offset="1" style="stop-color:#1A0F91"/>
					</linearGradient>
					<path style="fill:url(#SVGID_00000129188380398519387720000016878268834288288938_);" d="M2987.499,2224.2
						c3.396,0,6.233-2.661,6.414-6.094l4.286-82.294c0.182-3.546-2.542-6.565-6.087-6.753c-3.364-0.238-6.565,2.542-6.753,6.088
						l-4.287,82.294c-0.182,3.546,2.541,6.564,6.087,6.753C2987.273,2224.2,2987.386,2224.2,2987.499,2224.2z"/>
				</g>
			</g>
			<g>
				
					<linearGradient id="SVGID_00000004548185067075548110000001850792788766102970_" gradientUnits="userSpaceOnUse" x1="2418.5708" y1="2717.7529" x2="2113.8804" y2="3245.8838">
					<stop  offset="0" style="stop-color:#FF928E"/>
					<stop  offset="1" style="stop-color:#FE7062"/>
				</linearGradient>
				<path style="fill:#FF9800;" d="M2604.979,3174.032v-354.061
					c0-46.518-32.308-84.369-72.508-84.875c-120.65-1.52-369.485-1.596-573.085,18.257c-27.783,2.709-49.394,29.059-50.401,61.299
					l-19.029,342.305c-1.414,45.277,29.522,83.104,68.67,83.964l576.276,12.671
					C2573.388,3254.438,2604.979,3218.571,2604.979,3174.032z"/>
				<path style="fill:#FFFFFF;" d="M2535.1,2858.279c0.513,30.127-0.26,77.928-0.893,108.811
					c-0.33,16.066-12.52,28.311-26.316,26.44l-99.291-13.466c-13.227-1.793-22.546-15.899-20.572-31.14l12.188-94.077
					c1.73-13.356,11.646-23.236,23.317-23.236h87.994C2524.349,2831.611,2534.847,2843.445,2535.1,2858.279z"/>
				<path style="opacity:0.37;fill:#FFFFFF;" d="M2275.62,3036.568l-82.827,10.339c-11.589,1.448-21.479-9.612-20.625-23.065
					l18.107-285.092c34.721-1.274,68.968-2.203,102.014-2.856v279.191C2292.29,3026.122,2285.103,3035.385,2275.62,3036.568z"/>
				<path style="fill:#FFFFFF;" d="M2241.673,2987.156c-0.255,5.128-3.927,9.082-8.31,9.082c-0.163,0-0.326-0.007-0.489-0.02
					c-4.594-0.307-8.103-4.864-7.832-10.179l12.489-248.819c5.6-0.16,11.154-0.305,16.708-0.448L2241.673,2987.156z"/>
				<g>
					
						<linearGradient id="SVGID_00000011728002047501896140000010331954001457101203_" gradientUnits="userSpaceOnUse" x1="-888.8673" y1="2849.1387" x2="-1094.8704" y2="3148.4866" gradientTransform="matrix(-1 0 0 1 1563.5464 0)">
						<stop  offset="0" style="stop-color:#09005D"/>
						<stop  offset="1" style="stop-color:#1A0F91"/>
					</linearGradient>
					<path style="fill:url(#SVGID_00000011728002047501896140000010331954001457101203_);" d="M2489.181,2948.087
						c1.454,0,2.679-1.305,2.772-3.013l4.295-78.37c0.098-1.771-1.063-3.295-2.598-3.408c-1.611-0.145-2.847,1.236-2.946,3.006
						l-4.296,78.372c-0.097,1.77,1.063,3.295,2.599,3.408C2489.067,2948.087,2489.127,2948.087,2489.181,2948.087z"/>
					
						<linearGradient id="SVGID_00000062881584405363203170000010015089248357541256_" gradientUnits="userSpaceOnUse" x1="-883.1246" y1="2854.3767" x2="-1088.5708" y2="3152.9153" gradientTransform="matrix(-1 0 0 1 1563.5464 0)">
						<stop  offset="0" style="stop-color:#09005D"/>
						<stop  offset="1" style="stop-color:#1A0F91"/>
					</linearGradient>
					<path style="fill:url(#SVGID_00000062881584405363203170000010015089248357541256_);" d="M2480.341,2948.087
						c1.491,0,2.728-1.368,2.777-3.106l2.251-79.871c0.049-1.777-1.155-3.264-2.685-3.321c-1.769-0.1-2.815,1.337-2.869,3.107
						l-2.251,79.871c-0.049,1.776,1.156,3.264,2.685,3.32C2480.248,2948.087,2480.313,2948.087,2480.341,2948.087z"/>
					
						<linearGradient id="SVGID_00000170263252847492625040000011351770006841555075_" gradientUnits="userSpaceOnUse" x1="-875.9398" y1="2860.4478" x2="-1081.6632" y2="3159.3892" gradientTransform="matrix(-1 0 0 1 1563.5464 0)">
						<stop  offset="0" style="stop-color:#09005D"/>
						<stop  offset="1" style="stop-color:#1A0F91"/>
					</linearGradient>
					<path style="fill:url(#SVGID_00000170263252847492625040000011351770006841555075_);" d="M2468.353,2948.081
						c-1.535-0.082-2.717-1.588-2.642-3.358c1.101-26.831,3.2-78.007,3.232-79.752c0.012-1.758,1.254-3.182,2.778-3.182
						c1.535,0,2.778,1.437,2.778,3.213c0,1.324-2.701,66.893-3.244,80.022c-0.07,1.726-1.296,3.063-2.772,3.063
						C2468.44,2948.087,2468.396,2948.087,2468.353,2948.081z M2468.89,2865.002h0.054H2468.89z"/>
					
						<linearGradient id="SVGID_00000147935772733617279460000009692118106356062634_" gradientUnits="userSpaceOnUse" x1="-863.6488" y1="2871.25" x2="-1068.3137" y2="3168.6533" gradientTransform="matrix(-1 0 0 1 1563.5464 0)">
						<stop  offset="0" style="stop-color:#09005D"/>
						<stop  offset="1" style="stop-color:#1A0F91"/>
					</linearGradient>
					<path style="fill:url(#SVGID_00000147935772733617279460000009692118106356062634_);" d="M2449.971,2951.3
						c2.978,0,5.441-2.73,5.543-6.2c2.349-77.385,1.937-79.131,1.665-80.285c-0.802-3.433-3.883-5.448-6.818-4.513
						c-2.718,0.86-4.415,3.91-4.046,7.054c0.178,4.651-1.063,49.676-1.899,77.292c-0.109,3.546,2.289,6.527,5.354,6.646
						C2449.835,2951.3,2449.906,2951.3,2449.971,2951.3z"/>
					
						<linearGradient id="SVGID_00000016795070313489054860000001460745111262034105_" gradientUnits="userSpaceOnUse" x1="-855.4648" y1="2878.1892" x2="-1060.3514" y2="3175.9146" gradientTransform="matrix(-1 0 0 1 1563.5464 0)">
						<stop  offset="0" style="stop-color:#09005D"/>
						<stop  offset="1" style="stop-color:#1A0F91"/>
					</linearGradient>
					<path style="fill:url(#SVGID_00000016795070313489054860000001460745111262034105_);" d="M2437.935,2948.087
						c1.535,0,2.778-1.437,2.778-3.214v-78.37c0-1.777-1.242-3.214-2.778-3.214c-1.535,0-2.776,1.437-2.776,3.214v78.37
						C2435.158,2946.65,2436.4,2948.087,2437.935,2948.087z"/>
					
						<linearGradient id="SVGID_00000181084369840406044580000014721747539961531016_" gradientUnits="userSpaceOnUse" x1="-850.3448" y1="2882.4275" x2="-1056.0614" y2="3181.3589" gradientTransform="matrix(-1 0 0 1 1563.5464 0)">
						<stop  offset="0" style="stop-color:#09005D"/>
						<stop  offset="1" style="stop-color:#1A0F91"/>
					</linearGradient>
					<path style="fill:url(#SVGID_00000181084369840406044580000014721747539961531016_);" d="M2428.215,2948.087
						c1.508,0,2.745-1.393,2.777-3.138c0.532-27.232,1.774-71.712,2.886-77.059c0.488-1.01,0.483-2.291-0.103-3.333
						c-0.841-1.493-2.56-1.896-3.845-0.922c-1.513,1.147-2.951,2.234-4.491,81.164c-0.032,1.777,1.182,3.245,2.712,3.289H2428.215z"
						/>
					
						<linearGradient id="SVGID_00000049914574989823182860000004600093522469682093_" gradientUnits="userSpaceOnUse" x1="-897.3261" y1="2842.1145" x2="-1102.4651" y2="3140.2068" gradientTransform="matrix(-1 0 0 1 1563.5464 0)">
						<stop  offset="0" style="stop-color:#09005D"/>
						<stop  offset="1" style="stop-color:#1A0F91"/>
					</linearGradient>
					<path style="fill:url(#SVGID_00000049914574989823182860000004600093522469682093_);" d="M2504.125,2955.223
						c2.935,0,5.387-2.661,5.543-6.094l3.704-82.294c0.157-3.546-2.197-6.565-5.261-6.753c-2.907-0.238-5.674,2.542-5.836,6.088
						l-3.705,82.294c-0.157,3.546,2.196,6.564,5.261,6.753C2503.929,2955.223,2504.027,2955.223,2504.125,2955.223z"/>
				</g>
			</g>
		</g>
	</g>
</g>
</svg>
