<svg xmlns="http://www.w3.org/2000/svg" xmlns:xlink="http://www.w3.org/1999/xlink" width="500" zoomAndPan="magnify" viewBox="0 0 375 374.999991" height="500" preserveAspectRatio="xMidYMid meet" version="1.0"><defs><clipPath id="c45a9960de"><path d="M 59.917969 59.917969 L 314.917969 59.917969 L 314.917969 314.917969 L 59.917969 314.917969 Z M 59.917969 59.917969 " clip-rule="nonzero"/></clipPath></defs><g clip-path="url(#c45a9960de)"><path fill="#000000" d="M 59.917969 59.917969 L 59.917969 155.542969 L 81.167969 155.542969 L 81.167969 81.167969 L 155.542969 81.167969 L 155.542969 59.917969 Z M 219.292969 59.917969 L 219.292969 81.167969 L 293.667969 81.167969 L 293.667969 155.542969 L 314.917969 155.542969 L 314.917969 59.917969 Z M 59.917969 219.292969 L 59.917969 314.917969 L 155.542969 314.917969 L 155.542969 293.667969 L 81.167969 293.667969 L 81.167969 219.292969 Z M 293.667969 219.292969 L 293.667969 293.667969 L 219.292969 293.667969 L 219.292969 314.917969 L 314.917969 314.917969 L 314.917969 219.292969 Z M 293.667969 219.292969 " fill-opacity="1" fill-rule="nonzero"/><path fill="#000000" d="M 59.917969 59.917969 L 59.917969 155.542969 L 81.167969 155.542969 L 81.167969 81.167969 L 155.542969 81.167969 L 155.542969 59.917969 Z M 219.292969 59.917969 L 219.292969 81.167969 L 293.667969 81.167969 L 293.667969 155.542969 L 314.917969 155.542969 L 314.917969 59.917969 Z M 59.917969 219.292969 L 59.917969 314.917969 L 155.542969 314.917969 L 155.542969 293.667969 L 81.167969 293.667969 L 81.167969 219.292969 Z M 293.667969 219.292969 L 293.667969 293.667969 L 219.292969 293.667969 L 219.292969 314.917969 L 314.917969 314.917969 L 314.917969 219.292969 Z M 293.667969 219.292969 " fill-opacity="1" fill-rule="nonzero"/></g></svg>