<?xml version="1.0" standalone="no"?>
<!DOCTYPE svg PUBLIC "-//W3C//DTD SVG 20010904//EN"
 "http://www.w3.org/TR/2001/REC-SVG-20010904/DTD/svg10.dtd">
<svg version="1.0" xmlns="http://www.w3.org/2000/svg"
 width="1000.000000pt" height="1000.000000pt" viewBox="0 0 1000.000000 1000.000000"
 preserveAspectRatio="xMidYMid meet">

<g transform="translate(0.000000,1000.000000) scale(0.100000,-0.100000)"
fill="#000000" stroke="none">
<path d="M4605 9185 c-1113 -109 -2120 -642 -2837 -1500 -238 -285 -463 -648
-609 -980 -183 -418 -285 -801 -341 -1280 -17 -147 -17 -703 0 -850 48 -416
133 -760 274 -1120 423 -1073 1288 -1938 2363 -2362 211 -84 291 -109 520
-168 313 -80 571 -114 926 -122 597 -14 1129 82 1672 301 518 209 992 523
1391 920 680 677 1098 1543 1213 2511 25 212 25 718 0 930 -61 507 -205 991
-426 1430 -289 570 -727 1091 -1241 1472 -483 359 -996 597 -1566 727 -183 42
-227 50 -429 77 -207 27 -697 35 -910 14z m-927 -2702 l-3 -138 -392 -3 -393
-2 0 140 0 140 395 0 396 0 -3 -137z m3 -753 c4 -313 10 -480 18 -510 23 -88
44 -147 97 -270 90 -214 89 -199 89 -935 l0 -640 -602 -3 -603 -2 0 642 c0
736 1 740 85 934 117 269 117 265 122 802 l5 452 391 -2 392 -3 6 -465z m1758
-278 c236 -199 279 -232 307 -232 23 0 38 7 53 26 20 26 21 38 21 331 l0 304
357 -336 c314 -294 361 -335 389 -335 18 0 42 9 55 19 l24 19 5 313 5 314 333
-315 332 -314 0 -938 0 -938 -1645 0 -1645 0 2 328 3 327 267 3 267 2 20 27
c19 24 21 39 21 208 0 165 -2 185 -19 206 l-19 24 -270 3 -269 3 -6 117 c-6
133 -30 233 -83 360 -47 112 -84 210 -84 222 0 6 191 10 504 10 481 0 505 1
527 19 l24 19 3 322 3 321 122 -104 c67 -57 245 -208 396 -335z m-979 -1192
l0 -90 -215 0 -215 0 0 83 c0 46 3 87 7 90 3 4 100 7 215 7 l208 0 0 -90z"/>
<path d="M5053 4490 c-12 -5 -26 -18 -32 -29 -12 -21 -16 -377 -5 -406 16 -41
47 -45 389 -45 l327 0 29 29 29 29 0 181 c0 192 -6 221 -47 240 -29 13 -657
14 -690 1z m587 -230 l0 -90 -240 0 -240 0 0 90 0 90 240 0 240 0 0 -90z"/>
<path d="M6217 4480 l-27 -21 0 -203 c0 -194 1 -204 21 -222 20 -18 41 -19
366 -19 l345 0 19 24 c17 21 19 41 19 221 0 187 -1 198 -21 216 -20 18 -43 19
-358 22 -330 3 -338 2 -364 -18z m603 -220 l0 -90 -245 0 -245 0 0 83 c0 46 3
87 7 90 3 4 114 7 245 7 l238 0 0 -90z"/>
</g>
</svg>
