<?xml version="1.0" standalone="no"?>
<!DOCTYPE svg PUBLIC "-//W3C//DTD SVG 20010904//EN"
 "http://www.w3.org/TR/2001/REC-SVG-20010904/DTD/svg10.dtd">
<svg version="1.0" xmlns="http://www.w3.org/2000/svg"
 width="50.000000pt" height="50.000000pt" viewBox="0 0 50.000000 50.000000"
 preserveAspectRatio="xMidYMid meet">

<g transform="translate(0.000000,50.000000) scale(0.100000,-0.100000)"
fill="red" stroke="none">
<path d="M335 430 c-3 -5 -9 -32 -12 -59 -4 -34 -9 -48 -18 -44 -7 2 -31 -5
-54 -16 -48 -25 -51 -25 -51 -6 0 22 -20 18 -84 -16 l-57 -31 3 -96 3 -97 179
-3 c99 -1 183 1 187 5 11 11 -11 345 -23 361 -12 14 -64 16 -73 2z"/>
</g>
</svg>
