<?xml version="1.0" encoding="UTF-8"?>
<svg version="1.1" xmlns="http://www.w3.org/2000/svg" width="50" height="50">
<path d="M0 0 C2.05078125 0.03255208 4.1015625 0.06510417 6.15234375 0.09765625 C7.86652914 4.62700789 8.51291064 8.64430356 8.77734375 13.47265625 C8.85210937 14.71789063 8.926875 15.963125 9.00390625 17.24609375 C9.21646901 24.19353969 9.15234375 31.1469593 9.15234375 38.09765625 C-3.38765625 38.09765625 -15.92765625 38.09765625 -28.84765625 38.09765625 C-28.84765625 31.16765625 -28.84765625 24.23765625 -28.84765625 17.09765625 C-18.41583807 11.01242898 -18.41583807 11.01242898 -15.73828125 11.4140625 C-14.80242188 11.75244141 -14.80242188 11.75244141 -13.84765625 12.09765625 C-9.95211145 12.09765625 -9.06961115 11.76060072 -5.84765625 10.09765625 C-4.85765625 10.09765625 -3.86765625 10.09765625 -2.84765625 10.09765625 C-2.85925781 9.45957031 -2.87085937 8.82148438 -2.8828125 8.1640625 C-2.89183594 7.33777344 -2.90085937 6.51148438 -2.91015625 5.66015625 C-2.92175781 4.83644531 -2.93335937 4.01273438 -2.9453125 3.1640625 C-2.8198894 0.51010975 -2.66068535 0.14062819 0 0 Z " fill="#C81313" transform="translate(34.84765625,5.90234375)"/>
<path d="M0 0 C2.05078125 0.03255208 4.1015625 0.06510417 6.15234375 0.09765625 C7.86652914 4.62700789 8.51291064 8.64430356 8.77734375 13.47265625 C8.85210937 14.71789063 8.926875 15.963125 9.00390625 17.24609375 C9.21646901 24.19353969 9.15234375 31.1469593 9.15234375 38.09765625 C-3.38765625 38.09765625 -15.92765625 38.09765625 -28.84765625 38.09765625 C-28.84765625 31.16765625 -28.84765625 24.23765625 -28.84765625 17.09765625 C-18.41583807 11.01242898 -18.41583807 11.01242898 -15.73828125 11.4140625 C-14.80242188 11.75244141 -14.80242188 11.75244141 -13.84765625 12.09765625 C-9.95211145 12.09765625 -9.06961115 11.76060072 -5.84765625 10.09765625 C-4.85765625 10.09765625 -3.86765625 10.09765625 -2.84765625 10.09765625 C-2.85925781 9.45957031 -2.87085937 8.82148438 -2.8828125 8.1640625 C-2.89183594 7.33777344 -2.90085937 6.51148438 -2.91015625 5.66015625 C-2.92175781 4.83644531 -2.93335937 4.01273438 -2.9453125 3.1640625 C-2.8198894 0.51010975 -2.66068535 0.14062819 0 0 Z M-1.84765625 3.09765625 C-2.15364688 5.66682282 -2.35852712 8.14524009 -2.47265625 10.72265625 C-2.51132812 11.4290625 -2.55 12.13546875 -2.58984375 12.86328125 C-2.68413349 14.60764149 -2.76698516 16.35261316 -2.84765625 18.09765625 C-3.17765625 16.11765625 -3.50765625 14.13765625 -3.84765625 12.09765625 C-8.2365495 12.76264008 -11.82880475 14.28523302 -15.84765625 16.09765625 C-15.84765625 15.10765625 -15.84765625 14.11765625 -15.84765625 13.09765625 C-20.18556663 14.4403428 -23.71190982 16.02978304 -27.84765625 18.09765625 C-27.84765625 24.36765625 -27.84765625 30.63765625 -27.84765625 37.09765625 C-15.96765625 37.09765625 -4.08765625 37.09765625 8.15234375 37.09765625 C7.87126407 31.63667959 7.5879305 26.1760572 7.29345703 20.71582031 C7.20233181 19.02511636 7.11209853 17.33436398 7.02294922 15.64355469 C6.90435761 13.41961331 6.77937736 11.1961293 6.65234375 8.97265625 C6.5440625 7.01972656 6.5440625 7.01972656 6.43359375 5.02734375 C6.47667421 2.20988698 6.47667421 2.20988698 5.15234375 1.09765625 C1.19117575 0.70675292 1.19117575 0.70675292 -1.84765625 3.09765625 Z " fill="#0D0101" transform="translate(34.84765625,5.90234375)"/>
<path d="M0 0 C0.5775 0.309375 1.155 0.61875 1.75 0.9375 C-1.25 2.9375 -1.25 2.9375 -4.25 2.9375 C-4.25 1.9475 -4.25 0.9575 -4.25 -0.0625 C-7.715 1.4225 -7.715 1.4225 -11.25 2.9375 C-10.25 -0.0625 -10.25 -0.0625 -8.4375 -1.3125 C-5.05259356 -2.47303935 -3.14121829 -1.48335308 0 0 Z " fill="#120101" transform="translate(23.25,19.0625)"/>
</svg>
