<?xml version="1.0" standalone="no"?>
<!DOCTYPE svg PUBLIC "-//W3C//DTD SVG 20010904//EN"
 "http://www.w3.org/TR/2001/REC-SVG-20010904/DTD/svg10.dtd">
<svg version="1.0" xmlns="http://www.w3.org/2000/svg"
 width="500.000000pt" height="500.000000pt" viewBox="0 0 500.000000 500.000000"
 preserveAspectRatio="xMidYMid meet">

<g transform="translate(0.000000,500.000000) scale(0.100000,-0.100000)"
fill="red" stroke="none">
<path d="M700 3765 l0 -115 350 0 350 0 0 115 0 115 -350 0 -350 0 0 -115z"/>
<path d="M713 3523 c-10 -4 -13 -87 -13 -371 0 -426 -7 -475 -85 -657 -88
-203 -85 -174 -85 -806 0 -499 2 -557 16 -563 24 -9 997 -7 1012 2 10 7 12
123 10 583 l-3 574 -31 85 c-18 47 -48 124 -68 172 -61 144 -66 193 -66 608
l0 368 -22 6 c-27 7 -648 7 -665 -1z"/>
<path d="M2438 2991 c-2 -209 -6 -272 -17 -284 -12 -15 -55 -17 -436 -17 -233
0 -430 -3 -438 -6 -14 -5 -13 -12 3 -58 9 -28 26 -70 37 -91 53 -106 92 -274
93 -397 l0 -58 223 0 c185 0 226 -3 245 -16 21 -15 22 -21 22 -183 0 -150 -2
-170 -18 -184 -16 -15 -47 -17 -229 -17 -116 0 -218 -3 -227 -6 -14 -5 -16
-39 -16 -274 0 -235 2 -269 16 -274 20 -8 2768 -8 2788 0 14 6 16 85 16 799
l0 794 -280 264 c-154 145 -286 264 -295 264 -13 0 -15 -35 -15 -264 0 -250
-1 -264 -20 -283 -38 -38 -1 -68 -508 409 -79 74 -152 135 -162 136 -19 2 -20
-7 -20 -260 0 -249 -1 -263 -20 -280 -15 -13 -25 -16 -40 -9 -11 5 -167 133
-346 284 -180 151 -332 275 -340 276 -11 2 -14 -50 -16 -265z m721 -937 c19
-24 21 -40 21 -183 0 -126 -3 -161 -16 -179 -15 -22 -17 -22 -309 -22 -292 0
-294 0 -309 22 -13 18 -16 53 -16 179 0 143 2 159 21 183 l20 26 284 0 284 0
20 -26z m1001 6 c18 -18 20 -33 20 -187 0 -141 -3 -169 -17 -185 -15 -17 -38
-18 -304 -18 -248 0 -290 2 -303 16 -13 13 -16 45 -16 189 0 168 1 174 22 189
19 14 65 16 300 16 265 0 279 -1 298 -20z"/>
<path d="M2640 1875 l0 -75 215 0 215 0 0 75 0 75 -215 0 -215 0 0 -75z"/>
<path d="M3640 1875 l0 -75 220 0 220 0 0 75 0 75 -220 0 -220 0 0 -75z"/>
<path d="M1680 1875 l0 -75 195 0 195 0 0 75 0 75 -195 0 -195 0 0 -75z"/>
</g>
</svg>
