<svg xmlns="http://www.w3.org/2000/svg" xmlns:xlink="http://www.w3.org/1999/xlink" width="500" zoomAndPan="magnify" viewBox="0 0 375 374.999991" height="500" preserveAspectRatio="xMidYMid meet" version="1.0"><defs><clipPath id="07504e9eaa"><path d="M 50.632812 50.632812 L 324.382812 50.632812 L 324.382812 324.382812 L 50.632812 324.382812 Z M 50.632812 50.632812 " clip-rule="nonzero"/></clipPath><clipPath id="f664060128"><path d="M 90.554688 90.554688 L 284.804688 90.554688 L 284.804688 284.804688 L 90.554688 284.804688 Z M 90.554688 90.554688 " clip-rule="nonzero"/></clipPath></defs><g clip-path="url(#07504e9eaa)"><path fill="#2660ab" d="M 324.359375 187.496094 C 324.359375 189.734375 324.300781 191.972656 324.191406 194.210938 C 324.082031 196.445312 323.917969 198.679688 323.699219 200.910156 C 323.480469 203.136719 323.203125 205.359375 322.875 207.578125 C 322.546875 209.792969 322.164062 211.996094 321.726562 214.195312 C 321.289062 216.390625 320.800781 218.578125 320.253906 220.75 C 319.710938 222.921875 319.113281 225.078125 318.464844 227.222656 C 317.8125 229.367188 317.113281 231.492188 316.355469 233.601562 C 315.601562 235.710938 314.796875 237.800781 313.9375 239.871094 C 313.082031 241.9375 312.175781 243.984375 311.21875 246.011719 C 310.257812 248.035156 309.253906 250.035156 308.195312 252.011719 C 307.140625 253.988281 306.039062 255.933594 304.886719 257.855469 C 303.734375 259.777344 302.535156 261.667969 301.292969 263.53125 C 300.046875 265.394531 298.757812 267.222656 297.421875 269.023438 C 296.089844 270.824219 294.710938 272.585938 293.289062 274.320312 C 291.871094 276.050781 290.40625 277.746094 288.902344 279.40625 C 287.398438 281.066406 285.855469 282.6875 284.269531 284.269531 C 282.6875 285.855469 281.066406 287.398438 279.40625 288.902344 C 277.746094 290.40625 276.050781 291.871094 274.320312 293.289062 C 272.585938 294.710938 270.824219 296.089844 269.023438 297.421875 C 267.222656 298.757812 265.394531 300.046875 263.53125 301.292969 C 261.667969 302.535156 259.777344 303.734375 257.855469 304.886719 C 255.933594 306.039062 253.988281 307.140625 252.011719 308.195312 C 250.035156 309.253906 248.035156 310.257812 246.011719 311.21875 C 243.984375 312.175781 241.9375 313.082031 239.871094 313.9375 C 237.800781 314.796875 235.710938 315.601562 233.601562 316.355469 C 231.492188 317.113281 229.367188 317.8125 227.222656 318.464844 C 225.078125 319.113281 222.921875 319.710938 220.75 320.253906 C 218.578125 320.800781 216.390625 321.289062 214.195312 321.726562 C 211.996094 322.164062 209.792969 322.546875 207.578125 322.875 C 205.359375 323.203125 203.136719 323.480469 200.910156 323.699219 C 198.679688 323.917969 196.445312 324.082031 194.210938 324.191406 C 191.972656 324.300781 189.734375 324.359375 187.496094 324.359375 C 185.253906 324.359375 183.015625 324.300781 180.777344 324.191406 C 178.542969 324.082031 176.308594 323.917969 174.078125 323.699219 C 171.851562 323.480469 169.628906 323.203125 167.414062 322.875 C 165.195312 322.546875 162.992188 322.164062 160.792969 321.726562 C 158.597656 321.289062 156.410156 320.800781 154.238281 320.253906 C 152.066406 319.710938 149.910156 319.113281 147.765625 318.464844 C 145.621094 317.8125 143.496094 317.113281 141.386719 316.355469 C 139.277344 315.601562 137.1875 314.796875 135.117188 313.9375 C 133.050781 313.082031 131.003906 312.175781 128.976562 311.21875 C 126.953125 310.257812 124.953125 309.253906 122.976562 308.195312 C 121 307.140625 119.054688 306.039062 117.132812 304.886719 C 115.210938 303.734375 113.320312 302.535156 111.457031 301.292969 C 109.59375 300.046875 107.765625 298.757812 105.964844 297.421875 C 104.164062 296.089844 102.402344 294.710938 100.667969 293.289062 C 98.9375 291.871094 97.242188 290.40625 95.582031 288.902344 C 93.921875 287.398438 92.300781 285.855469 90.71875 284.269531 C 89.132812 282.6875 87.589844 281.066406 86.085938 279.40625 C 84.582031 277.746094 83.117188 276.050781 81.699219 274.320312 C 80.277344 272.585938 78.898438 270.824219 77.566406 269.023438 C 76.230469 267.222656 74.941406 265.394531 73.695312 263.53125 C 72.453125 261.667969 71.253906 259.777344 70.101562 257.855469 C 68.949219 255.933594 67.847656 253.988281 66.792969 252.011719 C 65.734375 250.035156 64.730469 248.035156 63.769531 246.011719 C 62.8125 243.984375 61.90625 241.9375 61.050781 239.871094 C 60.191406 237.800781 59.386719 235.710938 58.632812 233.601562 C 57.875 231.492188 57.175781 229.367188 56.523438 227.222656 C 55.875 225.078125 55.277344 222.921875 54.734375 220.75 C 54.1875 218.578125 53.699219 216.390625 53.261719 214.195312 C 52.824219 211.996094 52.441406 209.792969 52.113281 207.578125 C 51.785156 205.359375 51.507812 203.136719 51.289062 200.910156 C 51.070312 198.679688 50.90625 196.445312 50.796875 194.210938 C 50.6875 191.972656 50.632812 189.734375 50.632812 187.496094 C 50.632812 185.253906 50.6875 183.015625 50.796875 180.777344 C 50.90625 178.542969 51.070312 176.308594 51.289062 174.078125 C 51.507812 171.851562 51.785156 169.628906 52.113281 167.414062 C 52.441406 165.195312 52.824219 162.992188 53.261719 160.792969 C 53.699219 158.597656 54.1875 156.410156 54.734375 154.238281 C 55.277344 152.066406 55.875 149.910156 56.523438 147.765625 C 57.175781 145.621094 57.875 143.496094 58.632812 141.386719 C 59.386719 139.277344 60.191406 137.1875 61.050781 135.117188 C 61.90625 133.050781 62.8125 131.003906 63.769531 128.976562 C 64.730469 126.953125 65.734375 124.953125 66.792969 122.976562 C 67.847656 121 68.949219 119.054688 70.101562 117.132812 C 71.253906 115.210938 72.453125 113.320312 73.695312 111.457031 C 74.941406 109.59375 76.230469 107.765625 77.566406 105.964844 C 78.898438 104.164062 80.277344 102.402344 81.699219 100.667969 C 83.117188 98.9375 84.582031 97.242188 86.085938 95.582031 C 87.589844 93.921875 89.132812 92.300781 90.71875 90.71875 C 92.300781 89.132812 93.921875 87.589844 95.582031 86.085938 C 97.242188 84.582031 98.9375 83.117188 100.667969 81.699219 C 102.402344 80.277344 104.164062 78.898438 105.964844 77.566406 C 107.765625 76.230469 109.59375 74.941406 111.457031 73.695312 C 113.320312 72.453125 115.210938 71.253906 117.132812 70.101562 C 119.054688 68.949219 121 67.847656 122.976562 66.792969 C 124.953125 65.734375 126.953125 64.730469 128.976562 63.769531 C 131.003906 62.8125 133.050781 61.90625 135.117188 61.050781 C 137.1875 60.191406 139.277344 59.386719 141.386719 58.632812 C 143.496094 57.875 145.621094 57.175781 147.765625 56.523438 C 149.910156 55.875 152.066406 55.277344 154.238281 54.734375 C 156.410156 54.1875 158.597656 53.699219 160.792969 53.261719 C 162.992188 52.824219 165.195312 52.441406 167.414062 52.113281 C 169.628906 51.785156 171.851562 51.507812 174.078125 51.289062 C 176.308594 51.070312 178.542969 50.90625 180.777344 50.796875 C 183.015625 50.6875 185.253906 50.632812 187.496094 50.632812 C 189.734375 50.632812 191.972656 50.6875 194.210938 50.796875 C 196.445312 50.90625 198.679688 51.070312 200.910156 51.289062 C 203.136719 51.507812 205.359375 51.785156 207.578125 52.113281 C 209.792969 52.441406 211.996094 52.824219 214.195312 53.261719 C 216.390625 53.699219 218.578125 54.1875 220.75 54.734375 C 222.921875 55.277344 225.078125 55.875 227.222656 56.523438 C 229.367188 57.175781 231.492188 57.875 233.601562 58.632812 C 235.710938 59.386719 237.800781 60.191406 239.871094 61.050781 C 241.9375 61.90625 243.984375 62.8125 246.011719 63.769531 C 248.035156 64.730469 250.035156 65.734375 252.011719 66.792969 C 253.988281 67.847656 255.933594 68.949219 257.855469 70.101562 C 259.777344 71.253906 261.667969 72.453125 263.53125 73.695312 C 265.394531 74.941406 267.222656 76.230469 269.023438 77.566406 C 270.824219 78.898438 272.585938 80.277344 274.320312 81.699219 C 276.050781 83.117188 277.746094 84.582031 279.40625 86.085938 C 281.066406 87.589844 282.6875 89.132812 284.269531 90.71875 C 285.855469 92.300781 287.398438 93.921875 288.902344 95.582031 C 290.40625 97.242188 291.871094 98.9375 293.289062 100.667969 C 294.710938 102.402344 296.089844 104.164062 297.421875 105.964844 C 298.757812 107.765625 300.046875 109.59375 301.292969 111.457031 C 302.535156 113.320312 303.734375 115.210938 304.886719 117.132812 C 306.039062 119.054688 307.140625 121 308.195312 122.976562 C 309.253906 124.953125 310.257812 126.953125 311.21875 128.976562 C 312.175781 131.003906 313.082031 133.050781 313.9375 135.117188 C 314.796875 137.1875 315.601562 139.277344 316.355469 141.386719 C 317.113281 143.496094 317.8125 145.621094 318.464844 147.765625 C 319.113281 149.910156 319.710938 152.066406 320.253906 154.238281 C 320.800781 156.410156 321.289062 158.597656 321.726562 160.792969 C 322.164062 162.992188 322.546875 165.195312 322.875 167.414062 C 323.203125 169.628906 323.480469 171.851562 323.699219 174.078125 C 323.917969 176.308594 324.082031 178.542969 324.191406 180.777344 C 324.300781 183.015625 324.359375 185.253906 324.359375 187.496094 Z M 324.359375 187.496094 " fill-opacity="1" fill-rule="nonzero"/></g><g clip-path="url(#f664060128)"><path fill="#80d1ff" d="M 284.441406 187.5 C 284.441406 189.085938 284.402344 190.671875 284.324219 192.257812 C 284.246094 193.839844 284.132812 195.421875 283.976562 197 C 283.820312 198.582031 283.625 200.15625 283.394531 201.722656 C 283.160156 203.292969 282.890625 204.855469 282.578125 206.410156 C 282.269531 207.96875 281.921875 209.515625 281.539062 211.054688 C 281.152344 212.59375 280.730469 214.121094 280.269531 215.640625 C 279.808594 217.160156 279.308594 218.664062 278.777344 220.160156 C 278.242188 221.652344 277.671875 223.132812 277.0625 224.597656 C 276.457031 226.0625 275.8125 227.515625 275.136719 228.949219 C 274.457031 230.382812 273.742188 231.800781 272.996094 233.199219 C 272.246094 234.597656 271.464844 235.976562 270.652344 237.339844 C 269.835938 238.699219 268.984375 240.039062 268.105469 241.359375 C 267.222656 242.675781 266.308594 243.972656 265.363281 245.25 C 264.417969 246.523438 263.445312 247.773438 262.4375 249 C 261.429688 250.226562 260.394531 251.425781 259.328125 252.601562 C 258.265625 253.777344 257.171875 254.925781 256.046875 256.046875 C 254.925781 257.171875 253.777344 258.265625 252.601562 259.328125 C 251.425781 260.394531 250.226562 261.429688 249 262.4375 C 247.773438 263.445312 246.523438 264.417969 245.25 265.363281 C 243.972656 266.308594 242.675781 267.222656 241.359375 268.105469 C 240.039062 268.984375 238.699219 269.835938 237.339844 270.648438 C 235.976562 271.464844 234.597656 272.246094 233.199219 272.996094 C 231.800781 273.742188 230.382812 274.457031 228.949219 275.136719 C 227.515625 275.8125 226.0625 276.457031 224.597656 277.0625 C 223.132812 277.671875 221.652344 278.242188 220.160156 278.777344 C 218.664062 279.308594 217.160156 279.808594 215.640625 280.269531 C 214.121094 280.730469 212.59375 281.152344 211.054688 281.539062 C 209.515625 281.921875 207.96875 282.269531 206.410156 282.578125 C 204.855469 282.890625 203.292969 283.160156 201.722656 283.394531 C 200.15625 283.625 198.582031 283.820312 197 283.976562 C 195.421875 284.132812 193.839844 284.25 192.257812 284.324219 C 190.671875 284.402344 189.085938 284.441406 187.5 284.441406 C 185.914062 284.441406 184.328125 284.402344 182.742188 284.324219 C 181.15625 284.25 179.574219 284.132812 177.996094 283.976562 C 176.417969 283.820312 174.84375 283.625 173.273438 283.394531 C 171.707031 283.160156 170.144531 282.890625 168.585938 282.578125 C 167.03125 282.269531 165.484375 281.921875 163.945312 281.539062 C 162.40625 281.152344 160.875 280.730469 159.359375 280.269531 C 157.839844 279.808594 156.332031 279.308594 154.839844 278.777344 C 153.347656 278.242188 151.867188 277.671875 150.402344 277.0625 C 148.933594 276.457031 147.484375 275.8125 146.050781 275.136719 C 144.617188 274.457031 143.199219 273.742188 141.800781 272.996094 C 140.402344 272.246094 139.019531 271.464844 137.660156 270.648438 C 136.300781 269.835938 134.960938 268.984375 133.640625 268.105469 C 132.320312 267.222656 131.023438 266.308594 129.75 265.363281 C 128.476562 264.417969 127.226562 263.445312 126 262.4375 C 124.773438 261.429688 123.570312 260.394531 122.394531 259.328125 C 121.21875 258.265625 120.070312 257.171875 118.949219 256.046875 C 117.828125 254.925781 116.734375 253.777344 115.667969 252.601562 C 114.605469 251.425781 113.566406 250.226562 112.5625 249 C 111.554688 247.773438 110.578125 246.523438 109.632812 245.25 C 108.6875 243.972656 107.773438 242.675781 106.894531 241.359375 C 106.011719 240.039062 105.164062 238.699219 104.347656 237.339844 C 103.53125 235.976562 102.75 234.597656 102.003906 233.199219 C 101.253906 231.800781 100.542969 230.382812 99.863281 228.949219 C 99.183594 227.515625 98.542969 226.0625 97.933594 224.597656 C 97.328125 223.132812 96.757812 221.652344 96.222656 220.160156 C 95.6875 218.664062 95.191406 217.160156 94.730469 215.640625 C 94.269531 214.121094 93.847656 212.59375 93.460938 211.054688 C 93.074219 209.515625 92.726562 207.96875 92.417969 206.410156 C 92.109375 204.855469 91.839844 203.292969 91.605469 201.722656 C 91.371094 200.15625 91.179688 198.582031 91.023438 197 C 90.867188 195.421875 90.75 193.839844 90.671875 192.257812 C 90.59375 190.671875 90.554688 189.085938 90.554688 187.5 C 90.554688 185.914062 90.59375 184.328125 90.671875 182.742188 C 90.75 181.15625 90.867188 179.574219 91.023438 177.996094 C 91.179688 176.417969 91.371094 174.84375 91.605469 173.273438 C 91.839844 171.707031 92.109375 170.144531 92.417969 168.585938 C 92.726562 167.03125 93.074219 165.484375 93.460938 163.945312 C 93.847656 162.40625 94.269531 160.875 94.730469 159.359375 C 95.191406 157.839844 95.6875 156.332031 96.222656 154.839844 C 96.757812 153.347656 97.328125 151.867188 97.933594 150.402344 C 98.542969 148.933594 99.183594 147.484375 99.863281 146.050781 C 100.542969 144.617188 101.253906 143.199219 102.003906 141.800781 C 102.75 140.402344 103.53125 139.019531 104.347656 137.660156 C 105.164062 136.300781 106.011719 134.960938 106.894531 133.640625 C 107.773438 132.320312 108.6875 131.023438 109.632812 129.75 C 110.578125 128.476562 111.554688 127.226562 112.5625 126 C 113.566406 124.773438 114.605469 123.570312 115.667969 122.394531 C 116.734375 121.21875 117.828125 120.070312 118.949219 118.949219 C 120.070312 117.828125 121.21875 116.734375 122.394531 115.667969 C 123.570312 114.605469 124.773438 113.566406 126 112.5625 C 127.226562 111.554688 128.476562 110.578125 129.75 109.632812 C 131.023438 108.6875 132.320312 107.773438 133.640625 106.894531 C 134.960938 106.011719 136.300781 105.164062 137.660156 104.347656 C 139.019531 103.53125 140.402344 102.75 141.800781 102.003906 C 143.199219 101.253906 144.617188 100.542969 146.050781 99.863281 C 147.484375 99.183594 148.933594 98.542969 150.402344 97.933594 C 151.867188 97.328125 153.347656 96.757812 154.839844 96.222656 C 156.332031 95.6875 157.839844 95.191406 159.359375 94.730469 C 160.875 94.269531 162.40625 93.847656 163.945312 93.460938 C 165.484375 93.074219 167.03125 92.726562 168.585938 92.417969 C 170.144531 92.109375 171.707031 91.839844 173.273438 91.605469 C 174.84375 91.371094 176.417969 91.179688 177.996094 91.023438 C 179.574219 90.867188 181.15625 90.75 182.742188 90.671875 C 184.328125 90.59375 185.914062 90.554688 187.5 90.554688 C 189.085938 90.554688 190.671875 90.59375 192.257812 90.671875 C 193.839844 90.75 195.421875 90.867188 197 91.023438 C 198.582031 91.179688 200.15625 91.371094 201.722656 91.605469 C 203.292969 91.839844 204.855469 92.109375 206.410156 92.417969 C 207.96875 92.726562 209.515625 93.074219 211.054688 93.460938 C 212.59375 93.847656 214.121094 94.269531 215.640625 94.730469 C 217.160156 95.191406 218.664062 95.6875 220.160156 96.222656 C 221.652344 96.757812 223.132812 97.328125 224.597656 97.933594 C 226.0625 98.542969 227.515625 99.183594 228.949219 99.863281 C 230.382812 100.542969 231.800781 101.253906 233.199219 102.003906 C 234.597656 102.75 235.976562 103.53125 237.339844 104.347656 C 238.699219 105.164062 240.039062 106.011719 241.359375 106.894531 C 242.675781 107.773438 243.972656 108.6875 245.25 109.632812 C 246.523438 110.578125 247.773438 111.554688 249 112.5625 C 250.226562 113.566406 251.425781 114.605469 252.601562 115.667969 C 253.777344 116.734375 254.925781 117.828125 256.046875 118.949219 C 257.171875 120.070312 258.265625 121.21875 259.328125 122.394531 C 260.394531 123.570312 261.429688 124.773438 262.4375 126 C 263.445312 127.226562 264.417969 128.476562 265.363281 129.75 C 266.308594 131.023438 267.222656 132.320312 268.105469 133.640625 C 268.984375 134.960938 269.835938 136.300781 270.652344 137.660156 C 271.464844 139.019531 272.246094 140.402344 272.996094 141.800781 C 273.742188 143.199219 274.457031 144.617188 275.136719 146.050781 C 275.8125 147.484375 276.457031 148.933594 277.0625 150.402344 C 277.671875 151.867188 278.242188 153.347656 278.777344 154.839844 C 279.308594 156.332031 279.808594 157.839844 280.269531 159.359375 C 280.730469 160.875 281.152344 162.40625 281.539062 163.945312 C 281.921875 165.484375 282.269531 167.03125 282.578125 168.585938 C 282.890625 170.144531 283.160156 171.707031 283.394531 173.273438 C 283.625 174.84375 283.820312 176.417969 283.976562 177.996094 C 284.132812 179.574219 284.25 181.15625 284.324219 182.742188 C 284.402344 184.328125 284.441406 185.914062 284.441406 187.5 Z M 284.441406 187.5 " fill-opacity="1" fill-rule="nonzero"/></g></svg>