<?xml version="1.0" standalone="no"?>
<!DOCTYPE svg PUBLIC "-//W3C//DTD SVG 20010904//EN"
 "http://www.w3.org/TR/2001/REC-SVG-20010904/DTD/svg10.dtd">
<svg version="1.0" xmlns="http://www.w3.org/2000/svg"
 width="1000.000000pt" height="1000.000000pt" viewBox="0 0 1000.000000 1000.000000"
 preserveAspectRatio="xMidYMid meet">

<g transform="translate(0.000000,1000.000000) scale(0.100000,-0.100000)"
fill="blue" stroke="none">
<path d="M4820 8494 c-771 -53 -1432 -305 -2015 -770 -141 -113 -416 -388
-529 -529 -613 -768 -873 -1723 -736 -2697 133 -943 667 -1811 1453 -2361 457
-320 964 -520 1509 -596 976 -137 1915 119 2685 731 150 118 415 381 527 521
623 780 884 1729 746 2709 -87 617 -341 1198 -746 1705 -112 140 -377 403
-527 521 -528 420 -1126 669 -1794 747 -127 15 -468 26 -573 19z m510 -928
c950 -128 1736 -740 2090 -1630 115 -290 170 -595 170 -941 0 -286 -30 -502
-106 -752 -272 -902 -1025 -1591 -1949 -1784 -181 -37 -302 -49 -530 -49 -228
0 -349 12 -529 49 -1080 226 -1898 1110 -2041 2204 -20 157 -20 507 0 664 121
924 729 1714 1593 2068 185 75 419 138 637 170 125 18 531 19 665 1z"/>
</g>
</svg>
